<svg width="940" height="516" viewBox="0 0 940 516" fill="none" xmlns="http://www.w3.org/2000/svg">
<path d="M359.874 141.28L361.348 141.199L362.876 140.789L364.786 139.887L366.75 138.713L367.733 138.166L368.715 137.593L369.697 137.129L371.662 136.146L372.645 135.599L373.627 135.162L374.609 134.616L375.592 134.179L376.574 133.633L377.556 133.196L378.539 132.649L379.521 132.213L381.486 131.229L382.468 130.71L383.45 130.3L384.433 129.864L386.397 129.099L388.362 128.307L389.344 127.897L391.309 127.132L392.291 126.722L393.274 126.367L394.256 125.985L395.238 125.712L397.203 125.166L399.168 124.565L401.132 123.909L403.097 123.254L404.079 122.926L405.062 122.598L407.026 122.025L408.009 121.806L409.974 121.424L411.938 121.014L413.903 120.687L414.885 120.577L416.85 120.249L417.832 120.031L418.815 119.839L420.779 119.458L421.762 119.266L422.744 119.048L424.709 118.747L426.673 118.584L427.656 118.447L429.62 118.064L431.585 117.764L432.567 117.71L433.55 117.682H435.514H441.408H446.32H448.285L449.267 117.71L450.25 117.764L452.214 118.064L454.179 118.447L455.161 118.584L457.126 118.747L459.091 119.048L460.073 119.294L462.038 119.785L463.02 120.003L464.985 120.495L465.967 120.768L466.949 120.987L467.932 121.26L468.914 121.478L469.896 121.752L470.879 121.998L472.843 122.626L474.808 123.417L475.79 123.827L476.773 124.347L478.737 125.33L479.72 125.794L480.702 126.367L482.667 127.515L483.649 128.115L484.631 128.689L486.596 129.945L487.578 130.71L489.543 132.458L491.508 134.397L493.391 136.364L494.237 137.347L495.028 138.331C495.737 139.295 496.421 140.277 497.075 141.28L498.303 143.247L499.312 145.213L499.721 146.197L500.158 147.18L500.949 149.146L501.632 151.113L501.931 152.096L502.177 153.079L502.668 155.046L502.941 156.029L503.159 157.013L503.651 158.979L503.896 159.962L504.197 161.929L504.251 162.912L504.278 164.879V165.862V167.828V170.778V171.761L504.251 173.728L504.197 174.711L503.896 176.678L503.651 177.661L503.159 179.628L502.941 180.611L502.668 181.594L502.45 182.577L502.177 183.561L501.931 184.544L501.304 186.51L500.513 188.477L500.103 189.46L499.585 190.444L498.602 192.41L498.139 193.393L496.966 195.36L496.256 196.343L494.809 198.31L494.073 199.293L492.409 201.259L490.525 203.226L489.543 204.182L488.561 205.111L486.596 206.776L484.631 208.279L483.649 208.961L482.667 209.672L481.684 210.273L479.72 211.475L477.755 212.649L475.79 213.632L474.808 214.014L472.843 214.698L471.861 215.053L470.879 215.408L468.914 216.254L467.932 216.746L465.967 217.511L464.985 217.757L463.02 218.166L462.038 218.357L460.073 218.821L459.091 219.095L457.126 219.586L456.144 219.805L455.161 220.078L453.197 220.542L452.214 220.734L450.25 221.115L449.267 221.307L447.302 221.69L446.32 221.826L444.355 221.935L443.373 221.99L442.391 222.126L440.426 222.509L438.461 222.81L437.479 222.864L435.514 222.891H434.532H431.585H419.797H398.185H395.238L393.274 222.919L391.337 223.219L390.436 223.601L389.671 224.202L389.071 224.967L388.471 226.824L388.362 228.791V229.774V230.757V233.707V241.573V288.77L389.344 289.753H420.779H433.55H436.497H438.461L440.426 289.781L441.408 289.835L443.373 290.136L444.355 290.354L446.32 290.655L447.302 290.709L449.267 290.736L450.25 290.764L451.232 290.818L453.197 291.119L454.179 291.337L455.161 291.529L457.126 291.91L458.108 292.102L460.073 292.512L462.038 292.894L463.02 293.085L464.985 293.549L465.967 293.823L466.949 294.041L468.914 294.533L469.896 294.806L471.861 295.298L472.843 295.516L473.826 295.817L474.808 296.089L475.79 296.499L476.773 296.882L477.755 297.373L479.72 298.22L480.702 298.575L481.684 298.93L483.649 299.613L484.631 299.968L486.596 300.842L488.561 301.935L490.525 303.136L492.49 304.256L493.473 304.748L495.437 305.949L496.42 306.687L497.402 307.452L499.367 309.036L500.349 309.801L502.314 311.467L504.278 313.351L505.233 314.335L506.161 315.318L507.826 317.285L508.59 318.268L510.172 320.234L510.937 321.218L511.673 322.201L512.874 324.167L513.337 325.151L514.32 327.117L514.838 328.1L515.684 330.067L516.394 332.033L516.722 333.017L517.049 334L517.621 335.967L517.841 336.95L518.222 338.916L518.413 339.9L518.631 340.883L518.932 342.849L518.986 343.833L519.041 345.799L519.068 346.782L519.177 348.749L519.231 349.732L519.177 350.715L519.068 352.682L519.013 354.649L518.986 356.615L518.932 357.598L518.631 359.565L518.413 360.548L518.031 362.515L517.649 364.481L517.185 366.448L516.885 367.431L516.613 368.414L515.821 370.381L515.33 371.364L514.484 373.331L513.72 375.297L513.283 376.28L512.846 377.264L511.701 379.23L510.309 381.197L509.572 382.18L508.889 383.163L507.526 385.13L506.816 386.113L505.179 388.079L503.296 389.964L501.331 391.63L500.349 392.367L498.384 393.815L497.402 394.526L496.42 395.127L494.455 396.382L493.473 397.093L492.49 397.748L491.508 398.459L489.543 399.605L488.561 400.043L487.578 400.479L485.614 401.244L483.649 402.091L482.667 402.583L480.702 403.429L478.737 404.139L476.773 404.795L475.79 405.096L474.808 405.396L473.826 405.642L471.861 406.161L470.879 406.461L468.914 407.062L467.932 407.335L465.967 407.69L464.985 407.8L464.002 407.963L462.038 408.346L460.073 408.646L459.091 408.7L457.126 408.81L455.161 409.111L454.179 409.329L452.214 409.63L451.232 409.684L450.25 409.711H448.285H441.408H434.532H432.567L430.603 409.684L429.62 409.63L427.656 409.329L426.673 409.111L424.709 408.81L423.726 408.756L421.762 408.7L420.779 408.646L418.815 408.346L417.832 408.127L415.868 407.826L414.885 407.772L412.921 407.663L411.938 407.526L409.974 407.116L408.991 406.898L408.009 406.625L406.044 406.133L405.062 405.915L404.079 405.642L402.115 405.177L401.132 404.986L399.168 404.604L398.185 404.412L396.221 403.948L395.238 403.675L394.256 403.429L392.291 402.828L390.327 402.173L387.38 401.189L384.433 400.206L382.468 399.551L380.503 398.868L379.521 398.513L377.556 397.666L376.574 397.175L374.609 396.328L372.645 395.563L371.662 395.127L370.68 394.717L368.715 393.761L367.733 393.214L366.75 392.778L365.768 392.231L364.786 391.794L363.803 391.248L362.821 390.811L361.839 390.264L360.856 389.8L358.892 388.68L356.927 387.479L354.962 386.304L353.98 385.73L352.998 385.102L351.033 383.819L349.068 382.59L347.159 381.688L345.63 381.278L344.157 381.197L343.447 382.672L343.42 383.218L343.229 384.201L343.202 385.13L343.174 386.113V387.096V390.046V399.879V437.243V445.109V448.059V449.042V451.008L343.202 451.992L343.283 452.975L343.884 454.86L344.484 455.679L346.149 457.045L348.086 458.055L349.068 458.492L351.033 459.257L352.015 459.694L352.998 460.104L353.98 460.623L354.962 461.059L355.945 461.578L357.909 462.425L358.892 462.78L360.856 463.408L361.839 463.654L363.803 464.227L364.786 464.61L365.768 464.965L367.733 465.73L369.697 466.358L371.662 466.877L372.645 467.096L373.627 467.369L374.609 467.587L375.592 467.861L377.556 468.352L378.539 468.57L380.503 469.09L381.486 469.389L383.45 469.991L385.415 470.483L386.397 470.674L388.362 471.056L389.344 471.274L391.309 471.575L393.274 471.738L394.256 471.875L396.221 472.258L398.185 472.585L400.15 472.858L402.115 473.241L404.079 473.568L405.062 473.678L407.026 474.006L408.009 474.224L409.974 474.525L410.956 474.579L412.921 474.607H414.885L415.868 474.634L416.85 474.688L418.815 474.989L419.797 475.207L421.762 475.508L422.744 475.562L423.726 475.59H425.691H431.585H448.285H462.038H466.949H467.932L469.896 475.562L470.879 475.508L472.843 475.207L473.826 474.989L475.79 474.688L476.773 474.634L477.755 474.607L479.72 474.579L480.702 474.525L482.667 474.224L483.649 474.006L484.631 473.814L486.596 473.433L487.578 473.241L488.561 473.023L489.543 472.831L491.508 472.449L493.473 472.039L495.437 471.712L496.42 471.602L498.384 471.274L500.349 470.864L502.314 470.483L503.296 470.264L504.278 469.991L506.243 469.389L507.225 469.09L509.19 468.57L510.172 468.352L511.155 468.079L512.137 467.861L513.119 467.587L515.084 467.096L516.066 466.877L518.031 466.304L519.013 465.922L519.996 465.567L520.978 465.157L522.943 464.447L523.925 464.118L525.89 463.463L526.872 463.135L527.854 462.78L528.837 462.425L530.802 461.578L531.784 461.059L532.766 460.623L533.749 460.104L535.713 459.257L537.678 458.492L539.643 457.645L540.625 457.126L541.607 456.69L542.59 456.143L543.572 455.679L544.554 455.106L545.537 454.559L547.501 453.357L549.466 452.182L550.448 451.609L552.413 450.353L553.395 449.698L555.36 448.386L557.325 447.075L558.307 446.393L559.289 445.71L561.254 444.262L562.236 443.497L563.219 442.787L564.201 442.022L565.183 441.312L566.166 440.547L568.131 438.991L569.113 438.144L571.078 436.259L572.06 435.276L574.025 433.31L575.989 431.343L577.926 429.377L578.855 428.393L580.519 426.427L581.283 425.443L582.074 424.46L583.657 422.494L584.421 421.51L585.813 419.544L586.468 418.561L587.777 416.594L589.087 414.628L589.714 413.644L590.342 412.661L591.461 410.695L591.925 409.711L592.471 408.728L592.907 407.745L593.453 406.762L593.889 405.778L594.872 403.812L595.39 402.828L595.8 401.845L596.236 400.862L597.001 398.895L597.791 396.929L598.201 395.946L598.91 393.979L599.238 392.996L599.893 391.029L600.548 389.063L600.848 388.079L601.12 387.096L601.53 385.13L601.912 383.163L602.13 382.18L602.322 381.197L602.703 379.23L602.895 378.247L603.113 377.264L603.44 375.297L603.713 373.331L604.095 371.364L604.422 369.397L604.532 368.414L604.859 366.448L605.077 365.464L605.378 363.498L605.432 362.515L605.459 360.548V359.565V357.598V347.766V342.849V340.883L605.432 339.9L605.378 338.916L605.077 336.95L604.832 335.967L604.614 334.983L604.341 334L603.877 332.033L603.685 331.05L603.495 330.067L603.113 328.1L602.895 327.117L602.512 325.151L602.13 323.184L601.667 321.218L601.366 320.234L601.094 319.251L600.712 318.268L600.357 317.285L599.948 316.301L599.183 314.335L598.774 313.351L597.983 311.385L597.219 309.418L596.345 307.452L595.8 306.469L595.254 305.485L594.054 303.519L592.935 301.552L592.443 300.569L591.271 298.602L590.56 297.619L589.879 296.636L589.114 295.653L587.641 293.686L586.932 292.703L585.431 290.736L583.766 288.77L582.838 287.787L581.883 286.803L580 284.837L579.154 283.881L578.336 282.952L576.753 281.286L574.979 279.702L574.025 278.882L573.042 278.009L571.078 276.37L570.095 275.632L568.131 274.158L566.166 272.683L565.183 271.918L564.201 271.235L563.219 270.524L561.254 269.35L560.272 268.859L558.307 267.739L556.342 266.537L554.378 265.417L553.395 264.953L552.413 264.434L551.431 264.024L550.448 263.587L548.484 262.822L546.519 261.976L545.537 261.484L543.572 260.638L542.59 260.283L541.607 259.928L539.643 259.272L537.678 258.616L536.696 258.289L535.713 257.988L534.731 257.688L533.749 257.442L531.784 256.95L530.802 256.677L529.819 256.459L527.854 255.967L526.872 255.721L524.907 255.394L523.925 255.284L521.96 254.956L520.978 254.738L519.013 254.411L518.031 254.301L516.066 253.973L514.157 253.591L513.611 253.454L512.137 253.372L514.157 252.171L515.139 251.624L517.049 250.859L519.013 250.286L519.996 250.04L521.96 249.439L523.925 248.783L524.907 248.429L525.89 248.074L527.854 247.282L528.837 246.872L530.802 246.162L531.784 245.834L533.749 245.124L535.713 244.277L536.696 243.758L538.66 242.775L539.643 242.338L540.625 241.791L541.607 241.355L542.59 240.808L543.572 240.344L545.537 239.224L546.519 238.596L548.484 237.313L550.448 236.001L551.431 235.346L553.395 234.008L554.378 233.325L556.342 231.877L557.325 231.112L559.289 229.556L560.272 228.709L562.236 226.824L563.219 225.841L565.183 223.874L567.121 221.908L568.049 220.925L569.713 218.958L570.477 217.975L571.268 216.992L572.824 215.025L573.561 214.042L574.189 213.059L575.389 211.092L576.589 209.126L577.136 208.142L577.708 207.159L578.718 205.192L579.154 204.209L579.701 203.226L580.137 202.243L581.119 200.276L581.638 199.293L582.483 197.326L583.248 195.36L584.039 193.393L584.803 191.427L585.431 189.46L585.949 187.494L586.195 186.51L586.494 185.527L587.096 183.561L587.395 182.577L587.914 180.611L588.132 179.628L588.378 178.644L588.678 176.678L588.841 174.711L588.978 173.728L589.36 171.761L589.66 169.795L589.714 168.812L589.742 166.845V164.879V161.929V159.962L589.824 157.996L589.96 157.013L590.342 155.046L590.643 153.079L590.697 152.096L590.643 150.13L590.342 148.163L590.124 147.18L589.824 145.213L589.742 143.247V141.28V140.297L589.714 138.331L589.66 137.347L589.36 135.381L588.978 133.414L588.841 132.431L588.678 130.464L588.35 128.498L588.078 127.515L587.45 125.548L586.795 123.582L586.494 122.598L586.195 121.615L585.949 120.632L585.676 119.649L585.431 118.665L584.803 116.699L584.012 114.732L583.602 113.749L583.084 112.766L582.129 110.799L581.719 109.816L581.256 108.833L580.846 107.849L579.837 105.883L578.609 103.916L577.954 102.933L576.644 100.967L575.334 99L574.68 98.0167L574.025 97.0335L572.633 95.0669L571.842 94.0837L570.996 93.1004L569.194 91.1339L568.349 90.178L566.766 88.4026L565.948 87.5832L565.102 86.8184L563.219 85.1524L562.236 84.2237L560.272 82.3664L558.307 80.7004L557.325 79.9629L556.342 79.1981L554.378 77.7506L553.395 77.0678L552.413 76.3849L550.448 75.074L548.484 73.7629L547.501 73.1074L546.519 72.4792L545.537 71.851L543.572 70.7312L542.59 70.2669L541.607 69.7206L540.625 69.2836L539.643 68.7373L538.66 68.3003L537.678 67.754L535.713 66.7708L534.731 66.3338L533.749 65.7875L532.766 65.3506L531.784 64.8316L529.819 63.9849L528.837 63.6298L527.854 63.2748L526.872 62.947L524.907 62.2915L523.925 61.9637L522.943 61.6086L521.96 61.2536L519.996 60.4615L519.013 60.0518L517.049 59.3691L515.084 58.8228L514.102 58.5496L513.119 58.3311L512.137 58.058L511.155 57.8395L509.19 57.3479L508.208 57.0747L506.243 56.5831L505.261 56.3646L504.278 56.0915L503.296 55.873L501.331 55.3813L500.349 55.1355L498.384 54.8077L497.402 54.6986L495.437 54.3707L494.455 54.1523L492.49 53.8244L491.508 53.7153L489.543 53.3875L488.561 53.169L486.596 52.8685L485.614 52.8139L483.649 52.7866L481.684 52.7593L480.702 52.7047L478.737 52.4042L477.755 52.1857L475.79 51.8853L474.808 51.8307L472.843 51.8033H471.861H467.932H456.144H447.302H445.338H444.355L442.391 51.8307L441.408 51.8853L439.444 52.1857L438.461 52.4042L436.497 52.7047L435.514 52.7593L433.55 52.7866H431.585H430.603L429.62 52.8139L428.638 52.8685L426.673 53.169L425.691 53.3875L423.726 53.688L421.762 53.7972L420.779 53.8518L418.815 54.1523L417.832 54.3707L415.868 54.6712L413.903 54.835L411.938 55.1355L410.956 55.3813L408.991 55.873L407.026 56.3646L406.044 56.5831L405.062 56.8562L403.097 57.3205L402.115 57.5117L400.15 57.8942L398.185 58.3038L397.203 58.4949L395.238 58.8774L394.256 59.0959L393.274 59.3691L391.309 60.0518L389.344 60.8166L388.362 61.1989L386.397 61.7726L385.415 62.0184L383.45 62.6192L381.486 63.2748L379.521 63.9302L377.556 64.6131L376.574 64.9682L375.592 65.3778L373.627 66.1699L371.662 66.9347L369.697 67.7814L368.715 68.273L366.75 69.1197L364.786 69.8845L362.821 70.7585L361.866 71.332L360.201 72.6977L359.601 73.517L359.001 75.4017L358.892 77.3682V78.3515V79.3347V82.2845V90.1506V123.582V133.414V135.381V136.364L358.919 137.347L358.947 138.275L359.137 139.259L359.165 139.805L359.874 141.28ZM508.208 250.423L508.317 251.897L508.917 253.4L510.281 255.038L512.137 256.213L514.102 256.895L516.066 257.25L518.031 257.524L519.013 257.688L520.978 258.07L522.943 258.344L523.925 258.507L524.907 258.671L526.872 259.135L527.854 259.409L528.837 259.627L529.819 259.9L531.784 260.392L532.766 260.638L533.749 260.938L534.731 261.238L535.713 261.566L537.678 262.222L539.643 262.878L540.625 263.233L541.607 263.587L543.572 264.434L544.554 264.926L546.519 265.772L548.484 266.537L549.466 266.974L550.448 267.384L551.431 267.903L552.413 268.367L554.378 269.487L556.342 270.689L558.307 271.809L559.289 272.3L561.254 273.474L562.236 274.185L563.219 274.867L564.201 275.632L566.166 277.107L567.148 277.817L569.113 279.32L571.078 280.959L572.961 282.652L573.806 283.471L574.625 284.236L575.389 285.055L577.053 286.831L577.981 287.787L579.891 289.753L580.819 290.736L582.483 292.703L583.985 294.669L584.694 295.653L586.167 297.619L586.932 298.602L587.613 299.586L588.323 300.569L589.496 302.536L589.988 303.519L591.106 305.485L592.307 307.452L592.853 308.435L593.398 309.418L593.835 310.402L594.654 312.368L595.036 313.351L595.827 315.318L596.236 316.301L597.001 318.268L597.41 319.251L598.147 321.218L598.72 323.184L598.938 324.167L599.183 325.151L599.565 327.117L599.948 329.084L600.357 331.05L600.738 333.017L600.93 334L601.394 335.967L601.667 336.95L601.885 337.933L602.13 338.916L602.431 340.883L602.512 342.849V344.816V346.782V349.732V356.615V358.582L602.485 360.548L602.431 361.531L602.13 363.498L601.912 364.481L601.585 366.448L601.475 367.431L601.148 369.397L600.93 370.381L600.603 372.347L600.493 373.331L600.166 375.297L599.948 376.28L599.756 377.264L599.375 379.23L599.183 380.213L598.965 381.197L598.583 383.163L598.173 385.13L597.901 386.113L597.601 387.096L596.946 389.063L596.291 391.029L595.963 392.013L595.609 392.996L595.254 393.979L594.844 394.962L594.054 396.929L593.289 398.895L592.853 399.879L592.443 400.862L591.925 401.845L590.942 403.812L590.506 404.795L589.96 405.778L589.524 406.762L588.978 407.745L588.514 408.728L587.395 410.695L586.767 411.678L586.14 412.661L584.83 414.628L583.521 416.594L582.866 417.577L581.474 419.544L580.71 420.527L579.127 422.494L578.336 423.477L577.572 424.46L575.908 426.427L574.979 427.41L573.042 429.377L571.078 431.343L569.113 433.31L568.131 434.265L567.148 435.195L565.183 436.86L564.201 437.598L562.236 439.073L561.254 439.837L560.272 440.547L558.307 442.022L557.325 442.76L555.36 444.126L554.378 444.781L552.413 446.092L550.448 447.403L548.484 448.659L547.501 449.233L545.537 450.408L544.554 451.008L542.59 452.156L541.607 452.729L540.625 453.193L538.66 454.176L537.678 454.696L536.696 455.106L535.713 455.542L533.749 456.307L532.766 456.744L531.784 457.154L530.802 457.673L529.819 458.109L528.837 458.629L526.872 459.475L525.89 459.83L524.907 460.185L523.925 460.514L521.96 461.168L520.978 461.497L519.013 462.207L518.031 462.617L517.049 462.972L516.066 463.354L514.102 463.927L513.119 464.146L511.155 464.637L510.172 464.911L509.19 465.129L508.208 465.402L507.225 465.621L505.261 466.14L504.278 466.44L502.314 467.041L501.331 467.314L500.349 467.533L498.384 467.915L496.42 468.325L494.455 468.652L493.473 468.762L491.508 469.09L489.543 469.5L487.578 469.881L486.596 470.073L485.614 470.291L484.631 470.483L482.667 470.864L481.684 471.056L479.72 471.439L478.737 471.575L476.773 471.657H475.79L473.826 471.738L471.861 472.039L470.879 472.258L468.914 472.559L467.932 472.613L465.967 472.64H464.002H461.055H447.302H432.567H427.656H425.691L424.709 472.613L423.726 472.559L421.762 472.258L420.779 472.039L418.815 471.738L417.832 471.684L415.868 471.657H413.903L412.921 471.629L411.938 471.575L409.974 471.274L408.991 471.056L407.026 470.729L406.044 470.619L404.079 470.291L403.097 470.073L401.132 469.745L400.15 469.635L398.185 469.308L397.203 469.09L395.238 468.789L393.274 468.625L391.309 468.325L390.327 468.106L388.362 467.724L387.38 467.533L386.397 467.314L385.415 467.041L383.45 466.44L382.468 466.14L380.503 465.621L379.521 465.402L377.556 464.911L376.574 464.637L375.592 464.419L374.609 464.146L373.627 463.927L372.645 463.654L370.68 463.108L368.715 462.425L367.733 462.015L366.75 461.66L365.768 461.278L364.786 461.005L363.803 460.704L362.821 460.458L360.856 459.83L358.892 459.039L357.909 458.629L355.945 457.673L354.962 457.154L353.98 456.744L352.998 456.307L351.033 455.542L350.051 455.106L349.123 454.723L347.595 453.958L346.121 452.975V385.13L347.595 385.812L348.141 386.195L349.123 386.795L351.033 388.052L352.015 388.68L352.998 389.254L354.962 390.428L356.927 391.63L357.909 392.177L358.892 392.75L359.874 393.214L361.839 394.197L362.821 394.744L363.803 395.181L364.786 395.727L365.768 396.164L366.75 396.711L368.715 397.666L369.697 398.076L370.68 398.513L372.645 399.278L374.609 400.124L375.592 400.616L377.556 401.463L378.539 401.818L380.503 402.501L382.468 403.156L385.415 404.139L388.362 405.122L390.327 405.778L392.291 406.379L393.274 406.625L394.256 406.898L396.221 407.362L397.203 407.554L399.168 407.936L400.15 408.127L402.115 408.591L403.097 408.865L404.079 409.083L406.044 409.575L407.026 409.848L408.009 410.066L409.974 410.476L410.956 410.613L412.921 410.722L413.903 410.776L415.868 411.077L416.85 411.295L418.815 411.596L419.797 411.65L421.762 411.705L422.744 411.759L424.709 412.06L425.691 412.279L427.656 412.579L428.638 412.634L430.603 412.661H432.567H441.408H449.267H451.232L453.197 412.634L454.179 412.579L456.144 412.279L457.126 412.06L459.091 411.759L461.055 411.65L462.038 411.596L464.002 411.295L465.967 410.913L466.949 410.75L467.932 410.639L469.896 410.285L470.879 410.012L472.843 409.41L473.826 409.111L475.79 408.591L476.773 408.346L477.755 408.046L478.737 407.745L480.702 407.089L481.684 406.734L482.667 406.379L484.631 405.532L485.614 405.041L487.578 404.194L489.543 403.429L490.525 402.993L491.508 402.555L493.473 401.409L494.455 400.698L495.437 400.043L496.42 399.332L498.384 398.076L499.367 397.476L501.331 396.082L502.314 395.317L503.296 394.58L505.261 392.914L507.198 391.029L508.126 390.046L509.763 388.079L510.473 387.096L511.836 385.13L512.519 384.146L513.256 383.163L514.648 381.197L515.793 379.23L516.23 378.247L516.667 377.264L517.431 375.297L518.277 373.331L518.768 372.347L519.56 370.381L519.832 369.397L520.132 368.414L520.596 366.448L520.978 364.481L521.36 362.515L521.578 361.531L521.879 359.565L521.933 358.582L521.96 357.598L521.988 355.632L522.042 354.649L522.343 352.682L522.561 351.699L522.779 349.732L522.561 347.766L522.343 346.782L522.042 344.816L521.988 343.833L521.933 341.866L521.742 339.9L521.36 337.933L521.169 336.95L520.788 334.983L520.568 334L519.996 332.033L519.669 331.05L519.341 330.067L518.631 328.1L517.786 326.134L517.267 325.151L516.284 323.184L515.821 322.201L514.62 320.234L513.884 319.251L513.119 318.268L511.537 316.301L510.773 315.318L509.108 313.351L507.225 311.385L506.243 310.402L504.278 308.517L502.314 306.851L501.331 306.086L499.367 304.502L498.384 303.737L497.402 303L495.437 301.798L494.455 301.306L492.49 300.187L490.525 298.985L489.543 298.438L488.561 297.893L487.578 297.455L486.596 297.018L484.631 296.309L482.667 295.625L481.684 295.27L479.72 294.424L478.737 293.932L477.755 293.549L476.773 293.139L475.79 292.867L473.826 292.348L471.861 291.856L470.879 291.583L469.896 291.365L468.914 291.091L467.932 290.873L466.949 290.6L464.985 290.136L464.002 289.944L462.038 289.562L461.055 289.371L460.073 289.152L458.108 288.77L456.144 288.387L455.161 288.169L453.197 287.868L452.214 287.814L451.232 287.787L449.267 287.759L448.285 287.705L446.32 287.404L445.338 287.186L443.373 286.885L442.391 286.831L440.426 286.803H439.444H436.497H425.691H391.309V226.824L392.291 225.841H423.726H434.532H436.497H437.479L439.444 225.813L440.426 225.759L442.391 225.458L444.355 225.076L445.338 224.939L446.32 224.885L448.285 224.776L449.267 224.639L451.232 224.257L452.214 224.065L454.179 223.684L455.161 223.492L457.126 223.028L458.108 222.755L459.091 222.536L461.055 222.045L462.038 221.771L464.002 221.307L464.985 221.115L466.949 220.706L467.932 220.461L469.896 219.696L470.879 219.204L472.843 218.357L473.826 218.002L475.79 217.319L477.755 216.582L478.737 216.117L480.702 215.025L481.684 214.424L483.649 213.223L484.631 212.622L485.614 211.911L486.596 211.229L488.561 209.726L490.525 208.061L491.508 207.131L493.473 205.192L495.356 203.226L497.02 201.259L497.757 200.276L499.203 198.31L499.913 197.326L501.086 195.36L501.549 194.377L502.532 192.41L503.05 191.427L503.46 190.444L504.251 188.477L504.879 186.51L505.124 185.527L505.397 184.544L505.615 183.561L505.888 182.577L506.106 181.594L506.598 179.628L506.843 178.644L507.144 176.678L507.225 174.711V172.745V170.778V166.845V163.895V162.912L507.198 160.946L507.144 159.962L506.843 157.996L506.598 157.013L506.106 155.046L505.888 154.063L505.615 153.079L505.124 151.113L504.879 150.13L504.579 149.146L503.896 147.18L503.487 146.197L502.668 144.23L502.259 143.247L501.25 141.28L500.022 139.314L499.367 138.331L497.975 136.364L496.338 134.397L495.41 133.414L493.473 131.448L492.49 130.464L490.525 128.58L488.561 126.995L487.578 126.367L485.614 125.166L483.649 123.964L482.667 123.417L481.684 122.844L480.702 122.38L478.737 121.397L477.755 120.878L476.773 120.468L475.79 120.031L473.826 119.348L472.843 119.048L471.861 118.802L469.896 118.31L468.914 118.037L467.932 117.819L466.949 117.545L464.985 117.054L464.002 116.835L462.038 116.344L461.055 116.098L459.091 115.797L457.126 115.634L456.144 115.497L454.179 115.115L452.214 114.814L451.232 114.76L450.25 114.732H448.285H442.391H434.532H432.567L430.603 114.76L429.62 114.814L427.656 115.115L425.691 115.497L424.709 115.634L422.744 115.797L421.762 115.934L419.797 116.316L418.815 116.508L416.85 116.889L415.868 117.081L414.885 117.3L412.921 117.627L411.938 117.737L409.974 118.064L408.009 118.475L406.044 118.856L405.062 119.075L403.097 119.649L402.115 119.976L401.132 120.304L399.168 120.959L397.203 121.615L395.238 122.216L393.274 122.763L392.291 123.035L391.309 123.417L390.327 123.772L389.344 124.182L387.38 124.947L386.397 125.357L384.433 126.149L382.468 126.914L381.486 127.35L380.503 127.76L379.521 128.28L377.556 129.263L376.574 129.699L375.592 130.246L374.609 130.683L373.627 131.229L372.645 131.666L371.662 132.213L370.68 132.649L369.697 133.196L367.733 134.179L366.75 134.643L365.768 135.217L363.858 136.309L363.312 136.665L361.839 137.347V135.872V75.4017L363.312 74.4184L363.858 74.1999L364.841 73.6536L366.75 72.8343L368.715 72.0695L370.68 71.2228L371.662 70.7312L373.627 69.8845L375.592 69.1197L377.556 68.3276L378.539 67.918L380.503 67.2078L381.486 66.88L383.45 66.2246L385.415 65.569L387.38 64.9682L388.362 64.7223L390.327 64.1487L391.309 63.7664L393.274 63.0016L395.238 62.3189L396.221 62.0457L397.203 61.8272L399.168 61.4447L400.15 61.2536L402.115 60.844L404.079 60.4615L405.062 60.2703L407.026 59.806L408.009 59.5329L408.991 59.3144L410.956 58.8228L412.921 58.3311L413.903 58.0853L415.868 57.7848L417.832 57.621L419.797 57.3205L420.779 57.1021L422.744 56.8016L423.726 56.747L425.691 56.6378L427.656 56.3373L428.638 56.1188L430.603 55.8183L431.585 55.7637L433.55 55.7364H434.532H436.497L438.461 55.6545L440.426 55.354L441.408 55.1355L443.373 54.835L444.355 54.7805L446.32 54.7531H447.302H450.25H462.038H468.914H470.879L472.843 54.7805L473.826 54.835L475.79 55.1355L476.773 55.354L478.737 55.6545L479.72 55.7091L481.684 55.7364L483.649 55.7637L484.631 55.8183L486.596 56.1188L487.578 56.3373L489.543 56.6651L490.525 56.7742L492.49 57.1021L493.473 57.3205L495.437 57.6484L496.42 57.7575L498.384 58.0853L499.367 58.3311L501.331 58.8228L502.314 59.0412L504.278 59.5329L505.261 59.806L506.243 60.0245L508.208 60.5161L509.19 60.7893L510.172 61.0078L511.155 61.2809L512.137 61.4994L513.119 61.7726L515.084 62.3189L517.049 63.0016L519.013 63.7937L519.996 64.2034L520.978 64.5584L521.96 64.9135L522.943 65.2413L524.907 65.8968L526.872 66.5796L527.854 66.9347L529.819 67.7814L530.802 68.3003L531.784 68.7373L532.766 69.2836L533.749 69.7206L535.713 70.7038L536.696 71.2501L537.678 71.6871L538.66 72.2334L540.625 73.2167L541.607 73.681L542.59 74.2545L543.572 74.8008L545.537 76.0572L546.519 76.7127L548.484 78.0237L550.448 79.3347L551.431 80.0176L552.413 80.7004L553.395 81.4378L555.36 82.9127L556.342 83.6502L558.307 85.3162L559.289 86.2449L561.227 88.1022L563.001 89.7682L563.819 90.533L564.583 91.3524L566.247 93.1277L567.148 94.0837L568.895 96.0502L569.686 97.0335L571.078 99L571.733 99.9833L573.042 101.95L574.352 103.916L575.007 104.9L576.29 106.866L576.89 107.849L577.899 109.816L578.309 110.799L578.772 111.782L579.182 112.766L579.701 113.749L580.137 114.732L580.655 115.715L581.501 117.682L581.856 118.665L582.483 120.632L582.729 121.615L583.248 123.582L583.547 124.565L583.848 125.548L584.503 127.515L585.131 129.481L585.403 130.464L585.731 132.431L585.894 134.397L586.031 135.381L586.413 137.347L586.713 139.314L586.767 140.297L586.795 142.264V144.23L586.823 146.197L587.013 148.163L587.368 150.13L587.477 151.113V152.096L587.177 154.063L587.013 155.046L586.877 156.029L586.795 157.996V159.962V162.912V164.879L586.767 166.845L586.713 167.828L586.413 169.795L586.031 171.761L585.894 172.745L585.731 174.711L585.431 176.678L585.185 177.661L584.967 178.644L584.448 180.611L584.149 181.594L583.547 183.561L583.248 184.544L583.002 185.527L582.483 187.494L581.856 189.46L581.092 191.427L580.301 193.393L579.536 195.36L578.691 197.326L578.172 198.31L577.19 200.276L576.753 201.259L576.207 202.243L575.771 203.226L574.761 205.192L574.189 206.176L573.642 207.159L572.442 209.126L571.242 211.092L570.614 212.075L569.877 213.059L569.113 214.042L567.53 216.008L566.766 216.992L565.102 218.958L564.174 219.941L563.219 220.925L561.254 222.891L560.272 223.874L558.307 225.759L556.342 227.425L555.36 228.162L554.378 228.927L552.413 230.375L551.431 231.058L550.448 231.741L548.484 233.051L546.519 234.363L545.537 235.018L543.572 236.274L542.59 236.821L541.607 237.394L540.625 237.858L538.66 238.842L537.678 239.388L536.696 239.825L535.713 240.372L533.749 241.327L531.784 242.174L529.819 242.884L528.837 243.212L526.872 243.922L525.89 244.332L523.925 245.124L522.943 245.479L521.96 245.834L519.996 246.49L518.031 247.09L517.049 247.336L516.066 247.637L515.084 247.909L514.102 248.292L513.119 248.647L512.137 249.057L510.227 249.767L509.681 249.986L508.208 250.423Z" fill="#00FF00"/>
<path d="M214.642 0.419565L213.563 0.659313L211.406 0.988964L209.249 1.07888H208.17H206.013H198.463H195.227H194.148L191.991 1.16879L189.834 1.49844L188.755 1.73819L186.598 2.06784L185.52 2.12779L183.362 2.15776H181.205H172.576H170.419L168.262 2.18772L167.183 2.24767L165.026 2.57732L163.948 2.81707L161.79 3.14672L160.712 3.20667L158.555 3.23663H155.319H144.533H141.297L139.14 3.26659L138.061 3.32655L135.904 3.6562L134.826 3.89595L132.668 4.2256L130.511 4.31551H129.433H126.197H117.568H115.411L113.254 4.34547L112.175 4.40542L110.018 4.73507L108.939 4.97482L106.782 5.30447L105.703 5.36443L103.546 5.39439H102.468H98.1531H86.2886H81.9742H79.817L77.6598 5.4843L75.5026 5.81395L74.424 6.0537L72.2668 6.38335L71.1882 6.4433L69.031 6.47327H67.9524H65.7952H59.3236H56.0878L53.9306 6.50323L52.852 6.56318L50.6948 6.89283L49.6162 7.13258L47.459 7.46223L46.3804 7.52218L45.3018 7.55214H43.1446H37.7516H34.5158H32.3586L30.2014 7.5821L29.1228 7.64206L26.9656 7.97171L25.887 8.21146L23.7298 8.54111L22.6512 8.60106L20.494 8.66098L19.4154 8.75089L17.2582 9.38026L16.1796 9.97962L14.0224 11.4781L12.9438 12.2872L10.7866 14.1153L9.70802 15.1343L7.55082 17.262L5.39362 19.4198L3.35626 21.5776L1.85821 23.7353L1.43875 24.8142L1.19907 25.8931L1.10919 26.9719L1.07922 29.1297V30.2086V32.3663V48.5495V120.834V127.308V129.465V130.544L1.10919 132.702L1.19907 133.781L1.85821 135.939L3.35626 138.096L4.34498 139.175L5.39362 140.254L7.55082 142.412L9.70802 144.57L15.101 149.964L17.2582 152.122L18.3368 153.201L20.464 155.358L22.3816 157.516L23.1905 158.595L24.2691 160.753L24.7484 162.911L25.0481 165.068L25.2279 166.147L25.4675 167.226L25.7972 169.384L25.857 170.463L25.887 172.62V174.778V178.015V193.119V238.432V313.953V338.768V347.399V350.635V351.714L25.7972 353.872L25.4675 356.03L25.0181 358.187L24.5687 360.345L24.2691 361.424L23.8197 362.503L22.6212 364.661L21.9022 365.739L21.1232 366.818L19.3256 368.976L18.3068 370.055L16.1796 372.213L14.0224 374.371L9.70802 378.686L6.47222 381.923L5.39362 383.002L3.35626 385.159L2.51735 386.238L1.85821 387.317L1.19907 389.475L1.10919 390.554L1.07922 392.711V394.869V400.264V467.154V487.653V490.889V493.047L1.10919 495.205L1.43875 497.363L1.85821 498.441L3.35626 500.599L4.34498 501.678L6.47222 503.836L8.62942 505.994L10.7866 508.151L11.8652 509.23L14.0224 511.358L16.1796 513.186L18.3368 514.265L19.4154 514.505L20.494 514.594L21.5726 514.625H22.6512H24.8084H38.8302H94.9173H226.506H269.65H283.672H286.908H287.987L290.144 514.594L291.222 514.535L293.38 514.085L295.537 513.006L297.694 511.298L299.851 509.23L300.93 508.151L303.087 505.994L306.323 502.757L308.48 500.599L309.559 499.52L311.716 497.452L312.794 496.553L313.873 495.744L316.03 494.576L317.109 494.156L319.266 493.497L320.345 493.287L321.423 493.137L323.58 493.047H324.659H326.816H336.524H365.646H456.248H565.187H579.208H598.623H600.78H611.566H613.724H614.802H615.881L618.038 493.137L619.117 493.287L621.274 493.736L622.352 493.976L624.51 494.635L626.667 495.744L627.745 496.553L628.824 497.452L630.981 499.52L632.06 500.599L634.217 502.757L637.453 505.994L638.531 507.072L640.688 509.23L641.767 510.279L642.846 511.298L645.003 513.006L647.16 514.085L648.239 514.355L650.396 514.594L651.474 514.625H652.553H654.71H666.575H679.518H697.854H698.933H704.326H718.348H737.762H739.92H745.313H757.177H762.57H771.199H777.671H778.749H787.378H791.692H796.007H813.264H818.657H824.05H841.308H862.88H866.116H868.273H876.902H881.216H882.295H887.688H889.845H892.002H897.395H906.024H910.338H914.653H916.81L918.967 514.594L921.124 514.355L922.203 514.085L924.36 513.006L926.517 511.298L928.674 509.23L929.753 508.151L931.91 505.994L934.067 503.836L935.146 502.757L937.183 500.599L938.023 499.52L938.682 498.441L939.341 496.284L939.43 495.205L939.46 494.126V491.968V485.495V483.337V463.917V461.76V455.286V453.129V432.63V397.027V393.79V392.711V391.633L939.341 389.475L938.682 387.317L937.183 385.159L936.194 384.08L935.146 383.002L932.989 380.844L931.91 379.765L929.753 377.607L926.517 374.371L924.36 372.213L922.203 370.055L920.076 367.897L919.057 366.818L917.349 364.661L916.181 362.503L915.401 360.345L915.102 359.266L914.742 357.108L914.653 354.951V353.872V350.635V342.004V340.925V339.846V315.032V312.874V304.243V236.274V234.116V229.801V228.722V226.564V225.485V189.882V188.804V174.778V171.542V169.384L914.683 167.226L914.742 166.147L915.102 163.989L915.761 161.832L916.181 160.753L917.349 158.595L918.158 157.516L919.057 156.437L921.124 154.279L922.203 153.201L923.281 152.122L925.439 149.964L931.91 143.491L934.067 141.333L935.146 140.254L937.183 138.096L938.023 137.017L939.101 134.86L939.341 133.781L939.43 132.702L939.46 131.623V130.544V127.308V110.046V107.888V105.73V86.3102V51.7861V34.5241V31.2874V29.1297L939.341 26.9719L939.101 25.8931L938.682 24.8142L937.183 22.6564L936.194 21.5776L934.067 19.4198L931.91 17.262L929.753 15.1043L928.674 14.0254L926.517 11.8976L925.439 10.9086L923.281 9.41022L922.203 8.99062L921.124 8.75089L920.046 8.66098L917.888 8.60106L916.81 8.54111L914.653 8.21146L913.574 7.97171L911.417 7.64206L909.26 7.55214H908.181H906.024H899.552H898.474H895.238H894.159L892.002 7.46223L890.923 7.31238L888.766 6.89283L886.609 6.56318L885.53 6.50323L884.452 6.47327H882.295H879.059H874.744H871.509H870.43L868.273 6.4433L867.194 6.38335L865.037 6.0537L862.88 5.63415L861.801 5.4843L859.644 5.39439H857.487H853.173H849.937H841.308H836.994L834.836 5.36443L833.758 5.30447L831.601 4.97482L830.522 4.73507L828.365 4.40542L826.208 4.31551H825.129H821.893H813.264H811.107L808.95 4.28555L807.871 4.2256L805.714 3.89595L804.636 3.6562L802.478 3.32655L801.4 3.26659L799.243 3.23663H796.007H791.692H785.221H783.064H781.985L779.828 3.20667L778.749 3.14672L776.592 2.81707L775.513 2.57732L773.356 2.24767L771.199 2.15776H770.12H766.885H763.649H759.334H757.177L755.02 2.12779L753.941 2.06784L751.784 1.73819L750.706 1.49844L748.548 1.16879L747.47 1.10884L745.313 1.07888H743.155H734.527H732.369L730.212 1.04892L729.134 0.988964L726.976 0.659313L725.898 0.419565L723.741 0.0899137L722.662 0.0299605L720.505 0H718.348H717.269H707.562H703.247H696.776H694.618H689.225H678.439H673.046H670.889H656.867H652.553H650.396L648.239 0.0299605L646.081 0.359601L645.003 0.779198L643.924 1.43848L641.767 3.26659L640.688 4.31551L638.531 6.47327L636.374 8.63102L635.326 9.7099L634.306 10.7888L632.479 12.9465L631.64 14.0254L629.813 16.1832L628.794 17.262L626.667 19.4198L624.51 21.5776L623.431 22.6564L621.274 24.7243L620.195 25.6233L619.117 26.4625L616.959 27.7511L614.802 28.6202L612.645 29.0398L611.566 29.0997L609.409 29.1297H607.252H605.095H604.016H588.916H584.601H580.287H563.029H554.401H541.457H396.925H347.31H332.209H330.052L327.895 29.0997L325.738 28.86L324.659 28.5903L322.502 27.5114L320.345 25.8032L319.266 24.7842L318.187 23.7353L316.03 21.5776L314.952 20.4987L311.716 17.262L302.008 7.55214L299.851 5.39439L297.694 3.26659L296.615 2.27763L294.458 0.779198L292.301 0.119874L290.144 0H289.065H286.908H271.808H235.135H223.271H220.035H218.956L216.799 0.0899137L214.642 0.419565ZM217.878 3.47639L218.956 3.32655L221.113 3.23663H222.192H225.428H236.214H270.729H284.751H286.908H287.987L290.144 3.35651L292.301 4.01583L294.458 5.51426L295.537 6.50323L297.694 8.63102L299.851 10.7888L309.559 20.4987L312.794 23.7353L313.873 24.8142L316.03 26.9719L317.109 28.0208L318.187 29.0398L320.345 30.748L322.502 31.8269L323.58 32.0966L325.738 32.3363L327.895 32.3663H331.131H348.388H405.554H545.772H592.152H596.466H607.252H610.488H611.566L613.724 32.3363L614.802 32.2765L616.959 31.8569L619.117 30.9877L621.274 29.6991L622.352 28.86L623.431 27.9609L625.588 25.8931L626.667 24.8142L627.745 23.7353L629.902 21.5776L632.029 19.4198L633.049 18.3409L634.876 16.1832L635.715 15.1043L637.542 12.9465L638.562 11.8677L640.688 9.7099L642.846 7.55214L643.924 6.50323L646.081 4.67511L647.16 4.01583L648.239 3.59623L650.396 3.26659L652.553 3.23663H654.71H657.946H661.182H679.518H706.483H715.112H718.348L720.505 3.26659L721.583 3.32655L723.741 3.6562L724.819 3.89595L726.976 4.2256L728.055 4.28555L730.212 4.31551H732.369H740.998H743.155L745.313 4.34547L746.391 4.40542L748.548 4.73507L749.627 4.97482L751.784 5.30447L752.863 5.36443L755.02 5.39439H757.177H760.413H764.727H767.963H769.042L771.199 5.4843L773.356 5.81395L774.435 6.0537L776.592 6.38335L777.671 6.4433L779.828 6.47327H783.064H787.378H793.85H797.085L799.243 6.50323L800.321 6.56318L802.478 6.89283L803.557 7.13258L805.714 7.46223L807.871 7.55214H808.95H812.186H820.815H822.972L825.129 7.5821L826.208 7.64206L828.365 7.97171L829.443 8.21146L831.601 8.54111L832.679 8.60106L834.836 8.63102H839.151H840.229H851.015H855.33H857.487L859.644 8.72093L860.723 8.87078L862.88 9.29033L865.037 9.61998L866.116 9.67994L868.273 9.7099H870.43H879.059H881.216L883.373 9.73989L884.452 9.79977L886.609 10.1295L887.688 10.3692L889.845 10.6989L890.923 10.7588L893.081 10.7888H896.316H901.709H903.867H904.945H907.102L908.181 10.8188L909.26 10.8786L911.417 11.2084L912.495 11.4481L914.653 11.7778L915.731 11.8377L917.888 11.8976L918.967 11.9875L920.046 12.2272L922.203 13.3061L923.281 14.1453L925.439 16.1832L927.596 18.3409L929.753 20.4987L930.832 21.5776L932.959 23.7353L933.948 24.8142L935.446 26.9719L935.865 28.0508L936.105 29.1297L936.225 31.2874V33.4452V36.6818V53.9439V55.0228V111.124V126.229V128.386V129.465L936.194 130.544L936.105 131.623L935.865 132.702L934.787 134.86L932.959 137.017L931.91 138.096L929.753 140.254L928.674 141.333L926.517 143.491L923.281 146.727L921.124 148.885L918.967 151.043L916.84 153.201L915.821 154.279L914.113 156.437L912.945 158.595L912.165 160.753L911.867 161.832L911.506 163.989L911.417 166.147V167.226V170.463V180.173V184.488V207.144V208.223V220.091V288.06V335.531V350.635V353.872V356.03L911.447 358.187L911.506 359.266L911.867 361.424L912.526 363.582L912.945 364.661L914.113 366.818L915.821 368.976L916.84 370.055L918.967 372.213L920.046 373.292L921.124 374.371L923.281 376.528L928.674 381.923L930.832 384.08L931.91 385.159L932.959 386.238L933.948 387.317L935.446 389.475L935.865 390.554L936.105 391.633L936.225 393.79V394.869V397.027V399.185V402.421V416.447V418.604V421.841V461.76V470.391V483.337V489.81V491.968L936.194 493.047L936.105 494.126L935.446 496.284L934.787 497.363L933.948 498.441L931.91 500.599L929.753 502.757L927.596 504.915L926.517 505.994L924.36 508.062L922.203 509.77L920.046 510.849L918.967 511.118L916.81 511.358L915.731 511.388H914.653H912.495H911.417H909.26H904.945H900.631H896.316H885.53H882.295H880.137H869.351H865.037H863.958H862.88H854.251H836.994H831.601H829.443H821.893H816.5H813.264H808.95H805.714H801.4H796.007H792.771H788.457H786.299H785.221H783.064H776.592H775.513H766.885H763.649H757.177H756.099H753.941H752.863H747.47H746.391H744.234H743.155H740.998H733.448H725.898H722.662H716.19H711.876H705.404H696.776H691.383H683.832H681.675H679.518H674.125H668.732H665.496H661.182H656.867H654.71L652.553 511.358L650.396 511.118L649.317 510.849L647.16 509.77L645.003 508.062L643.924 507.042L642.846 505.994L640.688 503.836L639.61 502.757L636.374 499.52L634.217 497.363L633.138 496.284L630.981 494.215L629.902 493.317L628.824 492.508L626.667 491.399L624.51 490.739L623.431 490.5L621.274 490.05L620.195 489.9L618.038 489.81H616.959H615.881H613.724H608.331H601.859H594.309H593.23H566.265H456.248H363.489H334.366H324.659H322.502H321.423L319.266 489.9L318.187 490.05L317.109 490.26L314.952 490.92L313.873 491.339L311.716 492.508L310.637 493.317L309.559 494.215L307.401 496.284L306.323 497.363L304.166 499.52L299.851 503.836L298.773 504.915L297.694 505.994L295.537 508.062L293.38 509.77L291.222 510.849L289.065 511.298L287.987 511.358L285.829 511.388H284.751H281.515H267.493H225.428H95.9959H39.9088H26.9656H24.8084H23.7298L22.6512 511.358L21.5726 511.268L20.494 511.029L18.3368 509.95L17.2582 509.11L15.101 507.072L12.9438 504.915L10.7866 502.757L9.70802 501.678L7.58078 499.52L6.59206 498.441L5.09401 496.284L4.67455 495.205L4.34498 493.047L4.31502 490.889V488.732V485.495V464.996V398.106V394.869V393.79L4.43486 391.633L5.09401 389.475L5.75315 388.396L6.59206 387.317L8.62942 385.159L9.70802 384.08L12.9438 380.844L17.2582 376.528L19.4154 374.371L21.5426 372.213L22.5614 371.134L24.359 368.976L25.138 367.897L25.857 366.818L27.0554 364.661L27.5049 363.582L27.8045 362.503L28.2539 360.345L28.7033 358.187L29.033 356.03L29.1228 353.872V352.793V349.556V340.925V315.032V237.353V190.961V175.857V172.62V170.463L29.0928 168.305L29.033 167.226L28.7033 165.068L28.4637 163.989L28.2839 162.911L27.9842 160.753L27.5049 158.595L26.4263 156.437L25.6174 155.358L23.6998 153.201L21.5726 151.043L20.494 149.964L18.3368 147.806L12.9438 142.412L10.7866 140.254L8.62942 138.096L7.58078 137.017L6.59206 135.939L5.09401 133.781L4.43486 131.623L4.34498 130.544L4.31502 128.386V126.229V121.913V50.7072V34.5241V32.3663V31.2874L4.34498 29.1297L4.43486 28.0508L4.67455 26.9719L5.09401 25.8931L6.59206 23.7353L8.62942 21.5776L10.7866 19.4198L12.9438 17.3519L15.101 15.5239L16.1796 14.7147L18.3368 13.2163L19.4154 12.6169L21.5726 11.9875L22.6512 11.8976L24.8084 11.8377L25.887 11.7778L28.0442 11.4481L29.1228 11.2084L31.28 10.8786L32.3586 10.8188L34.5158 10.7888H36.673H39.9088H45.3018H47.459L48.5376 10.7588L49.6162 10.6989L51.7734 10.3692L52.852 10.1295L55.0092 9.79977L56.0878 9.73989L58.245 9.7099H61.4808H67.9524H70.1096H71.1882L73.3454 9.67994L74.424 9.61998L76.5812 9.29033L77.6598 9.05059L79.817 8.72093L80.8956 8.66098L83.0528 8.63102H84.1314H88.4458H101.389H105.703L107.861 8.60106L108.939 8.54111L111.096 8.21146L112.175 7.97171L114.332 7.64206L115.411 7.5821L117.568 7.55214H119.725H128.354H131.59L133.747 7.52218L134.826 7.46223L136.983 7.13258L138.061 6.89283L140.219 6.56318L142.376 6.47327H144.533H147.769H157.476H160.712L162.869 6.4433L163.948 6.38335L166.105 6.0537L167.183 5.81395L169.341 5.4843L170.419 5.42435L172.576 5.39439H174.734H182.284H185.52H186.598L188.755 5.30447L190.913 4.97482L191.991 4.73507L194.148 4.40542L195.227 4.34547L197.384 4.31551H199.541H208.17H210.327H211.406L213.563 4.2256L214.642 4.07575L215.72 3.89595L217.878 3.47639ZM31.28 60.8667L30.2014 61.1664L28.0442 61.9456L25.887 63.0245L24.8084 63.6838L22.6512 65.1822L21.6026 66.0513L20.5839 66.9803L18.8461 69.0482L17.5279 71.2059L17.0185 72.2848L15.9998 74.4426L15.5205 75.5214L14.7714 77.6792L14.4719 78.7581L14.2621 79.8369L14.0524 81.9947L14.0224 83.0736L14.0524 85.2313L14.1123 86.3102L14.4419 88.468L14.9512 90.6257L15.5803 92.7835L16.4792 94.9412L17.0784 96.0201L18.3668 98.1779L19.0858 99.2567L20.7337 101.325L22.6812 103.123L24.8084 104.561L26.9656 105.64L29.1228 106.449L30.2014 106.809L32.3586 107.438L34.5158 107.798L35.5944 107.858L36.673 107.888H38.8302H39.9088L42.066 107.798L44.2232 107.438L46.3804 106.779L47.459 106.389L49.6162 105.43L50.6948 104.831L51.7734 104.232L53.9006 102.823L54.9193 102.044L56.7169 100.246L57.496 99.2267L58.8741 97.099L59.9527 94.9412L60.7318 92.7835L61.0313 91.7046L61.4808 89.5468L61.9002 87.3891L62.1399 86.3102L62.4395 84.1525V83.0736L62.1399 80.9158L61.8703 79.8369L61.331 77.6792L61.0613 76.6003L60.3722 74.4426L59.9527 73.3637L58.8741 71.2059L58.215 70.127L57.496 69.0482L55.8481 66.9803L53.9006 65.1822L52.852 64.4031L51.7734 63.6838L50.6948 63.0245L48.5376 61.9456L47.459 61.526L45.3018 60.8667L44.2232 60.6569L43.1446 60.507L40.9874 60.4171H39.9088H37.7516H35.5944L33.4372 60.507L31.28 60.8667ZM895.238 60.8667L894.159 61.1664L892.002 61.9156L889.845 62.8746L887.688 64.1632L885.561 65.9014L884.541 66.9204L882.744 69.0482L881.965 70.127L881.246 71.2059L880.587 72.2848L879.568 74.4426L879.239 75.5214L878.669 77.6792L878.4 78.7581L878.07 80.9158L878.011 81.9947L877.98 84.1525L878.011 86.3102L878.07 87.3891L878.43 89.5468L879.059 91.7046L879.418 92.7835L880.227 94.9412L881.306 97.099L882.744 99.2567L884.541 101.325L886.609 103.123L888.766 104.621L889.845 105.28L892.002 106.359L894.159 107.139L895.238 107.438L897.395 107.798L899.552 107.888H901.709H903.867L906.024 107.798L908.181 107.438L910.338 106.779L912.495 105.91L913.574 105.43L915.731 104.142L916.81 103.303L917.888 102.404L919.956 100.336L920.885 99.2567L922.503 97.099L923.192 96.0201L924.271 93.8623L924.66 92.7835L924.989 91.7046L925.349 89.5468L925.439 87.3891V86.3102V85.2313V83.0736V80.9158L925.408 79.8369L925.349 78.7581L924.989 76.6003L924.69 75.5214L923.91 73.3637L922.772 71.2059L922.023 70.127L921.274 69.0782L919.626 67.1301L918.728 66.2311L917.799 65.4219L915.731 63.8935L913.574 62.6648L912.495 62.1853L910.338 61.3162L909.26 60.9266L907.102 60.507L904.945 60.4171H903.867H901.709H899.552L897.395 60.507L895.238 60.8667ZM34.5158 63.8935L36.673 63.6838L37.7516 63.6538H38.8302L40.9874 63.7436L43.1446 64.1033L45.3018 64.7626L46.3804 65.1822L48.5376 66.2611L49.6162 66.9204L50.6648 67.6397L51.6835 68.4189L53.4811 70.2169L54.2602 71.2359L55.6383 73.3637L56.7169 75.5214L57.1364 76.6003L57.8255 78.7581L58.0952 79.8369L58.5446 81.9947L58.6644 83.0736L58.5746 85.2313L58.4248 86.3102L58.245 87.3891L57.7955 89.5468L57.496 90.6257L56.7169 92.7835L55.6383 94.9412L54.2602 97.0091L53.4811 97.9381L52.6123 98.8072L51.6835 99.5863L49.6162 100.995L48.5376 101.594L46.3804 102.673L45.3018 103.153L43.1446 103.902L42.066 104.202L40.9874 104.411L39.9088 104.561L37.7516 104.621L36.673 104.561L34.5158 104.202L33.4372 103.902L31.28 103.213L29.1228 102.404L26.9656 101.325L25.917 100.635L24.8983 99.886L23.9695 99.017L23.1007 98.088L21.6026 96.0201L20.9135 94.9412L19.715 92.7835L18.8161 90.6257L18.5166 89.5468L17.9473 87.3891L17.6777 86.3102L17.378 84.1525V83.0736L17.7077 80.9158L18.3668 78.7581L18.7563 77.6792L19.2356 76.6003L20.2543 74.4426L20.7637 73.3637L21.4228 72.2848L22.0819 71.2359L23.8197 69.2879L24.8384 68.4189L26.9656 66.9204L29.1228 65.6917L30.2014 65.1822L32.3586 64.4031L33.4372 64.1033L34.5158 63.8935ZM898.474 63.8935L900.631 63.6838L902.788 63.6538L904.945 63.7436L907.102 64.1632L908.181 64.5528L910.338 65.4219L911.417 65.9014L913.544 67.1301L914.563 67.8494L916.39 69.4677L918.038 71.2958L919.537 73.3637L920.674 75.5214L921.094 76.6003L921.753 78.7581L922.113 80.9158L922.173 81.9947L922.203 84.1525L922.173 86.3102L922.113 87.3891L921.753 89.5468L921.035 91.7046L919.956 93.8623L918.517 96.0201L917.649 97.099L915.701 99.1669L914.653 100.066L913.574 100.905L912.495 101.564L910.338 102.673L909.26 103.153L907.102 103.902L906.024 104.202L904.945 104.411L902.788 104.621H900.631L899.552 104.561L897.395 104.202L896.316 103.902L894.159 103.123L892.002 102.044L890.923 101.384L888.796 99.886L887.777 99.017L885.98 97.069L885.231 96.0201L884.541 94.9412L883.463 92.7835L883.043 91.7046L882.295 89.5468L881.666 87.3891L881.456 86.3102L881.306 85.2313V83.0736L881.636 80.9158L881.905 79.8369L882.475 77.6792L882.804 76.6003L883.823 74.4426L885.2 72.2848L885.98 71.2059L887.777 69.138L889.845 67.3999L890.923 66.7406L893.081 65.6317L894.159 65.1522L896.316 64.4031L897.395 64.1033L898.474 63.8935ZM30.2014 415.877L29.1228 416.297L26.9656 417.286L24.8084 418.455L23.7298 419.114L21.6026 420.852L20.5839 421.871L18.7863 423.999L17.3481 426.157L16.2695 428.314L15.4605 430.472L15.101 431.551L14.4719 433.709L14.1123 435.867L14.0224 438.024L14.0524 440.182L14.1123 441.261L14.4419 443.419L14.9512 445.576L15.2808 446.655L15.5803 447.734L16.4792 449.892L17.0784 450.971L18.3668 453.129L19.8649 455.197L21.6625 456.994L22.6812 457.774L24.8084 459.182L25.887 459.782L26.9656 460.381L29.1228 461.34L31.28 462.09L32.3586 462.389L33.4372 462.599L34.5158 462.749L36.673 462.838H37.7516H38.8302L40.9874 462.808L42.066 462.749L44.2232 462.389L45.3018 462.09L47.459 461.34L48.5376 460.861L49.6162 460.381L51.7734 459.093L52.852 458.253L53.9306 457.355L56.0578 455.286L57.9753 453.129L58.7843 452.05L59.4134 450.971L59.9527 449.892L60.7318 447.734L61.0313 446.655L61.4808 444.498L61.9002 442.34L62.1399 441.261L62.4395 439.103V438.024L62.1399 435.867L61.9002 434.788L61.4808 432.63L61.2411 431.551L60.9715 430.472L60.1025 428.314L58.9041 426.157L58.215 425.078L56.7169 422.92L55.8481 421.871L54.9193 420.852L52.852 419.114L50.6948 417.795L49.6162 417.286L48.5376 416.716L46.3804 415.877L44.2232 415.457L43.1446 415.398L40.9874 415.368H39.9088H37.7516H35.5944H34.5158L32.3586 415.457L30.2014 415.877ZM894.159 415.818L893.081 416.147L892.002 416.536L889.845 417.615L888.766 418.305L886.609 419.923L885.53 420.852L883.463 422.92L881.725 425.078L881.066 426.157L880.437 427.236L879.988 428.314L879.538 429.393L879.239 430.472L878.669 432.63L878.4 433.709L878.07 435.867L878.011 436.945L877.98 439.103V440.182L878.07 442.34L878.43 444.498L878.729 445.576L879.478 447.734L879.957 448.813L880.407 449.892L880.977 450.971L882.145 453.129L882.804 454.207L884.541 456.276L886.609 458.073L888.766 459.512L889.845 460.081L890.923 460.591L893.081 461.4L895.238 462.09L897.395 462.599L898.474 462.749L900.631 462.838H901.709L903.867 462.808L904.945 462.749L907.102 462.419L908.181 462.149L909.26 461.91L911.417 461.281L912.495 460.831L913.574 460.381L915.731 459.093L917.888 457.355L919.956 455.286L921.694 453.129L922.353 452.05L923.521 449.892L924.51 447.734L924.93 446.655L925.349 444.498L925.439 442.34V441.261V440.182V438.024V435.867L925.349 433.709L925.199 432.63L924.989 431.551L924.69 430.472L923.91 428.314L923.401 427.236L922.173 425.078L920.674 422.95L918.878 421.002L917.858 420.133L915.731 418.635L913.574 417.406L912.495 416.897L910.338 416.117L909.26 415.818L908.181 415.607L907.102 415.457L904.945 415.368H903.867H901.709H899.552H898.474L896.316 415.457L894.159 415.818ZM33.4372 418.874L34.5158 418.694L36.673 418.604H37.7516H39.9088L40.9874 418.635L42.066 418.694L44.2232 419.114L46.3804 419.953L47.459 420.523L49.6162 421.691L50.6648 422.35L52.6123 424.088L53.4811 425.108L54.9792 427.236L56.2676 429.393L56.8667 430.472L57.7357 432.63L58.0053 433.709L58.245 434.788L58.5746 436.945L58.6644 439.103L58.4248 441.261L58.0353 443.419L57.496 445.576L56.7169 447.734L56.1776 448.813L55.5485 449.892L53.8407 452.05L52.822 453.098L50.6948 455.017L49.6162 455.856L47.459 457.144L46.3804 457.624L44.2232 458.493L42.066 459.152L39.9088 459.512L37.7516 459.572L36.673 459.512L34.5158 459.152L32.3586 458.493L31.28 458.103L29.1228 457.144L28.0442 456.545L26.9656 455.946L24.8983 454.538L23.1007 452.889L21.6026 450.941L20.9135 449.892L19.715 447.734L18.8161 445.576L18.5166 444.498L17.9473 442.34L17.6777 441.261L17.378 439.103L17.4979 436.945L17.7077 435.867L18.0072 434.788L18.6963 432.63L19.5053 430.472L20.5839 428.314L22.0221 426.157L23.8197 424.088L25.887 422.35L26.9656 421.691L29.1228 420.523L30.2014 419.953L32.3586 419.114L33.4372 418.874ZM897.395 418.844L899.552 418.635L901.709 418.604L903.867 418.635L906.024 418.844L907.102 419.054L908.181 419.353L910.338 420.133L912.495 421.212L913.574 421.871L915.642 423.37L916.57 424.238L918.219 426.187L918.937 427.236L919.596 428.314L920.674 430.472L921.094 431.551L921.753 433.709L922.113 435.867L922.203 438.024V439.103V440.182L922.113 442.34L921.694 444.498L921.274 445.576L920.285 447.734L919.117 449.892L918.458 450.971L916.72 453.098L915.701 454.118L913.574 455.856L912.495 456.515L911.417 457.144L909.26 458.044L908.181 458.343L906.024 458.912L904.945 459.182L902.788 459.512L901.709 459.541L900.631 459.512L898.474 459.152L896.316 458.523L895.238 458.164L893.081 457.355L890.923 456.276L889.845 455.586L887.777 453.968L886.04 452.019L884.722 449.892L884.212 448.813L883.193 446.655L882.714 445.576L881.965 443.419L881.666 442.34L881.306 440.182V438.024L881.636 435.867L881.905 434.788L882.475 432.63L882.774 431.551L883.223 430.472L883.673 429.393L884.302 428.314L884.961 427.236L886.699 425.108L887.718 424.088L889.845 422.291L892.002 420.852L894.159 419.773L896.316 419.054L897.395 418.844Z" fill="#00FF00"/>
</svg>
