<svg width="940" height="516" viewBox="0 0 940 516" fill="none" xmlns="http://www.w3.org/2000/svg">
<path d="M214.642 0.419565L213.563 0.659313L211.406 0.988964L209.249 1.07888H208.17H206.013H198.463H195.227H194.148L191.991 1.16879L189.834 1.49844L188.755 1.73819L186.598 2.06784L185.52 2.12779L183.362 2.15776H181.205H172.576H170.419L168.262 2.18772L167.183 2.24767L165.026 2.57732L163.948 2.81707L161.79 3.14672L160.712 3.20667L158.555 3.23663H155.319H144.533H141.297L139.14 3.26659L138.061 3.32655L135.904 3.6562L134.826 3.89595L132.668 4.2256L130.511 4.31551H129.433H126.197H117.568H115.411L113.254 4.34547L112.175 4.40542L110.018 4.73507L108.939 4.97482L106.782 5.30447L105.703 5.36443L103.546 5.39439H102.468H98.1531H86.2886H81.9742H79.817L77.6598 5.4843L75.5026 5.81395L74.424 6.0537L72.2668 6.38335L71.1882 6.4433L69.031 6.47327H67.9524H65.7952H59.3236H56.0878L53.9306 6.50323L52.852 6.56318L50.6948 6.89283L49.6162 7.13258L47.459 7.46223L46.3804 7.52218L45.3018 7.55214H43.1446H37.7516H34.5158H32.3586L30.2014 7.5821L29.1228 7.64206L26.9656 7.97171L25.887 8.21146L23.7298 8.54111L22.6512 8.60106L20.494 8.66098L19.4154 8.75089L17.2582 9.38026L16.1796 9.97962L14.0224 11.4781L12.9438 12.2872L10.7866 14.1153L9.70802 15.1343L7.55082 17.262L5.39362 19.4198L3.35626 21.5776L1.85821 23.7353L1.43875 24.8142L1.19907 25.8931L1.10919 26.9719L1.07922 29.1297V30.2086V32.3663V48.5495V120.834V127.308V129.465V130.544L1.10919 132.702L1.19907 133.781L1.85821 135.939L3.35626 138.096L4.34498 139.175L5.39362 140.254L7.55082 142.412L9.70802 144.57L15.101 149.964L17.2582 152.122L18.3368 153.201L20.464 155.358L22.3816 157.516L23.1905 158.595L24.2691 160.753L24.7484 162.911L25.0481 165.068L25.2279 166.147L25.4675 167.226L25.7972 169.384L25.857 170.463L25.887 172.62V174.778V178.015V193.119V238.432V313.953V338.768V347.399V350.635V351.714L25.7972 353.872L25.4675 356.03L25.0181 358.187L24.5687 360.345L24.2691 361.424L23.8197 362.503L22.6212 364.661L21.9022 365.739L21.1232 366.818L19.3256 368.976L18.3068 370.055L16.1796 372.213L14.0224 374.371L9.70802 378.686L6.47222 381.923L5.39362 383.002L3.35626 385.159L2.51735 386.238L1.85821 387.317L1.19907 389.475L1.10919 390.554L1.07922 392.711V394.869V400.264V467.154V487.653V490.889V493.047L1.10919 495.205L1.43875 497.363L1.85821 498.441L3.35626 500.599L4.34498 501.678L6.47222 503.836L8.62942 505.994L10.7866 508.151L11.8652 509.23L14.0224 511.358L16.1796 513.186L18.3368 514.265L19.4154 514.505L20.494 514.594L21.5726 514.625H22.6512H24.8084H38.8302H94.9173H226.506H269.65H283.672H286.908H287.987L290.144 514.594L291.222 514.535L293.38 514.085L295.537 513.006L297.694 511.298L299.851 509.23L300.93 508.151L303.087 505.994L306.323 502.757L308.48 500.599L309.559 499.52L311.716 497.452L312.794 496.553L313.873 495.744L316.03 494.576L317.109 494.156L319.266 493.497L320.345 493.287L321.423 493.137L323.58 493.047H324.659H326.816H336.524H365.646H456.248H565.187H579.208H598.623H600.78H611.566H613.724H614.802H615.881L618.038 493.137L619.117 493.287L621.274 493.736L622.352 493.976L624.51 494.635L626.667 495.744L627.745 496.553L628.824 497.452L630.981 499.52L632.06 500.599L634.217 502.757L637.453 505.994L638.531 507.072L640.688 509.23L641.767 510.279L642.846 511.298L645.003 513.006L647.16 514.085L648.239 514.355L650.396 514.594L651.474 514.625H652.553H654.71H666.575H679.518H697.854H698.933H704.326H718.348H737.762H739.92H745.313H757.177H762.57H771.199H777.671H778.749H787.378H791.692H796.007H813.264H818.657H824.05H841.308H862.88H866.116H868.273H876.902H881.216H882.295H887.688H889.845H892.002H897.395H906.024H910.338H914.653H916.81L918.967 514.594L921.124 514.355L922.203 514.085L924.36 513.006L926.517 511.298L928.674 509.23L929.753 508.151L931.91 505.994L934.067 503.836L935.146 502.757L937.183 500.599L938.023 499.52L938.682 498.441L939.341 496.284L939.43 495.205L939.46 494.126V491.968V485.495V483.337V463.917V461.76V455.286V453.129V432.63V397.027V393.79V392.711V391.633L939.341 389.475L938.682 387.317L937.183 385.159L936.194 384.08L935.146 383.002L932.989 380.844L931.91 379.765L929.753 377.607L926.517 374.371L924.36 372.213L922.203 370.055L920.076 367.897L919.057 366.818L917.349 364.661L916.181 362.503L915.401 360.345L915.102 359.266L914.742 357.108L914.653 354.951V353.872V350.635V342.004V340.925V339.846V315.032V312.874V304.243V236.274V234.116V229.801V228.722V226.564V225.485V189.882V188.804V174.778V171.542V169.384L914.683 167.226L914.742 166.147L915.102 163.989L915.761 161.832L916.181 160.753L917.349 158.595L918.158 157.516L919.057 156.437L921.124 154.279L922.203 153.201L923.281 152.122L925.439 149.964L931.91 143.491L934.067 141.333L935.146 140.254L937.183 138.096L938.023 137.017L939.101 134.86L939.341 133.781L939.43 132.702L939.46 131.623V130.544V127.308V110.046V107.888V105.73V86.3102V51.7861V34.5241V31.2874V29.1297L939.341 26.9719L939.101 25.8931L938.682 24.8142L937.183 22.6564L936.194 21.5776L934.067 19.4198L931.91 17.262L929.753 15.1043L928.674 14.0254L926.517 11.8976L925.439 10.9086L923.281 9.41022L922.203 8.99062L921.124 8.75089L920.046 8.66098L917.888 8.60106L916.81 8.54111L914.653 8.21146L913.574 7.97171L911.417 7.64206L909.26 7.55214H908.181H906.024H899.552H898.474H895.238H894.159L892.002 7.46223L890.923 7.31238L888.766 6.89283L886.609 6.56318L885.53 6.50323L884.452 6.47327H882.295H879.059H874.744H871.509H870.43L868.273 6.4433L867.194 6.38335L865.037 6.0537L862.88 5.63415L861.801 5.4843L859.644 5.39439H857.487H853.173H849.937H841.308H836.994L834.836 5.36443L833.758 5.30447L831.601 4.97482L830.522 4.73507L828.365 4.40542L826.208 4.31551H825.129H821.893H813.264H811.107L808.95 4.28555L807.871 4.2256L805.714 3.89595L804.636 3.6562L802.478 3.32655L801.4 3.26659L799.243 3.23663H796.007H791.692H785.221H783.064H781.985L779.828 3.20667L778.749 3.14672L776.592 2.81707L775.513 2.57732L773.356 2.24767L771.199 2.15776H770.12H766.885H763.649H759.334H757.177L755.02 2.12779L753.941 2.06784L751.784 1.73819L750.706 1.49844L748.548 1.16879L747.47 1.10884L745.313 1.07888H743.155H734.527H732.369L730.212 1.04892L729.134 0.988964L726.976 0.659313L725.898 0.419565L723.741 0.0899137L722.662 0.0299605L720.505 0H718.348H717.269H707.562H703.247H696.776H694.618H689.225H678.439H673.046H670.889H656.867H652.553H650.396L648.239 0.0299605L646.081 0.359601L645.003 0.779198L643.924 1.43848L641.767 3.26659L640.688 4.31551L638.531 6.47327L636.374 8.63102L635.326 9.7099L634.306 10.7888L632.479 12.9465L631.64 14.0254L629.813 16.1832L628.794 17.262L626.667 19.4198L624.51 21.5776L623.431 22.6564L621.274 24.7243L620.195 25.6233L619.117 26.4625L616.959 27.7511L614.802 28.6202L612.645 29.0398L611.566 29.0997L609.409 29.1297H607.252H605.095H604.016H588.916H584.601H580.287H563.029H554.401H541.457H396.925H347.31H332.209H330.052L327.895 29.0997L325.738 28.86L324.659 28.5903L322.502 27.5114L320.345 25.8032L319.266 24.7842L318.187 23.7353L316.03 21.5776L314.952 20.4987L311.716 17.262L302.008 7.55214L299.851 5.39439L297.694 3.26659L296.615 2.27763L294.458 0.779198L292.301 0.119874L290.144 0H289.065H286.908H271.808H235.135H223.271H220.035H218.956L216.799 0.0899137L214.642 0.419565ZM217.878 3.47639L218.956 3.32655L221.113 3.23663H222.192H225.428H236.214H270.729H284.751H286.908H287.987L290.144 3.35651L292.301 4.01583L294.458 5.51426L295.537 6.50323L297.694 8.63102L299.851 10.7888L309.559 20.4987L312.794 23.7353L313.873 24.8142L316.03 26.9719L317.109 28.0208L318.187 29.0398L320.345 30.748L322.502 31.8269L323.58 32.0966L325.738 32.3363L327.895 32.3663H331.131H348.388H405.554H545.772H592.152H596.466H607.252H610.488H611.566L613.724 32.3363L614.802 32.2765L616.959 31.8569L619.117 30.9877L621.274 29.6991L622.352 28.86L623.431 27.9609L625.588 25.8931L626.667 24.8142L627.745 23.7353L629.902 21.5776L632.029 19.4198L633.049 18.3409L634.876 16.1832L635.715 15.1043L637.542 12.9465L638.562 11.8677L640.688 9.7099L642.846 7.55214L643.924 6.50323L646.081 4.67511L647.16 4.01583L648.239 3.59623L650.396 3.26659L652.553 3.23663H654.71H657.946H661.182H679.518H706.483H715.112H718.348L720.505 3.26659L721.583 3.32655L723.741 3.6562L724.819 3.89595L726.976 4.2256L728.055 4.28555L730.212 4.31551H732.369H740.998H743.155L745.313 4.34547L746.391 4.40542L748.548 4.73507L749.627 4.97482L751.784 5.30447L752.863 5.36443L755.02 5.39439H757.177H760.413H764.727H767.963H769.042L771.199 5.4843L773.356 5.81395L774.435 6.0537L776.592 6.38335L777.671 6.4433L779.828 6.47327H783.064H787.378H793.85H797.085L799.243 6.50323L800.321 6.56318L802.478 6.89283L803.557 7.13258L805.714 7.46223L807.871 7.55214H808.95H812.186H820.815H822.972L825.129 7.5821L826.208 7.64206L828.365 7.97171L829.443 8.21146L831.601 8.54111L832.679 8.60106L834.836 8.63102H839.151H840.229H851.015H855.33H857.487L859.644 8.72093L860.723 8.87078L862.88 9.29033L865.037 9.61998L866.116 9.67994L868.273 9.7099H870.43H879.059H881.216L883.373 9.73989L884.452 9.79977L886.609 10.1295L887.688 10.3692L889.845 10.6989L890.923 10.7588L893.081 10.7888H896.316H901.709H903.867H904.945H907.102L908.181 10.8188L909.26 10.8786L911.417 11.2084L912.495 11.4481L914.653 11.7778L915.731 11.8377L917.888 11.8976L918.967 11.9875L920.046 12.2272L922.203 13.3061L923.281 14.1453L925.439 16.1832L927.596 18.3409L929.753 20.4987L930.832 21.5776L932.959 23.7353L933.948 24.8142L935.446 26.9719L935.865 28.0508L936.105 29.1297L936.225 31.2874V33.4452V36.6818V53.9439V55.0228V111.124V126.229V128.386V129.465L936.194 130.544L936.105 131.623L935.865 132.702L934.787 134.86L932.959 137.017L931.91 138.096L929.753 140.254L928.674 141.333L926.517 143.491L923.281 146.727L921.124 148.885L918.967 151.043L916.84 153.201L915.821 154.279L914.113 156.437L912.945 158.595L912.165 160.753L911.867 161.832L911.506 163.989L911.417 166.147V167.226V170.463V180.173V184.488V207.144V208.223V220.091V288.06V335.531V350.635V353.872V356.03L911.447 358.187L911.506 359.266L911.867 361.424L912.526 363.582L912.945 364.661L914.113 366.818L915.821 368.976L916.84 370.055L918.967 372.213L920.046 373.292L921.124 374.371L923.281 376.528L928.674 381.923L930.832 384.08L931.91 385.159L932.959 386.238L933.948 387.317L935.446 389.475L935.865 390.554L936.105 391.633L936.225 393.79V394.869V397.027V399.185V402.421V416.447V418.604V421.841V461.76V470.391V483.337V489.81V491.968L936.194 493.047L936.105 494.126L935.446 496.284L934.787 497.363L933.948 498.441L931.91 500.599L929.753 502.757L927.596 504.915L926.517 505.994L924.36 508.062L922.203 509.77L920.046 510.849L918.967 511.118L916.81 511.358L915.731 511.388H914.653H912.495H911.417H909.26H904.945H900.631H896.316H885.53H882.295H880.137H869.351H865.037H863.958H862.88H854.251H836.994H831.601H829.443H821.893H816.5H813.264H808.95H805.714H801.4H796.007H792.771H788.457H786.299H785.221H783.064H776.592H775.513H766.885H763.649H757.177H756.099H753.941H752.863H747.47H746.391H744.234H743.155H740.998H733.448H725.898H722.662H716.19H711.876H705.404H696.776H691.383H683.832H681.675H679.518H674.125H668.732H665.496H661.182H656.867H654.71L652.553 511.358L650.396 511.118L649.317 510.849L647.16 509.77L645.003 508.062L643.924 507.042L642.846 505.994L640.688 503.836L639.61 502.757L636.374 499.52L634.217 497.363L633.138 496.284L630.981 494.215L629.902 493.317L628.824 492.508L626.667 491.399L624.51 490.739L623.431 490.5L621.274 490.05L620.195 489.9L618.038 489.81H616.959H615.881H613.724H608.331H601.859H594.309H593.23H566.265H456.248H363.489H334.366H324.659H322.502H321.423L319.266 489.9L318.187 490.05L317.109 490.26L314.952 490.92L313.873 491.339L311.716 492.508L310.637 493.317L309.559 494.215L307.401 496.284L306.323 497.363L304.166 499.52L299.851 503.836L298.773 504.915L297.694 505.994L295.537 508.062L293.38 509.77L291.222 510.849L289.065 511.298L287.987 511.358L285.829 511.388H284.751H281.515H267.493H225.428H95.9959H39.9088H26.9656H24.8084H23.7298L22.6512 511.358L21.5726 511.268L20.494 511.029L18.3368 509.95L17.2582 509.11L15.101 507.072L12.9438 504.915L10.7866 502.757L9.70802 501.678L7.58078 499.52L6.59206 498.441L5.09401 496.284L4.67455 495.205L4.34498 493.047L4.31502 490.889V488.732V485.495V464.996V398.106V394.869V393.79L4.43486 391.633L5.09401 389.475L5.75315 388.396L6.59206 387.317L8.62942 385.159L9.70802 384.08L12.9438 380.844L17.2582 376.528L19.4154 374.371L21.5426 372.213L22.5614 371.134L24.359 368.976L25.138 367.897L25.857 366.818L27.0554 364.661L27.5049 363.582L27.8045 362.503L28.2539 360.345L28.7033 358.187L29.033 356.03L29.1228 353.872V352.793V349.556V340.925V315.032V237.353V190.961V175.857V172.62V170.463L29.0928 168.305L29.033 167.226L28.7033 165.068L28.4637 163.989L28.2839 162.911L27.9842 160.753L27.5049 158.595L26.4263 156.437L25.6174 155.358L23.6998 153.201L21.5726 151.043L20.494 149.964L18.3368 147.806L12.9438 142.412L10.7866 140.254L8.62942 138.096L7.58078 137.017L6.59206 135.939L5.09401 133.781L4.43486 131.623L4.34498 130.544L4.31502 128.386V126.229V121.913V50.7072V34.5241V32.3663V31.2874L4.34498 29.1297L4.43486 28.0508L4.67455 26.9719L5.09401 25.8931L6.59206 23.7353L8.62942 21.5776L10.7866 19.4198L12.9438 17.3519L15.101 15.5239L16.1796 14.7147L18.3368 13.2163L19.4154 12.6169L21.5726 11.9875L22.6512 11.8976L24.8084 11.8377L25.887 11.7778L28.0442 11.4481L29.1228 11.2084L31.28 10.8786L32.3586 10.8188L34.5158 10.7888H36.673H39.9088H45.3018H47.459L48.5376 10.7588L49.6162 10.6989L51.7734 10.3692L52.852 10.1295L55.0092 9.79977L56.0878 9.73989L58.245 9.7099H61.4808H67.9524H70.1096H71.1882L73.3454 9.67994L74.424 9.61998L76.5812 9.29033L77.6598 9.05059L79.817 8.72093L80.8956 8.66098L83.0528 8.63102H84.1314H88.4458H101.389H105.703L107.861 8.60106L108.939 8.54111L111.096 8.21146L112.175 7.97171L114.332 7.64206L115.411 7.5821L117.568 7.55214H119.725H128.354H131.59L133.747 7.52218L134.826 7.46223L136.983 7.13258L138.061 6.89283L140.219 6.56318L142.376 6.47327H144.533H147.769H157.476H160.712L162.869 6.4433L163.948 6.38335L166.105 6.0537L167.183 5.81395L169.341 5.4843L170.419 5.42435L172.576 5.39439H174.734H182.284H185.52H186.598L188.755 5.30447L190.913 4.97482L191.991 4.73507L194.148 4.40542L195.227 4.34547L197.384 4.31551H199.541H208.17H210.327H211.406L213.563 4.2256L214.642 4.07575L215.72 3.89595L217.878 3.47639ZM31.28 60.8667L30.2014 61.1664L28.0442 61.9456L25.887 63.0245L24.8084 63.6838L22.6512 65.1822L21.6026 66.0513L20.5839 66.9803L18.8461 69.0482L17.5279 71.2059L17.0185 72.2848L15.9998 74.4426L15.5205 75.5214L14.7714 77.6792L14.4719 78.7581L14.2621 79.8369L14.0524 81.9947L14.0224 83.0736L14.0524 85.2313L14.1123 86.3102L14.4419 88.468L14.9512 90.6257L15.5803 92.7835L16.4792 94.9412L17.0784 96.0201L18.3668 98.1779L19.0858 99.2567L20.7337 101.325L22.6812 103.123L24.8084 104.561L26.9656 105.64L29.1228 106.449L30.2014 106.809L32.3586 107.438L34.5158 107.798L35.5944 107.858L36.673 107.888H38.8302H39.9088L42.066 107.798L44.2232 107.438L46.3804 106.779L47.459 106.389L49.6162 105.43L50.6948 104.831L51.7734 104.232L53.9006 102.823L54.9193 102.044L56.7169 100.246L57.496 99.2267L58.8741 97.099L59.9527 94.9412L60.7318 92.7835L61.0313 91.7046L61.4808 89.5468L61.9002 87.3891L62.1399 86.3102L62.4395 84.1525V83.0736L62.1399 80.9158L61.8703 79.8369L61.331 77.6792L61.0613 76.6003L60.3722 74.4426L59.9527 73.3637L58.8741 71.2059L58.215 70.127L57.496 69.0482L55.8481 66.9803L53.9006 65.1822L52.852 64.4031L51.7734 63.6838L50.6948 63.0245L48.5376 61.9456L47.459 61.526L45.3018 60.8667L44.2232 60.6569L43.1446 60.507L40.9874 60.4171H39.9088H37.7516H35.5944L33.4372 60.507L31.28 60.8667ZM895.238 60.8667L894.159 61.1664L892.002 61.9156L889.845 62.8746L887.688 64.1632L885.561 65.9014L884.541 66.9204L882.744 69.0482L881.965 70.127L881.246 71.2059L880.587 72.2848L879.568 74.4426L879.239 75.5214L878.669 77.6792L878.4 78.7581L878.07 80.9158L878.011 81.9947L877.98 84.1525L878.011 86.3102L878.07 87.3891L878.43 89.5468L879.059 91.7046L879.418 92.7835L880.227 94.9412L881.306 97.099L882.744 99.2567L884.541 101.325L886.609 103.123L888.766 104.621L889.845 105.28L892.002 106.359L894.159 107.139L895.238 107.438L897.395 107.798L899.552 107.888H901.709H903.867L906.024 107.798L908.181 107.438L910.338 106.779L912.495 105.91L913.574 105.43L915.731 104.142L916.81 103.303L917.888 102.404L919.956 100.336L920.885 99.2567L922.503 97.099L923.192 96.0201L924.271 93.8623L924.66 92.7835L924.989 91.7046L925.349 89.5468L925.439 87.3891V86.3102V85.2313V83.0736V80.9158L925.408 79.8369L925.349 78.7581L924.989 76.6003L924.69 75.5214L923.91 73.3637L922.772 71.2059L922.023 70.127L921.274 69.0782L919.626 67.1301L918.728 66.2311L917.799 65.4219L915.731 63.8935L913.574 62.6648L912.495 62.1853L910.338 61.3162L909.26 60.9266L907.102 60.507L904.945 60.4171H903.867H901.709H899.552L897.395 60.507L895.238 60.8667ZM34.5158 63.8935L36.673 63.6838L37.7516 63.6538H38.8302L40.9874 63.7436L43.1446 64.1033L45.3018 64.7626L46.3804 65.1822L48.5376 66.2611L49.6162 66.9204L50.6648 67.6397L51.6835 68.4189L53.4811 70.2169L54.2602 71.2359L55.6383 73.3637L56.7169 75.5214L57.1364 76.6003L57.8255 78.7581L58.0952 79.8369L58.5446 81.9947L58.6644 83.0736L58.5746 85.2313L58.4248 86.3102L58.245 87.3891L57.7955 89.5468L57.496 90.6257L56.7169 92.7835L55.6383 94.9412L54.2602 97.0091L53.4811 97.9381L52.6123 98.8072L51.6835 99.5863L49.6162 100.995L48.5376 101.594L46.3804 102.673L45.3018 103.153L43.1446 103.902L42.066 104.202L40.9874 104.411L39.9088 104.561L37.7516 104.621L36.673 104.561L34.5158 104.202L33.4372 103.902L31.28 103.213L29.1228 102.404L26.9656 101.325L25.917 100.635L24.8983 99.886L23.9695 99.017L23.1007 98.088L21.6026 96.0201L20.9135 94.9412L19.715 92.7835L18.8161 90.6257L18.5166 89.5468L17.9473 87.3891L17.6777 86.3102L17.378 84.1525V83.0736L17.7077 80.9158L18.3668 78.7581L18.7563 77.6792L19.2356 76.6003L20.2543 74.4426L20.7637 73.3637L21.4228 72.2848L22.0819 71.2359L23.8197 69.2879L24.8384 68.4189L26.9656 66.9204L29.1228 65.6917L30.2014 65.1822L32.3586 64.4031L33.4372 64.1033L34.5158 63.8935ZM898.474 63.8935L900.631 63.6838L902.788 63.6538L904.945 63.7436L907.102 64.1632L908.181 64.5528L910.338 65.4219L911.417 65.9014L913.544 67.1301L914.563 67.8494L916.39 69.4677L918.038 71.2958L919.537 73.3637L920.674 75.5214L921.094 76.6003L921.753 78.7581L922.113 80.9158L922.173 81.9947L922.203 84.1525L922.173 86.3102L922.113 87.3891L921.753 89.5468L921.035 91.7046L919.956 93.8623L918.517 96.0201L917.649 97.099L915.701 99.1669L914.653 100.066L913.574 100.905L912.495 101.564L910.338 102.673L909.26 103.153L907.102 103.902L906.024 104.202L904.945 104.411L902.788 104.621H900.631L899.552 104.561L897.395 104.202L896.316 103.902L894.159 103.123L892.002 102.044L890.923 101.384L888.796 99.886L887.777 99.017L885.98 97.069L885.231 96.0201L884.541 94.9412L883.463 92.7835L883.043 91.7046L882.295 89.5468L881.666 87.3891L881.456 86.3102L881.306 85.2313V83.0736L881.636 80.9158L881.905 79.8369L882.475 77.6792L882.804 76.6003L883.823 74.4426L885.2 72.2848L885.98 71.2059L887.777 69.138L889.845 67.3999L890.923 66.7406L893.081 65.6317L894.159 65.1522L896.316 64.4031L897.395 64.1033L898.474 63.8935ZM30.2014 415.877L29.1228 416.297L26.9656 417.286L24.8084 418.455L23.7298 419.114L21.6026 420.852L20.5839 421.871L18.7863 423.999L17.3481 426.157L16.2695 428.314L15.4605 430.472L15.101 431.551L14.4719 433.709L14.1123 435.867L14.0224 438.024L14.0524 440.182L14.1123 441.261L14.4419 443.419L14.9512 445.576L15.2808 446.655L15.5803 447.734L16.4792 449.892L17.0784 450.971L18.3668 453.129L19.8649 455.197L21.6625 456.994L22.6812 457.774L24.8084 459.182L25.887 459.782L26.9656 460.381L29.1228 461.34L31.28 462.09L32.3586 462.389L33.4372 462.599L34.5158 462.749L36.673 462.838H37.7516H38.8302L40.9874 462.808L42.066 462.749L44.2232 462.389L45.3018 462.09L47.459 461.34L48.5376 460.861L49.6162 460.381L51.7734 459.093L52.852 458.253L53.9306 457.355L56.0578 455.286L57.9753 453.129L58.7843 452.05L59.4134 450.971L59.9527 449.892L60.7318 447.734L61.0313 446.655L61.4808 444.498L61.9002 442.34L62.1399 441.261L62.4395 439.103V438.024L62.1399 435.867L61.9002 434.788L61.4808 432.63L61.2411 431.551L60.9715 430.472L60.1025 428.314L58.9041 426.157L58.215 425.078L56.7169 422.92L55.8481 421.871L54.9193 420.852L52.852 419.114L50.6948 417.795L49.6162 417.286L48.5376 416.716L46.3804 415.877L44.2232 415.457L43.1446 415.398L40.9874 415.368H39.9088H37.7516H35.5944H34.5158L32.3586 415.457L30.2014 415.877ZM894.159 415.818L893.081 416.147L892.002 416.536L889.845 417.615L888.766 418.305L886.609 419.923L885.53 420.852L883.463 422.92L881.725 425.078L881.066 426.157L880.437 427.236L879.988 428.314L879.538 429.393L879.239 430.472L878.669 432.63L878.4 433.709L878.07 435.867L878.011 436.945L877.98 439.103V440.182L878.07 442.34L878.43 444.498L878.729 445.576L879.478 447.734L879.957 448.813L880.407 449.892L880.977 450.971L882.145 453.129L882.804 454.207L884.541 456.276L886.609 458.073L888.766 459.512L889.845 460.081L890.923 460.591L893.081 461.4L895.238 462.09L897.395 462.599L898.474 462.749L900.631 462.838H901.709L903.867 462.808L904.945 462.749L907.102 462.419L908.181 462.149L909.26 461.91L911.417 461.281L912.495 460.831L913.574 460.381L915.731 459.093L917.888 457.355L919.956 455.286L921.694 453.129L922.353 452.05L923.521 449.892L924.51 447.734L924.93 446.655L925.349 444.498L925.439 442.34V441.261V440.182V438.024V435.867L925.349 433.709L925.199 432.63L924.989 431.551L924.69 430.472L923.91 428.314L923.401 427.236L922.173 425.078L920.674 422.95L918.878 421.002L917.858 420.133L915.731 418.635L913.574 417.406L912.495 416.897L910.338 416.117L909.26 415.818L908.181 415.607L907.102 415.457L904.945 415.368H903.867H901.709H899.552H898.474L896.316 415.457L894.159 415.818ZM33.4372 418.874L34.5158 418.694L36.673 418.604H37.7516H39.9088L40.9874 418.635L42.066 418.694L44.2232 419.114L46.3804 419.953L47.459 420.523L49.6162 421.691L50.6648 422.35L52.6123 424.088L53.4811 425.108L54.9792 427.236L56.2676 429.393L56.8667 430.472L57.7357 432.63L58.0053 433.709L58.245 434.788L58.5746 436.945L58.6644 439.103L58.4248 441.261L58.0353 443.419L57.496 445.576L56.7169 447.734L56.1776 448.813L55.5485 449.892L53.8407 452.05L52.822 453.098L50.6948 455.017L49.6162 455.856L47.459 457.144L46.3804 457.624L44.2232 458.493L42.066 459.152L39.9088 459.512L37.7516 459.572L36.673 459.512L34.5158 459.152L32.3586 458.493L31.28 458.103L29.1228 457.144L28.0442 456.545L26.9656 455.946L24.8983 454.538L23.1007 452.889L21.6026 450.941L20.9135 449.892L19.715 447.734L18.8161 445.576L18.5166 444.498L17.9473 442.34L17.6777 441.261L17.378 439.103L17.4979 436.945L17.7077 435.867L18.0072 434.788L18.6963 432.63L19.5053 430.472L20.5839 428.314L22.0221 426.157L23.8197 424.088L25.887 422.35L26.9656 421.691L29.1228 420.523L30.2014 419.953L32.3586 419.114L33.4372 418.874ZM897.395 418.844L899.552 418.635L901.709 418.604L903.867 418.635L906.024 418.844L907.102 419.054L908.181 419.353L910.338 420.133L912.495 421.212L913.574 421.871L915.642 423.37L916.57 424.238L918.219 426.187L918.937 427.236L919.596 428.314L920.674 430.472L921.094 431.551L921.753 433.709L922.113 435.867L922.203 438.024V439.103V440.182L922.113 442.34L921.694 444.498L921.274 445.576L920.285 447.734L919.117 449.892L918.458 450.971L916.72 453.098L915.701 454.118L913.574 455.856L912.495 456.515L911.417 457.144L909.26 458.044L908.181 458.343L906.024 458.912L904.945 459.182L902.788 459.512L901.709 459.541L900.631 459.512L898.474 459.152L896.316 458.523L895.238 458.164L893.081 457.355L890.923 456.276L889.845 455.586L887.777 453.968L886.04 452.019L884.722 449.892L884.212 448.813L883.193 446.655L882.714 445.576L881.965 443.419L881.666 442.34L881.306 440.182V438.024L881.636 435.867L881.905 434.788L882.475 432.63L882.774 431.551L883.223 430.472L883.673 429.393L884.302 428.314L884.961 427.236L886.699 425.108L887.718 424.088L889.845 422.291L892.002 420.852L894.159 419.773L896.316 419.054L897.395 418.844Z" fill="#00FF00"/>
<path d="M496.767 53L495.779 54.4822L495.56 55.0311L495.01 56.0192L494.626 56.9525L494.16 57.9406L493.748 58.9287L492.759 60.905L491.662 62.8812L491.086 63.8694L490.619 64.8575L489.631 66.8337L489.082 67.8219L488.643 68.81L488.093 69.7981L487.655 70.7862L486.639 72.7625L486.063 73.7506L484.965 75.7268L483.977 77.7031L483.565 78.6912L483.099 79.6793L482.686 80.6675L482.165 81.6556L481.698 82.6437L481.122 83.6318L480.573 84.62L479.365 86.5962L478.789 87.5843L477.609 89.5606L476.401 91.5368L475.276 93.5131L474.781 94.5012L473.656 96.4774L472.449 98.4537L471.268 100.43L470.692 101.418L469.484 103.394L468.359 105.371L467.865 106.359L466.739 108.335L465.532 110.311L464.406 112.287L463.912 113.276L462.787 115.252L462.155 116.24L460.866 118.216L459.548 120.192L458.889 121.181L458.258 122.169L457.627 123.157L457.051 124.145L455.87 126.121L454.607 128.097L453.949 129.086L452.631 131.062L449.337 136.002L448.02 137.979L446.757 139.955L445.577 141.931L445 142.919L444.369 143.907L443.738 144.895L442.42 146.872L441.103 148.848L440.444 149.836L439.072 151.812L438.331 152.8L437.617 153.789L436.189 155.765L434.9 157.741L434.324 158.729L433.692 159.717L433.089 160.705L432.374 161.694L431.688 162.682L430.947 163.67L429.575 165.646L428.258 167.622L426.281 170.587L425.622 171.575L424.937 172.563L424.25 173.551L422.795 175.527L422.054 176.515L421.367 177.504L419.996 179.48L419.309 180.468L418.568 181.456L417.114 183.432L416.427 184.42L415.055 186.397L414.369 187.385L412.914 189.361L412.145 190.349L411.432 191.337L410.663 192.325L409.95 193.314L408.468 195.29L407.699 196.278L406.244 198.254L405.558 199.242L404.872 200.23L403.555 202.207L402.895 203.195L401.495 205.171L399.931 207.147L398.339 209.124L396.829 211.1L396.116 212.088L394.634 214.064L393.865 215.052L393.152 216.04L392.383 217.029L390.901 219.005L390.187 219.993L388.677 221.969L387.882 222.957L386.289 224.933L385.494 225.922L383.984 227.898L383.27 228.886L382.502 229.874L381.761 230.862L380.965 231.85L379.372 233.827L378.577 234.815L377.067 236.791L376.354 237.779L375.585 238.767L374.103 240.743L372.62 242.72L371.879 243.708L371.056 244.696L370.232 245.684L369.355 246.672L367.707 248.648L366.966 249.637L365.484 251.613L364.715 252.601L363.974 253.589L362.327 255.565L360.626 257.542L359.034 259.518L357.386 261.494L356.509 262.482L354.862 264.458L353.27 266.435L351.568 268.411L349.921 270.387L349.152 271.375L348.357 272.363L346.764 274.34L345.969 275.328L345.2 276.316L343.553 278.292L342.675 279.28L341.028 281.257L339.436 283.233L338.585 284.221L336.773 286.197L335.922 287.185L334.331 289.162L332.657 291.138L331.723 292.126L329.802 294.102L328.868 295.09L327.194 297.067L326.426 298.055L324.752 300.031L323.818 301.019L321.897 302.995L320.963 303.983L319.289 305.96L318.521 306.948L316.847 308.924L314.98 310.9L314.046 311.888L312.482 313.865L311.494 315.841L311.247 316.829L311.028 318.805L311 320.781V322.758V334.615V377.105L311.988 378.093H497.755L498.743 379.081V468.012L499.732 469H578.782L579.77 468.012V379.081L580.758 378.093H640.045L641.033 377.105V317.817L640.045 316.829H580.758L579.77 315.841V53.9881L578.782 53H496.767ZM576.805 55.9644V122.169V249.637V299.043V306.948V309.912V310.9V312.876L576.833 313.865L576.915 314.853L577.519 316.801L578.122 317.707L578.891 318.476L580.758 319.464L581.746 319.684L582.734 319.766L584.71 319.793H585.698H587.675H593.603H638.069V375.128H594.591H587.675H585.698H584.71L582.734 375.156L581.746 375.238L579.797 375.842L578.891 376.445L578.122 377.214L577.134 379.081L576.915 380.069L576.833 381.057L576.805 382.045V384.021V385.998V388.962V399.831V466.036H501.708V400.819V385.01V383.033V382.045L501.598 380.069L501.379 379.081L500.391 377.214L499.622 376.445L497.755 375.457L496.767 375.238L495.779 375.156L493.803 375.128H491.827H487.874H453.29H313.964V335.603V324.734V322.758L313.992 320.781L314.211 318.805L314.458 317.817L315.447 315.841L317.011 313.865L317.945 312.876L319.811 310.9L320.662 309.912L322.254 307.936L323.928 305.96L324.861 304.972L326.782 302.995L327.716 302.007L329.39 300.031L330.159 299.043L331.833 297.067L332.766 296.078L334.687 294.102L335.621 293.114L337.295 291.138L338.887 289.162L339.738 288.173L341.55 286.197L343.224 284.221L344.816 282.245L346.517 280.268L348.164 278.292L348.933 277.304L349.729 276.316L351.321 274.34L352.117 273.352L352.886 272.363L354.533 270.387L356.234 268.411L357.826 266.435L359.473 264.458L360.351 263.47L361.998 261.494L363.59 259.518L365.291 257.542L366.939 255.565L367.68 254.577L368.449 253.589L369.931 251.613L370.672 250.625L372.319 248.648L373.196 247.66L374.021 246.672L374.844 245.684L375.585 244.696L377.067 242.72L378.549 240.743L379.318 239.755L380.031 238.767L381.541 236.791L382.337 235.803L383.929 233.827L384.725 232.838L386.235 230.862L386.948 229.874L387.717 228.886L388.458 227.898L389.253 226.91L390.846 224.933L391.642 223.945L393.152 221.969L393.865 220.981L395.347 219.005L396.116 218.017L396.829 217.029L397.598 216.04L399.08 214.064L399.794 213.076L401.304 211.1L402.895 209.124L404.46 207.147L405.86 205.171L406.519 204.183L407.836 202.207L408.522 201.219L409.209 200.23L410.663 198.254L411.432 197.266L412.145 196.278L412.914 195.29L413.628 194.302L415.11 192.325L415.878 191.337L417.333 189.361L418.02 188.373L419.391 186.397L420.078 185.409L421.532 183.432L422.274 182.444L422.96 181.456L424.332 179.48L425.019 178.492L425.76 177.504L427.214 175.527L427.901 174.539L428.587 173.551L429.246 172.563L431.222 169.599L432.539 167.622L433.912 165.646L434.653 164.658L436.053 162.682L436.657 161.694L437.288 160.705L438.496 158.729L439.84 156.753L440.582 155.765L442.036 153.789L443.409 151.812L444.068 150.824L445.385 148.848L446.702 146.872L447.333 145.884L447.965 144.895L448.541 143.907L449.722 141.931L450.985 139.955L452.302 137.979L455.595 133.038L456.913 131.062L457.571 130.074L458.834 128.097L459.41 127.109L460.591 125.133L461.854 123.157L462.512 122.169L463.83 120.192L464.488 119.204L465.12 118.216L465.751 117.228L466.877 115.252L467.371 114.264L468.496 112.287L469.704 110.311L470.829 108.335L471.323 107.347L472.449 105.371L473.656 103.394L474.837 101.418L475.413 100.43L476.62 98.4537L477.746 96.4774L478.24 95.4893L479.365 93.5131L480.573 91.5368L481.149 90.5487L482.33 88.5724L483.537 86.5962L484.087 85.6081L484.663 84.62L485.129 83.6318L485.651 82.6437L486.063 81.6556L486.529 80.6675L486.941 79.6793L487.929 77.7031L488.506 76.715L489.603 74.7387L490.07 73.7506L490.619 72.7625L491.058 71.7743L492.046 69.7981L492.595 68.81L493.034 67.8219L494.05 65.8456L494.626 64.8575L495.148 63.8694L495.724 62.8812L496.712 60.905L497.564 58.9836L497.947 57.9955L498.249 57.4466L498.743 55.9644H576.805ZM386.097 318.805L387.086 319.793H471.076H491.827H494.791L496.767 319.766L498.716 319.464L499.622 319.08L500.391 318.476L500.994 317.707L501.379 316.801L501.598 315.841L501.708 313.865V311.888V307.936V279.28V163.67L500.72 162.682L499.238 162.709L497.728 163.011L496.849 163.395L495.203 164.768L494.489 165.674L493.199 167.622L492.623 168.61L491.442 170.587L490.839 171.575L489.659 173.551L489.054 174.539L488.478 175.527L487.27 177.504L486.694 178.492L485.513 180.468L484.306 182.444L483.73 183.432L482.549 185.409L481.342 187.385L480.161 189.361L479.585 190.349L478.953 191.337L478.322 192.325L477.005 194.302L475.029 197.266L474.369 198.254L473.052 200.23L472.367 201.219L471.68 202.207L470.939 203.195L469.484 205.171L468.112 207.147L466.794 209.124L463.5 214.064L462.183 216.04L461.497 217.029L460.81 218.017L459.356 219.993L458.615 220.981L457.928 221.969L456.557 223.945L455.87 224.933L454.415 226.91L453.647 227.898L452.933 228.886L451.451 230.862L450.682 231.85L449.969 232.838L449.2 233.827L448.487 234.815L447.004 236.791L446.236 237.779L444.781 239.755L444.094 240.743L442.723 242.72L442.036 243.708L440.582 245.684L439.813 246.672L439.099 247.66L438.331 248.648L437.617 249.637L436.107 251.613L435.312 252.601L433.719 254.577L432.155 256.553L430.563 258.53L428.971 260.506L427.461 262.482L426.748 263.47L425.979 264.458L425.238 265.447L423.646 267.423L422.054 269.399L420.49 271.375L418.897 273.352L418.102 274.34L416.592 276.316L415.878 277.304L415.11 278.292L414.369 279.28L413.573 280.268L411.98 282.245L410.416 284.221L408.769 286.197L407.891 287.185L406.244 289.162L405.475 290.15L403.828 292.126L402.951 293.114L401.304 295.09L399.739 297.067L398.147 299.043L397.351 300.031L396.582 301.019L395.787 302.007L394.194 303.983L393.399 304.972L392.63 305.96L391.834 306.948L390.242 308.924L389.446 309.912L387.964 311.888L386.783 313.865L386.426 314.853L386.125 316.774L386.097 318.805ZM498.743 166.634V315.841L497.755 316.829H389.062L389.803 315.347L390.269 314.797L390.928 313.809L391.669 312.876L392.411 311.888L393.206 310.9L394.799 308.924L395.594 307.936L396.363 306.948L397.955 304.972L399.547 302.995L400.316 302.007L401.111 301.019L402.704 299.043L403.499 298.055L404.268 297.067L405.915 295.09L406.793 294.102L408.44 292.126L409.209 291.138L410.856 289.162L411.733 288.173L413.38 286.197L414.945 284.221L416.538 282.245L417.333 281.257L418.074 280.268L418.843 279.28L419.556 278.292L421.066 276.316L421.862 275.328L423.454 273.352L425.019 271.375L426.61 269.399L428.202 267.423L429.712 265.447L430.426 264.458L431.194 263.47L431.935 262.482L433.527 260.506L435.119 258.53L436.683 256.553L438.276 254.577L439.072 253.589L440.582 251.613L441.295 250.625L442.064 249.637L442.777 248.648L443.546 247.66L445 245.684L445.687 244.696L447.059 242.72L447.745 241.732L449.2 239.755L449.969 238.767L451.451 236.791L452.164 235.803L452.933 234.815L453.647 233.827L454.415 232.838L455.897 230.862L456.611 229.874L457.38 228.886L458.834 226.91L459.521 225.922L460.892 223.945L461.579 222.957L462.32 221.969L463.775 219.993L465.147 218.017L466.464 216.04L469.759 211.1L471.076 209.124L472.449 207.147L473.903 205.171L474.644 204.183L475.331 203.195L476.017 202.207L476.676 201.219L478.652 198.254L480.628 195.29L481.286 194.302L482.549 192.325L483.73 190.349L484.306 189.361L485.513 187.385L486.694 185.409L487.27 184.42L488.478 182.444L489.659 180.468L490.235 179.48L491.442 177.504L492.623 175.527L493.199 174.539L494.407 172.563L495.587 170.587L496.74 168.72L497.371 167.925L497.7 167.403L498.743 166.634Z" fill="#00FF00"/>
</svg>
