<svg width="940" height="516" viewBox="0 0 940 516" fill="none" xmlns="http://www.w3.org/2000/svg">
<path d="M214.642 0.419565L213.563 0.659313L211.406 0.988964L209.249 1.07888H208.17H206.013H198.463H195.227H194.148L191.991 1.16879L189.834 1.49844L188.755 1.73819L186.598 2.06784L185.52 2.12779L183.362 2.15776H181.205H172.576H170.419L168.262 2.18772L167.183 2.24767L165.026 2.57732L163.948 2.81707L161.79 3.14672L160.712 3.20667L158.555 3.23663H155.319H144.533H141.297L139.14 3.26659L138.061 3.32655L135.904 3.6562L134.826 3.89595L132.668 4.2256L130.511 4.31551H129.433H126.197H117.568H115.411L113.254 4.34547L112.175 4.40542L110.018 4.73507L108.939 4.97482L106.782 5.30447L105.703 5.36443L103.546 5.39439H102.468H98.1531H86.2886H81.9742H79.817L77.6598 5.4843L75.5026 5.81395L74.424 6.0537L72.2668 6.38335L71.1882 6.4433L69.031 6.47327H67.9524H65.7952H59.3236H56.0878L53.9306 6.50323L52.852 6.56318L50.6948 6.89283L49.6162 7.13258L47.459 7.46223L46.3804 7.52218L45.3018 7.55214H43.1446H37.7516H34.5158H32.3586L30.2014 7.5821L29.1228 7.64206L26.9656 7.97171L25.887 8.21146L23.7298 8.54111L22.6512 8.60106L20.494 8.66098L19.4154 8.75089L17.2582 9.38026L16.1796 9.97962L14.0224 11.4781L12.9438 12.2872L10.7866 14.1153L9.70802 15.1343L7.55082 17.262L5.39362 19.4198L3.35626 21.5776L1.85821 23.7353L1.43875 24.8142L1.19907 25.8931L1.10919 26.9719L1.07922 29.1297V30.2086V32.3663V48.5495V120.834V127.308V129.465V130.544L1.10919 132.702L1.19907 133.781L1.85821 135.939L3.35626 138.096L4.34498 139.175L5.39362 140.254L7.55082 142.412L9.70802 144.57L15.101 149.964L17.2582 152.122L18.3368 153.201L20.464 155.358L22.3816 157.516L23.1905 158.595L24.2691 160.753L24.7484 162.911L25.0481 165.068L25.2279 166.147L25.4675 167.226L25.7972 169.384L25.857 170.463L25.887 172.62V174.778V178.015V193.119V238.432V313.953V338.768V347.399V350.635V351.714L25.7972 353.872L25.4675 356.03L25.0181 358.187L24.5687 360.345L24.2691 361.424L23.8197 362.503L22.6212 364.661L21.9022 365.739L21.1232 366.818L19.3256 368.976L18.3068 370.055L16.1796 372.213L14.0224 374.371L9.70802 378.686L6.47222 381.923L5.39362 383.002L3.35626 385.159L2.51735 386.238L1.85821 387.317L1.19907 389.475L1.10919 390.554L1.07922 392.711V394.869V400.264V467.154V487.653V490.889V493.047L1.10919 495.205L1.43875 497.363L1.85821 498.441L3.35626 500.599L4.34498 501.678L6.47222 503.836L8.62942 505.994L10.7866 508.151L11.8652 509.23L14.0224 511.358L16.1796 513.186L18.3368 514.265L19.4154 514.505L20.494 514.594L21.5726 514.625H22.6512H24.8084H38.8302H94.9173H226.506H269.65H283.672H286.908H287.987L290.144 514.594L291.222 514.535L293.38 514.085L295.537 513.006L297.694 511.298L299.851 509.23L300.93 508.151L303.087 505.994L306.323 502.757L308.48 500.599L309.559 499.52L311.716 497.452L312.794 496.553L313.873 495.744L316.03 494.576L317.109 494.156L319.266 493.497L320.345 493.287L321.423 493.137L323.58 493.047H324.659H326.816H336.524H365.646H456.248H565.187H579.208H598.623H600.78H611.566H613.724H614.802H615.881L618.038 493.137L619.117 493.287L621.274 493.736L622.352 493.976L624.51 494.635L626.667 495.744L627.745 496.553L628.824 497.452L630.981 499.52L632.06 500.599L634.217 502.757L637.453 505.994L638.531 507.072L640.688 509.23L641.767 510.279L642.846 511.298L645.003 513.006L647.16 514.085L648.239 514.355L650.396 514.594L651.474 514.625H652.553H654.71H666.575H679.518H697.854H698.933H704.326H718.348H737.762H739.92H745.313H757.177H762.57H771.199H777.671H778.749H787.378H791.692H796.007H813.264H818.657H824.05H841.308H862.88H866.116H868.273H876.902H881.216H882.295H887.688H889.845H892.002H897.395H906.024H910.338H914.653H916.81L918.967 514.594L921.124 514.355L922.203 514.085L924.36 513.006L926.517 511.298L928.674 509.23L929.753 508.151L931.91 505.994L934.067 503.836L935.146 502.757L937.183 500.599L938.023 499.52L938.682 498.441L939.341 496.284L939.43 495.205L939.46 494.126V491.968V485.495V483.337V463.917V461.76V455.286V453.129V432.63V397.027V393.79V392.711V391.633L939.341 389.475L938.682 387.317L937.183 385.159L936.194 384.08L935.146 383.002L932.989 380.844L931.91 379.765L929.753 377.607L926.517 374.371L924.36 372.213L922.203 370.055L920.076 367.897L919.057 366.818L917.349 364.661L916.181 362.503L915.401 360.345L915.102 359.266L914.742 357.108L914.653 354.951V353.872V350.635V342.004V340.925V339.846V315.032V312.874V304.243V236.274V234.116V229.801V228.722V226.564V225.485V189.882V188.804V174.778V171.542V169.384L914.683 167.226L914.742 166.147L915.102 163.989L915.761 161.832L916.181 160.753L917.349 158.595L918.158 157.516L919.057 156.437L921.124 154.279L922.203 153.201L923.281 152.122L925.439 149.964L931.91 143.491L934.067 141.333L935.146 140.254L937.183 138.096L938.023 137.017L939.101 134.86L939.341 133.781L939.43 132.702L939.46 131.623V130.544V127.308V110.046V107.888V105.73V86.3102V51.7861V34.5241V31.2874V29.1297L939.341 26.9719L939.101 25.8931L938.682 24.8142L937.183 22.6564L936.194 21.5776L934.067 19.4198L931.91 17.262L929.753 15.1043L928.674 14.0254L926.517 11.8976L925.439 10.9086L923.281 9.41022L922.203 8.99062L921.124 8.75089L920.046 8.66098L917.888 8.60106L916.81 8.54111L914.653 8.21146L913.574 7.97171L911.417 7.64206L909.26 7.55214H908.181H906.024H899.552H898.474H895.238H894.159L892.002 7.46223L890.923 7.31238L888.766 6.89283L886.609 6.56318L885.53 6.50323L884.452 6.47327H882.295H879.059H874.744H871.509H870.43L868.273 6.4433L867.194 6.38335L865.037 6.0537L862.88 5.63415L861.801 5.4843L859.644 5.39439H857.487H853.173H849.937H841.308H836.994L834.836 5.36443L833.758 5.30447L831.601 4.97482L830.522 4.73507L828.365 4.40542L826.208 4.31551H825.129H821.893H813.264H811.107L808.95 4.28555L807.871 4.2256L805.714 3.89595L804.636 3.6562L802.478 3.32655L801.4 3.26659L799.243 3.23663H796.007H791.692H785.221H783.064H781.985L779.828 3.20667L778.749 3.14672L776.592 2.81707L775.513 2.57732L773.356 2.24767L771.199 2.15776H770.12H766.885H763.649H759.334H757.177L755.02 2.12779L753.941 2.06784L751.784 1.73819L750.706 1.49844L748.548 1.16879L747.47 1.10884L745.313 1.07888H743.155H734.527H732.369L730.212 1.04892L729.134 0.988964L726.976 0.659313L725.898 0.419565L723.741 0.0899137L722.662 0.0299605L720.505 0H718.348H717.269H707.562H703.247H696.776H694.618H689.225H678.439H673.046H670.889H656.867H652.553H650.396L648.239 0.0299605L646.081 0.359601L645.003 0.779198L643.924 1.43848L641.767 3.26659L640.688 4.31551L638.531 6.47327L636.374 8.63102L635.326 9.7099L634.306 10.7888L632.479 12.9465L631.64 14.0254L629.813 16.1832L628.794 17.262L626.667 19.4198L624.51 21.5776L623.431 22.6564L621.274 24.7243L620.195 25.6233L619.117 26.4625L616.959 27.7511L614.802 28.6202L612.645 29.0398L611.566 29.0997L609.409 29.1297H607.252H605.095H604.016H588.916H584.601H580.287H563.029H554.401H541.457H396.925H347.31H332.209H330.052L327.895 29.0997L325.738 28.86L324.659 28.5903L322.502 27.5114L320.345 25.8032L319.266 24.7842L318.187 23.7353L316.03 21.5776L314.952 20.4987L311.716 17.262L302.008 7.55214L299.851 5.39439L297.694 3.26659L296.615 2.27763L294.458 0.779198L292.301 0.119874L290.144 0H289.065H286.908H271.808H235.135H223.271H220.035H218.956L216.799 0.0899137L214.642 0.419565ZM217.878 3.47639L218.956 3.32655L221.113 3.23663H222.192H225.428H236.214H270.729H284.751H286.908H287.987L290.144 3.35651L292.301 4.01583L294.458 5.51426L295.537 6.50323L297.694 8.63102L299.851 10.7888L309.559 20.4987L312.794 23.7353L313.873 24.8142L316.03 26.9719L317.109 28.0208L318.187 29.0398L320.345 30.748L322.502 31.8269L323.58 32.0966L325.738 32.3363L327.895 32.3663H331.131H348.388H405.554H545.772H592.152H596.466H607.252H610.488H611.566L613.724 32.3363L614.802 32.2765L616.959 31.8569L619.117 30.9877L621.274 29.6991L622.352 28.86L623.431 27.9609L625.588 25.8931L626.667 24.8142L627.745 23.7353L629.902 21.5776L632.029 19.4198L633.049 18.3409L634.876 16.1832L635.715 15.1043L637.542 12.9465L638.562 11.8677L640.688 9.7099L642.846 7.55214L643.924 6.50323L646.081 4.67511L647.16 4.01583L648.239 3.59623L650.396 3.26659L652.553 3.23663H654.71H657.946H661.182H679.518H706.483H715.112H718.348L720.505 3.26659L721.583 3.32655L723.741 3.6562L724.819 3.89595L726.976 4.2256L728.055 4.28555L730.212 4.31551H732.369H740.998H743.155L745.313 4.34547L746.391 4.40542L748.548 4.73507L749.627 4.97482L751.784 5.30447L752.863 5.36443L755.02 5.39439H757.177H760.413H764.727H767.963H769.042L771.199 5.4843L773.356 5.81395L774.435 6.0537L776.592 6.38335L777.671 6.4433L779.828 6.47327H783.064H787.378H793.85H797.085L799.243 6.50323L800.321 6.56318L802.478 6.89283L803.557 7.13258L805.714 7.46223L807.871 7.55214H808.95H812.186H820.815H822.972L825.129 7.5821L826.208 7.64206L828.365 7.97171L829.443 8.21146L831.601 8.54111L832.679 8.60106L834.836 8.63102H839.151H840.229H851.015H855.33H857.487L859.644 8.72093L860.723 8.87078L862.88 9.29033L865.037 9.61998L866.116 9.67994L868.273 9.7099H870.43H879.059H881.216L883.373 9.73989L884.452 9.79977L886.609 10.1295L887.688 10.3692L889.845 10.6989L890.923 10.7588L893.081 10.7888H896.316H901.709H903.867H904.945H907.102L908.181 10.8188L909.26 10.8786L911.417 11.2084L912.495 11.4481L914.653 11.7778L915.731 11.8377L917.888 11.8976L918.967 11.9875L920.046 12.2272L922.203 13.3061L923.281 14.1453L925.439 16.1832L927.596 18.3409L929.753 20.4987L930.832 21.5776L932.959 23.7353L933.948 24.8142L935.446 26.9719L935.865 28.0508L936.105 29.1297L936.225 31.2874V33.4452V36.6818V53.9439V55.0228V111.124V126.229V128.386V129.465L936.194 130.544L936.105 131.623L935.865 132.702L934.787 134.86L932.959 137.017L931.91 138.096L929.753 140.254L928.674 141.333L926.517 143.491L923.281 146.727L921.124 148.885L918.967 151.043L916.84 153.201L915.821 154.279L914.113 156.437L912.945 158.595L912.165 160.753L911.867 161.832L911.506 163.989L911.417 166.147V167.226V170.463V180.173V184.488V207.144V208.223V220.091V288.06V335.531V350.635V353.872V356.03L911.447 358.187L911.506 359.266L911.867 361.424L912.526 363.582L912.945 364.661L914.113 366.818L915.821 368.976L916.84 370.055L918.967 372.213L920.046 373.292L921.124 374.371L923.281 376.528L928.674 381.923L930.832 384.08L931.91 385.159L932.959 386.238L933.948 387.317L935.446 389.475L935.865 390.554L936.105 391.633L936.225 393.79V394.869V397.027V399.185V402.421V416.447V418.604V421.841V461.76V470.391V483.337V489.81V491.968L936.194 493.047L936.105 494.126L935.446 496.284L934.787 497.363L933.948 498.441L931.91 500.599L929.753 502.757L927.596 504.915L926.517 505.994L924.36 508.062L922.203 509.77L920.046 510.849L918.967 511.118L916.81 511.358L915.731 511.388H914.653H912.495H911.417H909.26H904.945H900.631H896.316H885.53H882.295H880.137H869.351H865.037H863.958H862.88H854.251H836.994H831.601H829.443H821.893H816.5H813.264H808.95H805.714H801.4H796.007H792.771H788.457H786.299H785.221H783.064H776.592H775.513H766.885H763.649H757.177H756.099H753.941H752.863H747.47H746.391H744.234H743.155H740.998H733.448H725.898H722.662H716.19H711.876H705.404H696.776H691.383H683.832H681.675H679.518H674.125H668.732H665.496H661.182H656.867H654.71L652.553 511.358L650.396 511.118L649.317 510.849L647.16 509.77L645.003 508.062L643.924 507.042L642.846 505.994L640.688 503.836L639.61 502.757L636.374 499.52L634.217 497.363L633.138 496.284L630.981 494.215L629.902 493.317L628.824 492.508L626.667 491.399L624.51 490.739L623.431 490.5L621.274 490.05L620.195 489.9L618.038 489.81H616.959H615.881H613.724H608.331H601.859H594.309H593.23H566.265H456.248H363.489H334.366H324.659H322.502H321.423L319.266 489.9L318.187 490.05L317.109 490.26L314.952 490.92L313.873 491.339L311.716 492.508L310.637 493.317L309.559 494.215L307.401 496.284L306.323 497.363L304.166 499.52L299.851 503.836L298.773 504.915L297.694 505.994L295.537 508.062L293.38 509.77L291.222 510.849L289.065 511.298L287.987 511.358L285.829 511.388H284.751H281.515H267.493H225.428H95.9959H39.9088H26.9656H24.8084H23.7298L22.6512 511.358L21.5726 511.268L20.494 511.029L18.3368 509.95L17.2582 509.11L15.101 507.072L12.9438 504.915L10.7866 502.757L9.70802 501.678L7.58078 499.52L6.59206 498.441L5.09401 496.284L4.67455 495.205L4.34498 493.047L4.31502 490.889V488.732V485.495V464.996V398.106V394.869V393.79L4.43486 391.633L5.09401 389.475L5.75315 388.396L6.59206 387.317L8.62942 385.159L9.70802 384.08L12.9438 380.844L17.2582 376.528L19.4154 374.371L21.5426 372.213L22.5614 371.134L24.359 368.976L25.138 367.897L25.857 366.818L27.0554 364.661L27.5049 363.582L27.8045 362.503L28.2539 360.345L28.7033 358.187L29.033 356.03L29.1228 353.872V352.793V349.556V340.925V315.032V237.353V190.961V175.857V172.62V170.463L29.0928 168.305L29.033 167.226L28.7033 165.068L28.4637 163.989L28.2839 162.911L27.9842 160.753L27.5049 158.595L26.4263 156.437L25.6174 155.358L23.6998 153.201L21.5726 151.043L20.494 149.964L18.3368 147.806L12.9438 142.412L10.7866 140.254L8.62942 138.096L7.58078 137.017L6.59206 135.939L5.09401 133.781L4.43486 131.623L4.34498 130.544L4.31502 128.386V126.229V121.913V50.7072V34.5241V32.3663V31.2874L4.34498 29.1297L4.43486 28.0508L4.67455 26.9719L5.09401 25.8931L6.59206 23.7353L8.62942 21.5776L10.7866 19.4198L12.9438 17.3519L15.101 15.5239L16.1796 14.7147L18.3368 13.2163L19.4154 12.6169L21.5726 11.9875L22.6512 11.8976L24.8084 11.8377L25.887 11.7778L28.0442 11.4481L29.1228 11.2084L31.28 10.8786L32.3586 10.8188L34.5158 10.7888H36.673H39.9088H45.3018H47.459L48.5376 10.7588L49.6162 10.6989L51.7734 10.3692L52.852 10.1295L55.0092 9.79977L56.0878 9.73989L58.245 9.7099H61.4808H67.9524H70.1096H71.1882L73.3454 9.67994L74.424 9.61998L76.5812 9.29033L77.6598 9.05059L79.817 8.72093L80.8956 8.66098L83.0528 8.63102H84.1314H88.4458H101.389H105.703L107.861 8.60106L108.939 8.54111L111.096 8.21146L112.175 7.97171L114.332 7.64206L115.411 7.5821L117.568 7.55214H119.725H128.354H131.59L133.747 7.52218L134.826 7.46223L136.983 7.13258L138.061 6.89283L140.219 6.56318L142.376 6.47327H144.533H147.769H157.476H160.712L162.869 6.4433L163.948 6.38335L166.105 6.0537L167.183 5.81395L169.341 5.4843L170.419 5.42435L172.576 5.39439H174.734H182.284H185.52H186.598L188.755 5.30447L190.913 4.97482L191.991 4.73507L194.148 4.40542L195.227 4.34547L197.384 4.31551H199.541H208.17H210.327H211.406L213.563 4.2256L214.642 4.07575L215.72 3.89595L217.878 3.47639ZM31.28 60.8667L30.2014 61.1664L28.0442 61.9456L25.887 63.0245L24.8084 63.6838L22.6512 65.1822L21.6026 66.0513L20.5839 66.9803L18.8461 69.0482L17.5279 71.2059L17.0185 72.2848L15.9998 74.4426L15.5205 75.5214L14.7714 77.6792L14.4719 78.7581L14.2621 79.8369L14.0524 81.9947L14.0224 83.0736L14.0524 85.2313L14.1123 86.3102L14.4419 88.468L14.9512 90.6257L15.5803 92.7835L16.4792 94.9412L17.0784 96.0201L18.3668 98.1779L19.0858 99.2567L20.7337 101.325L22.6812 103.123L24.8084 104.561L26.9656 105.64L29.1228 106.449L30.2014 106.809L32.3586 107.438L34.5158 107.798L35.5944 107.858L36.673 107.888H38.8302H39.9088L42.066 107.798L44.2232 107.438L46.3804 106.779L47.459 106.389L49.6162 105.43L50.6948 104.831L51.7734 104.232L53.9006 102.823L54.9193 102.044L56.7169 100.246L57.496 99.2267L58.8741 97.099L59.9527 94.9412L60.7318 92.7835L61.0313 91.7046L61.4808 89.5468L61.9002 87.3891L62.1399 86.3102L62.4395 84.1525V83.0736L62.1399 80.9158L61.8703 79.8369L61.331 77.6792L61.0613 76.6003L60.3722 74.4426L59.9527 73.3637L58.8741 71.2059L58.215 70.127L57.496 69.0482L55.8481 66.9803L53.9006 65.1822L52.852 64.4031L51.7734 63.6838L50.6948 63.0245L48.5376 61.9456L47.459 61.526L45.3018 60.8667L44.2232 60.6569L43.1446 60.507L40.9874 60.4171H39.9088H37.7516H35.5944L33.4372 60.507L31.28 60.8667ZM895.238 60.8667L894.159 61.1664L892.002 61.9156L889.845 62.8746L887.688 64.1632L885.561 65.9014L884.541 66.9204L882.744 69.0482L881.965 70.127L881.246 71.2059L880.587 72.2848L879.568 74.4426L879.239 75.5214L878.669 77.6792L878.4 78.7581L878.07 80.9158L878.011 81.9947L877.98 84.1525L878.011 86.3102L878.07 87.3891L878.43 89.5468L879.059 91.7046L879.418 92.7835L880.227 94.9412L881.306 97.099L882.744 99.2567L884.541 101.325L886.609 103.123L888.766 104.621L889.845 105.28L892.002 106.359L894.159 107.139L895.238 107.438L897.395 107.798L899.552 107.888H901.709H903.867L906.024 107.798L908.181 107.438L910.338 106.779L912.495 105.91L913.574 105.43L915.731 104.142L916.81 103.303L917.888 102.404L919.956 100.336L920.885 99.2567L922.503 97.099L923.192 96.0201L924.271 93.8623L924.66 92.7835L924.989 91.7046L925.349 89.5468L925.439 87.3891V86.3102V85.2313V83.0736V80.9158L925.408 79.8369L925.349 78.7581L924.989 76.6003L924.69 75.5214L923.91 73.3637L922.772 71.2059L922.023 70.127L921.274 69.0782L919.626 67.1301L918.728 66.2311L917.799 65.4219L915.731 63.8935L913.574 62.6648L912.495 62.1853L910.338 61.3162L909.26 60.9266L907.102 60.507L904.945 60.4171H903.867H901.709H899.552L897.395 60.507L895.238 60.8667ZM34.5158 63.8935L36.673 63.6838L37.7516 63.6538H38.8302L40.9874 63.7436L43.1446 64.1033L45.3018 64.7626L46.3804 65.1822L48.5376 66.2611L49.6162 66.9204L50.6648 67.6397L51.6835 68.4189L53.4811 70.2169L54.2602 71.2359L55.6383 73.3637L56.7169 75.5214L57.1364 76.6003L57.8255 78.7581L58.0952 79.8369L58.5446 81.9947L58.6644 83.0736L58.5746 85.2313L58.4248 86.3102L58.245 87.3891L57.7955 89.5468L57.496 90.6257L56.7169 92.7835L55.6383 94.9412L54.2602 97.0091L53.4811 97.9381L52.6123 98.8072L51.6835 99.5863L49.6162 100.995L48.5376 101.594L46.3804 102.673L45.3018 103.153L43.1446 103.902L42.066 104.202L40.9874 104.411L39.9088 104.561L37.7516 104.621L36.673 104.561L34.5158 104.202L33.4372 103.902L31.28 103.213L29.1228 102.404L26.9656 101.325L25.917 100.635L24.8983 99.886L23.9695 99.017L23.1007 98.088L21.6026 96.0201L20.9135 94.9412L19.715 92.7835L18.8161 90.6257L18.5166 89.5468L17.9473 87.3891L17.6777 86.3102L17.378 84.1525V83.0736L17.7077 80.9158L18.3668 78.7581L18.7563 77.6792L19.2356 76.6003L20.2543 74.4426L20.7637 73.3637L21.4228 72.2848L22.0819 71.2359L23.8197 69.2879L24.8384 68.4189L26.9656 66.9204L29.1228 65.6917L30.2014 65.1822L32.3586 64.4031L33.4372 64.1033L34.5158 63.8935ZM898.474 63.8935L900.631 63.6838L902.788 63.6538L904.945 63.7436L907.102 64.1632L908.181 64.5528L910.338 65.4219L911.417 65.9014L913.544 67.1301L914.563 67.8494L916.39 69.4677L918.038 71.2958L919.537 73.3637L920.674 75.5214L921.094 76.6003L921.753 78.7581L922.113 80.9158L922.173 81.9947L922.203 84.1525L922.173 86.3102L922.113 87.3891L921.753 89.5468L921.035 91.7046L919.956 93.8623L918.517 96.0201L917.649 97.099L915.701 99.1669L914.653 100.066L913.574 100.905L912.495 101.564L910.338 102.673L909.26 103.153L907.102 103.902L906.024 104.202L904.945 104.411L902.788 104.621H900.631L899.552 104.561L897.395 104.202L896.316 103.902L894.159 103.123L892.002 102.044L890.923 101.384L888.796 99.886L887.777 99.017L885.98 97.069L885.231 96.0201L884.541 94.9412L883.463 92.7835L883.043 91.7046L882.295 89.5468L881.666 87.3891L881.456 86.3102L881.306 85.2313V83.0736L881.636 80.9158L881.905 79.8369L882.475 77.6792L882.804 76.6003L883.823 74.4426L885.2 72.2848L885.98 71.2059L887.777 69.138L889.845 67.3999L890.923 66.7406L893.081 65.6317L894.159 65.1522L896.316 64.4031L897.395 64.1033L898.474 63.8935ZM30.2014 415.877L29.1228 416.297L26.9656 417.286L24.8084 418.455L23.7298 419.114L21.6026 420.852L20.5839 421.871L18.7863 423.999L17.3481 426.157L16.2695 428.314L15.4605 430.472L15.101 431.551L14.4719 433.709L14.1123 435.867L14.0224 438.024L14.0524 440.182L14.1123 441.261L14.4419 443.419L14.9512 445.576L15.2808 446.655L15.5803 447.734L16.4792 449.892L17.0784 450.971L18.3668 453.129L19.8649 455.197L21.6625 456.994L22.6812 457.774L24.8084 459.182L25.887 459.782L26.9656 460.381L29.1228 461.34L31.28 462.09L32.3586 462.389L33.4372 462.599L34.5158 462.749L36.673 462.838H37.7516H38.8302L40.9874 462.808L42.066 462.749L44.2232 462.389L45.3018 462.09L47.459 461.34L48.5376 460.861L49.6162 460.381L51.7734 459.093L52.852 458.253L53.9306 457.355L56.0578 455.286L57.9753 453.129L58.7843 452.05L59.4134 450.971L59.9527 449.892L60.7318 447.734L61.0313 446.655L61.4808 444.498L61.9002 442.34L62.1399 441.261L62.4395 439.103V438.024L62.1399 435.867L61.9002 434.788L61.4808 432.63L61.2411 431.551L60.9715 430.472L60.1025 428.314L58.9041 426.157L58.215 425.078L56.7169 422.92L55.8481 421.871L54.9193 420.852L52.852 419.114L50.6948 417.795L49.6162 417.286L48.5376 416.716L46.3804 415.877L44.2232 415.457L43.1446 415.398L40.9874 415.368H39.9088H37.7516H35.5944H34.5158L32.3586 415.457L30.2014 415.877ZM894.159 415.818L893.081 416.147L892.002 416.536L889.845 417.615L888.766 418.305L886.609 419.923L885.53 420.852L883.463 422.92L881.725 425.078L881.066 426.157L880.437 427.236L879.988 428.314L879.538 429.393L879.239 430.472L878.669 432.63L878.4 433.709L878.07 435.867L878.011 436.945L877.98 439.103V440.182L878.07 442.34L878.43 444.498L878.729 445.576L879.478 447.734L879.957 448.813L880.407 449.892L880.977 450.971L882.145 453.129L882.804 454.207L884.541 456.276L886.609 458.073L888.766 459.512L889.845 460.081L890.923 460.591L893.081 461.4L895.238 462.09L897.395 462.599L898.474 462.749L900.631 462.838H901.709L903.867 462.808L904.945 462.749L907.102 462.419L908.181 462.149L909.26 461.91L911.417 461.281L912.495 460.831L913.574 460.381L915.731 459.093L917.888 457.355L919.956 455.286L921.694 453.129L922.353 452.05L923.521 449.892L924.51 447.734L924.93 446.655L925.349 444.498L925.439 442.34V441.261V440.182V438.024V435.867L925.349 433.709L925.199 432.63L924.989 431.551L924.69 430.472L923.91 428.314L923.401 427.236L922.173 425.078L920.674 422.95L918.878 421.002L917.858 420.133L915.731 418.635L913.574 417.406L912.495 416.897L910.338 416.117L909.26 415.818L908.181 415.607L907.102 415.457L904.945 415.368H903.867H901.709H899.552H898.474L896.316 415.457L894.159 415.818ZM33.4372 418.874L34.5158 418.694L36.673 418.604H37.7516H39.9088L40.9874 418.635L42.066 418.694L44.2232 419.114L46.3804 419.953L47.459 420.523L49.6162 421.691L50.6648 422.35L52.6123 424.088L53.4811 425.108L54.9792 427.236L56.2676 429.393L56.8667 430.472L57.7357 432.63L58.0053 433.709L58.245 434.788L58.5746 436.945L58.6644 439.103L58.4248 441.261L58.0353 443.419L57.496 445.576L56.7169 447.734L56.1776 448.813L55.5485 449.892L53.8407 452.05L52.822 453.098L50.6948 455.017L49.6162 455.856L47.459 457.144L46.3804 457.624L44.2232 458.493L42.066 459.152L39.9088 459.512L37.7516 459.572L36.673 459.512L34.5158 459.152L32.3586 458.493L31.28 458.103L29.1228 457.144L28.0442 456.545L26.9656 455.946L24.8983 454.538L23.1007 452.889L21.6026 450.941L20.9135 449.892L19.715 447.734L18.8161 445.576L18.5166 444.498L17.9473 442.34L17.6777 441.261L17.378 439.103L17.4979 436.945L17.7077 435.867L18.0072 434.788L18.6963 432.63L19.5053 430.472L20.5839 428.314L22.0221 426.157L23.8197 424.088L25.887 422.35L26.9656 421.691L29.1228 420.523L30.2014 419.953L32.3586 419.114L33.4372 418.874ZM897.395 418.844L899.552 418.635L901.709 418.604L903.867 418.635L906.024 418.844L907.102 419.054L908.181 419.353L910.338 420.133L912.495 421.212L913.574 421.871L915.642 423.37L916.57 424.238L918.219 426.187L918.937 427.236L919.596 428.314L920.674 430.472L921.094 431.551L921.753 433.709L922.113 435.867L922.203 438.024V439.103V440.182L922.113 442.34L921.694 444.498L921.274 445.576L920.285 447.734L919.117 449.892L918.458 450.971L916.72 453.098L915.701 454.118L913.574 455.856L912.495 456.515L911.417 457.144L909.26 458.044L908.181 458.343L906.024 458.912L904.945 459.182L902.788 459.512L901.709 459.541L900.631 459.512L898.474 459.152L896.316 458.523L895.238 458.164L893.081 457.355L890.923 456.276L889.845 455.586L887.777 453.968L886.04 452.019L884.722 449.892L884.212 448.813L883.193 446.655L882.714 445.576L881.965 443.419L881.666 442.34L881.306 440.182V438.024L881.636 435.867L881.905 434.788L882.475 432.63L882.774 431.551L883.223 430.472L883.673 429.393L884.302 428.314L884.961 427.236L886.699 425.108L887.718 424.088L889.845 422.291L892.002 420.852L894.159 419.773L896.316 419.054L897.395 418.844Z" fill="#00FF00"/>
<path d="M368.639 55L367.656 55.9836V58.989V59.918L367.628 61.8852L367.574 62.8689L367.273 64.8361L367.055 65.8197L366.754 67.7869L366.7 68.7705L366.672 70.7377V71.7213V76.6393V78.6066L366.645 79.5902L366.59 80.5738L366.289 82.541L366.071 83.5246L365.77 85.4918L365.716 86.4754L365.689 88.4426V91.3934V92.377L365.661 94.3443L365.607 95.3279L365.306 97.2951L365.088 98.2787L364.787 100.246L364.732 101.23L364.705 103.197L364.677 104.18L364.623 105.164L364.322 107.131L364.104 108.115L363.803 110.082L363.749 111.066L363.721 113.033V114.016V116.967L363.694 118.934L363.64 119.918L363.339 121.885L363.12 122.869L362.819 124.836L362.765 125.82L362.738 127.787V129.754V132.705V133.689L362.71 135.656L362.656 136.639L362.355 138.607L362.137 139.59L361.836 141.557L361.782 142.541L361.754 144.508V145.492V147.459L361.727 149.426L361.672 150.41L361.371 152.377L361.153 153.361L360.852 155.328L360.798 156.311L360.77 157.295V159.262L360.743 161.23L360.689 162.213L360.388 164.18L360.17 165.164L359.869 167.131L359.814 168.115L359.787 170.082V172.049V175V175.984L359.759 177.951L359.705 178.934L359.404 180.902L359.186 181.885L358.885 183.852L358.831 184.836L358.803 186.803V187.787V190.738L358.776 192.705L358.722 193.689L358.421 195.656L358.202 196.639L357.901 198.607L357.847 199.59L357.82 201.557V202.541V204.508V205.492L357.792 207.459L357.738 208.443L357.437 210.41L357.219 211.393L356.918 213.361L356.864 214.344L356.836 216.311V217.295V219.262L356.754 221.23L356.453 223.197L356.235 224.18L355.934 226.148L355.88 227.131L355.852 229.098V230.082V232.049L355.825 234.016L355.771 235L355.47 236.967L355.251 237.951L354.95 239.918L354.896 240.902L354.869 242.869V243.852V246.803V247.787L354.841 249.754L354.787 250.738L354.486 252.705L354.268 253.689L353.967 255.656L353.913 256.639L353.885 258.607V259.59V261.557L353.858 263.525L353.804 264.508L353.503 266.475L353.284 267.459L352.983 269.426L352.929 270.41L352.902 272.377V274.344V281.23L353.885 282.213H358.803H360.77L361.754 282.186L362.738 282.131L364.705 281.83L365.689 281.612L367.656 281.311L369.623 281.23H371.59H372.574L374.541 281.202L375.525 281.148L377.492 280.847L378.475 280.629L380.443 280.328L381.426 280.273L382.41 280.246H383.393H385.361L387.328 280.218L388.311 280.164L390.279 279.863L391.262 279.645L393.23 279.344L394.213 279.29L396.18 279.262H398.148H401.098H402.082L404.049 279.235L405.033 279.181L407 278.88L407.984 278.661L409.951 278.36L410.934 278.306L412.902 278.279H416.836H427.656H435.525H437.492L439.459 278.306L440.443 278.36L442.41 278.661L443.393 278.88L445.361 279.181L446.344 279.235L448.311 279.29L449.295 279.344L451.262 279.645L452.246 279.863L454.213 280.164L456.18 280.273L457.164 280.328L459.131 280.629L461.098 281.011L462.082 281.174L463.066 281.285L465.033 281.64L466.016 281.912L467.984 282.541L469.951 283.197L470.934 283.498L471.918 283.798L473.885 284.317L474.869 284.563L475.852 284.863L476.836 285.164L478.803 285.82L479.787 286.175L480.77 286.53L482.738 287.377L483.721 287.869L485.689 288.743L486.672 289.153L488.639 290.137L490.607 291.256L491.59 291.858L492.574 292.432L494.541 293.715L495.525 294.427L496.508 295.191L498.475 296.776L500.443 298.333L501.399 299.153L502.328 300L503.175 300.929L503.994 301.885L505.551 303.852L507.137 305.82L507.901 306.803L509.268 308.77L509.896 309.754L511.016 311.721L511.481 312.705L512.028 313.689L512.464 314.672L512.984 315.656L513.83 317.623L514.186 318.607L514.869 320.574L515.197 321.557L515.798 323.525L516.317 325.492L516.535 326.475L516.781 327.459L517.164 329.426L517.547 331.393L517.765 332.377L518.066 334.344L518.12 335.328L518.175 337.295L518.229 338.279L518.366 339.262L518.667 341.23L518.694 342.213L518.667 343.197L518.366 345.164L518.229 346.148L518.148 348.115L518.066 350.082L517.765 352.049L517.547 353.033L517.382 354.016L517.109 355.984L516.946 356.967L516.781 357.951L516.535 358.934L516.317 359.918L515.798 361.885L515.169 363.852L514.404 365.82L513.612 367.787L512.847 369.754L512.41 370.738L511.972 371.721L511.427 372.705L510.88 373.689L509.678 375.656L508.476 377.623L507.847 378.607L506.344 380.574L505.551 381.557L504.76 382.541L503.994 383.525L502.328 385.492L501.399 386.475L500.443 387.459L498.475 389.345L496.508 391.011L495.525 391.776L493.557 393.361L491.59 394.918L489.623 396.284L488.639 396.912L486.672 398.033L485.689 398.497L484.705 399.044L483.721 399.481L482.738 400.028L481.754 400.464L480.77 400.984L478.803 401.83L477.82 402.186L476.836 402.541L474.869 403.224L472.902 403.99L471.918 404.345L470.934 404.727L468.967 405.301L467.984 405.519L466.016 406.011L464.049 406.503L463.066 406.749L461.098 407.05L459.131 407.213L458.148 407.35L456.18 407.732L454.213 408.033L453.229 408.087L452.246 408.115H450.279L448.311 408.142L447.328 408.196L445.361 408.497L443.393 408.88L442.41 409.017L440.443 409.098H439.459L437.492 409.017L435.525 408.716L434.541 408.497L432.574 408.196L431.59 408.142L429.623 408.115H426.672L424.705 408.087L423.721 408.033L421.754 407.732L420.77 407.514L418.803 407.213L417.82 407.159L415.852 407.104L413.885 406.913L411.918 406.53L410.934 406.338L408.967 405.957L407.984 405.765L407 405.547L406.016 405.355L404.049 404.973L403.066 404.781L401.098 404.317L400.115 404.044L399.131 403.825L398.148 403.552L397.164 403.333L395.197 402.814L394.213 402.514L393.23 402.213L392.246 401.886L389.295 400.902L387.328 400.246L385.361 399.645L383.393 399.126L382.41 398.88L380.443 398.251L378.475 397.459L377.492 397.049L376.508 396.557L374.541 395.711L372.574 394.945L371.59 394.535L369.623 393.743L367.656 392.978L365.689 392.131L364.705 391.612L363.721 391.175L362.738 390.628L361.754 390.164L359.787 389.044L357.82 387.842L355.852 386.721L354.869 386.257L353.885 385.738L351.918 384.972L350.99 384.754L349.459 384.536L347.984 384.508L347 385.492V438.607V452.377V454.344L347.028 456.311L347.109 457.295L347.71 459.153L349.076 460.601L350.934 461.53L351.918 461.886L353.885 462.541L355.852 463.197L357.82 463.853L359.787 464.481L360.77 464.781L362.738 465.301L363.721 465.519L364.705 465.792L365.689 466.011L366.672 466.284L368.639 466.776L369.623 466.994L371.59 467.514L372.574 467.814L374.541 468.416L375.525 468.688L377.492 469.043L378.475 469.153L379.459 469.317L380.443 469.481L381.426 469.699L383.393 470L385.361 470.164L386.344 470.3L388.311 470.683L390.279 470.984L392.246 471.147L393.23 471.284L395.197 471.667L397.164 471.994L398.148 472.104L400.115 472.432L402.082 472.814L403.066 472.951L405.033 473.06L406.016 473.114L407 473.251L408.967 473.634L410.934 473.935L411.918 473.989L413.885 474.016H414.869H417.82H418.803L420.77 474.044L421.754 474.098L423.721 474.399L424.705 474.617L426.672 474.918L427.656 474.972L429.623 475H430.607H432.574H443.393H454.213H458.148L460.115 474.972L461.098 474.918L463.066 474.617L464.049 474.399L466.016 474.098L467.984 474.016H469.951H470.934L472.902 473.989L473.885 473.935L475.852 473.634L477.82 473.251L478.803 473.114L480.77 472.951L481.754 472.814L483.721 472.432L484.705 472.24L486.672 471.858L487.656 471.667L488.639 471.448L490.607 471.121L491.59 471.011L493.557 470.683L495.525 470.273L497.492 469.891L498.475 469.699L499.459 469.453L500.443 469.235L501.426 468.962L502.41 468.716L504.377 468.115L505.361 467.787L508.311 466.804L510.279 466.148L512.246 465.547L513.229 465.301L514.213 465L515.197 464.727L517.164 463.934L518.148 463.443L520.115 462.596L522.082 461.83L524.049 460.984L525.033 460.464L527 459.508L527.984 459.098L528.967 458.661L530.934 457.896L531.918 457.459L532.902 457.022L533.885 456.476L534.869 455.929L536.836 454.727L538.803 453.607L539.787 453.115L541.754 451.994L543.721 450.792L545.689 449.59L546.672 448.99L548.639 447.596L549.623 446.83L551.59 445.355L552.574 444.645L553.557 443.88L554.541 443.17L555.525 442.404L557.492 440.929L558.475 440.191L560.443 438.525L562.41 436.639L563.393 435.656L565.361 433.689L567.328 431.721L568.311 430.738L570.251 428.77L571.181 427.787L572.847 425.82L573.612 424.836L574.431 423.852L575.252 422.869L576.125 421.885L577.765 419.918L578.503 418.934L579.268 417.951L580.716 415.984L582.054 414.016L583.256 412.049L583.858 411.066L584.432 410.082L585.689 408.115L586.344 407.131L586.972 406.148L587.601 405.164L588.721 403.197L589.186 402.213L589.732 401.23L590.169 400.246L590.716 399.262L591.153 398.279L592.136 396.311L592.656 395.328L593.066 394.344L593.503 393.361L594.268 391.393L595.06 389.426L595.47 388.443L596.18 386.475L596.508 385.492L597.164 383.525L598.147 380.574L598.476 379.59L599.104 377.623L599.404 376.639L599.924 374.672L600.142 373.689L600.388 372.705L600.58 371.721L600.77 370.738L601.181 368.77L601.754 366.803L602.328 364.836L602.519 363.852L602.738 361.885L602.819 360.902L603.12 358.934L603.339 357.951L603.64 355.984L603.694 355L603.803 353.033L604.104 351.066L604.322 350.082L604.623 348.115L604.677 347.131L604.705 345.164V343.197V335.328V326.475V324.508V323.525L604.677 321.557L604.623 320.574L604.322 318.607L604.104 317.623L603.803 315.656L603.694 313.689L603.64 312.705L603.339 310.738L602.956 308.77L602.793 307.787L602.683 306.803L602.355 304.836L602.109 303.852L601.617 301.885L601.399 300.902L600.907 298.934L600.634 297.951L600.415 296.967L600.142 295.984L599.924 295L599.404 293.033L599.104 292.049L598.803 291.066L598.147 289.098L597.492 287.131L597.164 286.148L596.453 284.18L596.043 283.197L595.251 281.23L594.486 279.262L594.049 278.279L593.639 277.295L592.683 275.328L592.136 274.344L591.7 273.361L590.688 271.393L590.115 270.41L589.568 269.426L588.366 267.459L587.191 265.492L586.617 264.508L585.334 262.541L584.623 261.557L583.858 260.574L582.273 258.607L581.481 257.623L579.924 255.656L578.338 253.689L577.547 252.705L576.781 251.721L575.115 249.754L574.186 248.77L572.246 246.885L570.279 245.219L569.295 244.453L567.328 242.787L566.344 241.858L564.377 240L562.41 238.361L561.426 237.65L559.459 236.285L558.475 235.601L556.508 234.181L555.525 233.47L553.557 232.24L552.574 231.667L550.607 230.465L548.639 229.344L547.656 228.852L546.672 228.279L545.689 227.76L544.705 227.186L542.738 226.203L541.754 225.792L539.787 224.918L538.803 224.426L536.836 223.579L534.869 222.814L532.902 222.022L531.918 221.612L530.934 221.257L529.951 220.902L528.967 220.573L527 219.918L525.033 219.262L524.049 218.961L523.066 218.661L521.098 218.142L520.115 217.924L519.131 217.65L518.148 217.432L517.164 217.158L515.197 216.667L514.213 216.448L513.229 216.175L511.262 215.683L510.279 215.465L509.295 215.191L507.328 214.727L505.361 214.399L504.377 214.289L503.393 214.126L502.41 213.962L501.426 213.743L499.459 213.442L498.475 213.388L496.508 213.361H494.541L493.557 213.333L492.574 213.279L490.607 212.978L489.623 212.76L487.656 212.459L486.672 212.405L484.705 212.377H482.738H473.885H460.115H455.197H453.229L451.262 212.459L450.279 212.595L448.311 212.978L446.344 213.279L445.361 213.333L443.393 213.361H442.41H440.443H431.59L431.618 211.885L431.809 210.355L432.191 208.443L432.492 206.475L432.546 205.492L432.574 204.508L432.601 202.541L432.655 201.557L432.956 199.59L433.175 198.607L433.476 196.639L433.53 195.656L433.557 194.672V192.705V187.787V185.82L433.639 183.852L433.776 182.869L434.158 180.902L434.459 178.934L434.513 177.951L434.541 175.984V175V173.033L434.569 171.066L434.623 170.082L434.924 168.115L435.142 167.131L435.443 165.164L435.497 164.18L435.525 162.213V161.23V158.279L435.552 156.311L435.606 155.328L435.907 153.361L436.126 152.377L436.427 150.41L436.481 149.426L436.508 147.459V146.475V143.525L436.536 141.557L436.59 140.574L436.891 138.607L437.109 137.623L437.41 135.656L437.464 134.672L437.492 132.705V130.793V127.787L438.475 126.803H588.967L589.951 125.82V55.9836L588.967 55H368.639ZM587 57.9508V123.852H473.885H446.344H443.393H442.41H441.426L439.459 123.962L438.475 124.18L436.617 125.164L435.852 125.929L435.251 126.831L434.65 128.77L434.541 130.738L434.513 132.705L434.459 133.689L434.158 135.656L433.94 136.639L433.639 138.607L433.585 139.59L433.557 141.557V144.508V145.492L433.53 147.459L433.476 148.443L433.175 150.41L432.956 151.393L432.655 153.361L432.601 154.344L432.574 156.311V157.295V159.262V160.246L432.546 162.213L432.492 163.197L432.191 165.164L431.973 166.148L431.672 168.115L431.618 169.098L431.59 171.066V172.049V174.016L431.563 175.984L431.509 176.967L431.208 178.934L430.989 179.918L430.688 181.885L430.634 182.869L430.607 183.852V185.82V189.754V191.721L430.579 193.689L430.525 194.672L430.224 196.639L430.006 197.623L429.705 199.59L429.65 200.574L429.623 202.541L429.595 203.525L429.541 204.508L429.24 206.475L429.022 207.459L428.721 209.426L428.667 210.41L428.639 212.322V213.306V215.328L429.623 216.311H441.426H445.361L447.328 216.284L448.311 216.23L450.279 215.929L451.262 215.711L453.229 215.41L454.213 215.355L456.18 215.328H460.115H471.918H480.77H482.738L484.705 215.355L485.689 215.41L487.656 215.711L488.639 215.929L490.607 216.23L491.59 216.284L492.574 216.311H494.541L496.508 216.339L497.492 216.393L499.459 216.694L500.443 216.912L501.426 217.077L502.41 217.24L503.393 217.35L505.361 217.678L507.328 218.142L508.311 218.415L509.295 218.634L511.262 219.126L512.246 219.399L513.229 219.617L515.197 220.109L516.18 220.383L517.164 220.601L518.148 220.874L519.131 221.093L521.098 221.612L522.082 221.912L523.066 222.213L525.033 222.869L527 223.524L527.984 223.853L528.967 224.208L529.951 224.563L530.934 224.973L532.902 225.765L534.869 226.53L536.836 227.377L537.82 227.869L539.787 228.743L540.77 229.153L542.738 230.137L543.721 230.711L544.705 231.23L545.689 231.803L546.672 232.295L548.639 233.415L550.607 234.617L551.59 235.191L553.557 236.42L554.541 237.131L556.508 238.552L557.492 239.235L559.459 240.601L560.443 241.312L561.426 242.104L563.393 243.88L564.377 244.809L565.361 245.738L567.328 247.404L568.311 248.17L570.279 249.836L571.235 250.765L572.164 251.721L573.83 253.689L574.596 254.672L575.388 255.656L576.973 257.623L578.53 259.59L579.322 260.574L580.908 262.541L581.672 263.525L582.383 264.508L583.667 266.475L584.24 267.459L585.415 269.426L586.617 271.393L587.164 272.377L587.738 273.361L588.749 275.328L589.186 276.311L589.732 277.295L590.688 279.262L591.099 280.246L591.535 281.23L592.301 283.197L593.092 285.164L593.503 286.148L594.213 288.115L594.541 289.098L595.196 291.066L595.852 293.033L596.153 294.016L596.453 295L596.973 296.967L597.191 297.951L597.465 298.934L597.683 299.918L597.956 300.902L598.448 302.869L598.667 303.852L599.158 305.82L599.404 306.803L599.732 308.77L599.842 309.754L600.005 310.738L600.388 312.705L600.689 314.672L600.743 315.656L600.852 317.623L601.153 319.59L601.371 320.574L601.672 322.541L601.727 323.525L601.754 324.508V326.475V332.377V341.23V343.197L601.727 345.164L601.672 346.148L601.371 348.115L601.153 349.098L600.852 351.066L600.743 353.033L600.689 354.016L600.388 355.984L600.169 356.967L599.869 358.934L599.787 359.918L599.569 361.885L599.377 362.869L598.803 364.836L598.23 366.803L597.82 368.77L597.629 369.754L597.437 370.738L597.191 371.721L596.973 372.705L596.453 374.672L596.153 375.656L595.525 377.623L595.196 378.607L594.213 381.557L593.558 383.525L593.229 384.508L592.519 386.475L592.109 387.459L591.317 389.426L590.552 391.393L590.115 392.377L589.705 393.361L589.186 394.344L588.202 396.311L587.765 397.295L587.218 398.279L586.782 399.262L586.235 400.246L585.77 401.23L584.65 403.197L584.022 404.18L583.393 405.164L582.738 406.148L581.481 408.115L580.306 410.082L579.732 411.066L579.104 412.049L577.765 414.016L577.027 415L575.552 416.967L574.814 417.951L573.174 419.918L572.301 420.902L570.661 422.869L569.896 423.852L568.23 425.82L567.3 426.803L566.344 427.787L564.377 429.754L561.426 432.705L559.459 434.645L558.475 435.574L556.508 437.24L554.541 438.743L553.557 439.453L552.574 440.219L551.59 440.929L550.607 441.694L549.623 442.404L547.656 443.88L546.672 444.645L544.705 446.039L543.721 446.64L541.754 447.842L539.787 449.044L537.82 450.164L536.836 450.656L534.869 451.776L532.902 452.978L531.918 453.525L530.934 454.071L529.951 454.509L528.967 454.945L527 455.711L526.016 456.147L525.033 456.557L523.066 457.513L522.082 458.033L520.115 458.88L518.148 459.645L516.18 460.492L515.197 460.984L513.229 461.776L512.246 462.049L511.262 462.35L510.279 462.596L508.311 463.197L506.344 463.853L503.393 464.836L502.41 465.164L500.443 465.765L499.459 466.011L498.475 466.284L497.492 466.503L496.508 466.749L495.525 466.94L493.557 467.322L491.59 467.732L489.623 468.06L488.639 468.17L486.672 468.497L485.689 468.716L484.705 468.908L482.738 469.289L481.754 469.481L479.787 469.864L478.803 470L476.836 470.164L475.852 470.3L473.885 470.683L471.918 470.984L470.934 471.038L468.967 471.066H467.984H466.016L464.049 471.147L462.082 471.448L461.098 471.667L459.131 471.968L458.148 472.022L456.18 472.049H454.213H447.328H435.525H432.574H431.59L429.623 472.022L428.639 471.968L426.672 471.667L425.689 471.448L423.721 471.147L422.738 471.093L420.77 471.066H419.787H416.836H415.852L413.885 471.038L412.902 470.984L410.934 470.683L409.951 470.465L407.984 470.164L406.016 470.054L405.033 470L403.066 469.699L402.082 469.481L400.115 469.153L399.131 469.043L397.164 468.716L396.18 468.497L394.213 468.196L392.246 468.033L390.279 467.732L389.295 467.514L387.328 467.213L385.361 467.05L383.393 466.749L382.41 466.53L380.443 466.203L378.475 465.929L377.492 465.737L375.525 465.164L374.541 464.863L373.557 464.563L371.59 464.044L370.607 463.825L369.623 463.552L368.639 463.333L366.672 462.842L365.689 462.568L364.705 462.35L362.738 461.83L361.754 461.53L359.787 460.902L358.803 460.573L356.836 459.918L355.852 459.59L353.885 458.935L352.957 458.634L351.973 458.251L351.426 458.088L349.951 457.295V388.443L351.426 388.716L352.957 389.29L353.885 389.7L355.852 390.792L357.82 391.994L359.787 393.115L360.77 393.579L361.754 394.126L362.738 394.563L363.721 395.082L365.689 395.929L367.656 396.694L368.639 397.104L370.607 397.896L372.574 398.661L374.541 399.508L375.525 400L376.508 400.41L378.475 401.202L380.443 401.83L381.426 402.076L383.393 402.596L385.361 403.197L387.328 403.853L390.279 404.836L391.262 405.164L392.246 405.465L393.23 405.765L395.197 406.284L396.18 406.503L397.164 406.776L398.148 406.994L399.131 407.268L401.098 407.732L402.082 407.924L404.049 408.306L405.033 408.497L406.016 408.716L407 408.908L408.967 409.289L409.951 409.481L410.934 409.699L412.902 410L413.885 410.054L415.852 410.11L416.836 410.164L418.803 410.465L419.787 410.683L421.754 410.984L422.738 411.038L424.705 411.066H426.672H427.656L429.623 411.093L430.607 411.147L432.574 411.448L433.557 411.667L435.525 411.968L436.508 412.022L438.475 412.049H440.443H442.41L443.393 412.022L444.377 411.968L446.344 411.667L447.328 411.448L449.295 411.147L450.279 411.093L452.246 411.066H454.213L455.197 411.038L456.18 410.984L458.148 410.683L460.115 410.3L461.098 410.164L463.066 410L465.033 409.699L466.016 409.453L467.984 408.962L468.967 408.743L469.951 408.47L470.934 408.251L472.902 407.678L473.885 407.295L475.852 406.53L477.82 405.82L478.803 405.491L479.787 405.136L480.77 404.781L482.738 403.934L483.721 403.415L484.705 402.978L485.689 402.431L486.672 401.995L487.656 401.448L488.639 400.984L490.607 399.863L491.59 399.235L493.557 397.869L494.541 397.104L496.508 395.519L498.475 393.962L499.459 393.142L500.443 392.295L502.41 390.41L503.393 389.426L505.279 387.459L506.945 385.492L507.71 384.508L509.295 382.541L510.06 381.557L510.798 380.574L512.055 378.607L512.629 377.623L513.83 375.656L514.377 374.672L514.923 373.689L515.361 372.705L515.798 371.721L516.563 369.754L517.355 367.787L517.765 366.803L518.12 365.82L518.748 363.852L518.994 362.869L519.486 360.902L519.732 359.918L520.06 357.951L520.17 356.967L520.333 355.984L520.716 354.016L521.017 352.049L521.071 351.066L521.126 349.098L521.18 348.115L521.481 346.148L521.699 345.164L522 343.197L522.027 342.213L522 341.23L521.699 339.262L521.481 338.279L521.18 336.311L521.126 335.328L521.071 333.361L521.017 332.377L520.716 330.41L520.497 329.426L520.115 327.459L519.732 325.492L519.268 323.525L518.994 322.541L518.748 321.557L518.449 320.574L517.82 318.607L517.136 316.639L516.781 315.656L515.934 313.689L515.415 312.705L514.431 310.738L513.967 309.754L513.394 308.77L512.847 307.787L511.563 305.82L510.088 303.852L508.502 301.885L506.945 299.918L505.279 297.978L504.349 297.049L502.41 295.383L501.426 294.617L500.443 293.826L498.475 292.24L496.508 290.765L494.541 289.481L493.557 288.908L492.574 288.306L491.59 287.76L490.607 287.186L488.639 286.203L487.656 285.792L486.672 285.328L485.689 284.918L484.705 284.426L482.738 283.579L481.754 283.224L480.77 282.869L478.803 282.213L476.836 281.612L474.869 281.093L473.885 280.847L472.902 280.547L471.918 280.246L469.951 279.59L467.984 278.961L467 278.689L465.033 278.334L464.049 278.224L463.066 278.06L461.098 277.678L459.131 277.377L458.148 277.323L456.18 277.213L454.213 276.912L453.229 276.694L451.262 276.393L450.279 276.339L448.311 276.284L447.328 276.23L445.361 275.929L444.377 275.711L442.41 275.41L441.426 275.355L439.459 275.328H437.492H434.541H421.754H412.902H410.934L408.967 275.355L407.984 275.41L406.016 275.711L405.033 275.929L403.066 276.23L402.082 276.284L400.115 276.311H398.148H395.197H393.23L391.262 276.393L390.279 276.53L388.311 276.912L386.344 277.213L385.361 277.268L383.393 277.295H382.41H380.443L378.475 277.377L376.508 277.678L375.525 277.896L373.557 278.197L372.574 278.251L370.607 278.279H369.623H367.656L365.689 278.36L363.721 278.661L362.738 278.88L360.77 279.181L359.787 279.235L357.875 279.262H355.852V276.256V274.344L355.88 272.377L355.934 271.393L356.235 269.426L356.453 268.443L356.754 266.475L356.809 265.492L356.836 263.525V262.541V260.574L356.864 258.607L356.918 257.623L357.219 255.656L357.437 254.672L357.738 252.705L357.792 251.721L357.82 249.754V248.77V245.82V244.836L357.847 242.869L357.901 241.885L358.202 239.918L358.421 238.934L358.722 236.967L358.776 235.984L358.803 234.016V233.033V231.066L358.831 229.098L358.885 228.115L359.186 226.148L359.404 225.164L359.705 223.197L359.759 222.213L359.787 220.246V219.262V217.295L359.869 215.328L360.17 213.361L360.388 212.377L360.689 210.41L360.743 209.426L360.77 207.459V206.475V204.508V203.525L360.798 201.557L360.852 200.574L361.153 198.607L361.371 197.623L361.672 195.656L361.727 194.672L361.754 192.705V189.754V188.77L361.782 186.803L361.836 185.82L362.137 183.852L362.355 182.869L362.656 180.902L362.71 179.918L362.738 177.951V176.967V174.016V172.049L362.765 170.082L362.819 169.098L363.12 167.131L363.339 166.148L363.64 164.18L363.694 163.197L363.721 161.23V159.262L363.749 158.279L363.803 157.295L364.104 155.328L364.322 154.344L364.623 152.377L364.677 151.393L364.705 149.426V148.443V146.475L364.732 144.508L364.787 143.525L365.088 141.557L365.306 140.574L365.607 138.607L365.661 137.623L365.689 135.656V134.672V131.721V129.754L365.716 127.787L365.77 126.803L366.071 124.836L366.289 123.852L366.59 121.885L366.645 120.902L366.672 118.934V115.984V115L366.7 113.033L366.754 112.049L367.055 110.082L367.273 109.098L367.574 107.131L367.628 106.148L367.656 104.18L367.683 103.197L367.737 102.213L368.038 100.246L368.257 99.2623L368.558 97.2951L368.612 96.3115L368.639 94.3443V93.3607V90.4098L368.667 88.4426L368.721 87.459L369.022 85.4918L369.24 84.5082L369.541 82.541L369.595 81.5574L369.623 80.5738V78.6066V73.6885V72.7049L369.65 70.7377L369.705 69.7541L370.006 67.7869L370.224 66.8033L370.525 64.8361L370.579 63.8525L370.607 61.8852V60.9562V57.9508H587Z" fill="#00FF00"/>
</svg>
