<svg width="557" height="516" viewBox="0 0 557 516" fill="none" xmlns="http://www.w3.org/2000/svg">
<path d="M18 1.72223L16 3.11108L15 4.02777L13 6L12 7L9 10L7 12L6 13L4.02778 15L3.11111 16L1.72222 18L1.33333 19L1.11111 20L1 22V23V26V40V88V117V122V124V125L1.02778 127L1.11111 128L1.72222 130L3.11111 132L4.02778 133L6 135L8 137L10 139L10.9722 140L11.9167 141L13.6111 143L15.2222 144.917L17 146.611L17.9167 147.389L19.6111 149.083L20.3611 150.028L21.8333 152L22.5556 153L23.7222 155L24.1667 156L24.6111 157L25.3056 159L25.5833 160L25.7778 161L25.9167 162L26 164V165V166V168V179V214V323V346V351V353L25.9722 354L25.9167 355L25.5833 357L25 359L24.6667 360L23.9167 362L23.4444 363L22.9167 364L22.2778 365L21.5833 366L19.9167 368L18.9722 369L18 370L16 372L15 373L13 375L8 380L6 382L4.02778 384L2.33333 386L1.72222 387L1.33333 388L1.11111 389L1 391V392V395V410V458V488V492V494V495L1.08333 497L1.5 499L1.94444 500L3.25 502L5.02778 504L7 506L9 508L11 510L13 512L14 512.972L15 513.889L17 515.278L19 515.889L20 515.972L22 516H24H27H49H127H223H424H507H530H533H535L537 515.972L538 515.889L540 515.278L542 513.889L543 512.972L545 511L546 510L549 507L551 505L552 504L553 503L554.889 501L556.278 499L556.667 498L556.889 497L557 495V494V491V477V429V427V400V395V393V392V391L556.889 389L556.278 387L554.889 385L553.972 384L552 382L550 380L544 374L542 372L541 371L540 370L538.083 368L536.417 366L535.028 364L534.417 363L533.417 361L533.028 360L532.417 358L532.222 357L532.083 356L532 354V353V352V350V339V303V194V172V168V166V164L532.083 162L532.222 161L532.417 160L532.694 159L533.389 157L533.833 156L534.778 154L535.25 153L536.472 151L538.083 149L540 147L542 145L543 144L545 142L550 137L552 135L553.972 133L555.667 131L556.278 130L556.667 129L556.889 128L557 126V125V122V108V60V30V26V24V22L556.972 21L556.889 20L556.667 19L555.667 17L553.972 15L552 13L551 12L548 9L546 7L545 6L543 4.02777L542 3.11108L540 1.72223L539 1.33337L537 1.02777L535 1H533H528H506H432H376H135H52H29H25H23H22L20 1.11108L18 1.72223ZM21 4.33331L23 4.02777L24 4H26H28H33H58H143H427H509H528H531H533L535 4.02777L537 4.33331L538 4.72223L540 6.11111L541 7.02777L543 9L545 11L548 14L549 15L550.972 17L552.667 19L553.667 21L553.889 22L553.972 23L554 24V25V28V45V104V120V123V124L553.889 126L553.278 128L551.889 130L550.972 131L549 133L547 135L540 142L538 144L536.028 146L535.083 147L533.472 149L532.25 151L531.778 152L531.25 153L530.389 155L529.694 157L529.417 158L529.222 159L529.083 160L529 162V164V166V171V192V259V326V347V352V354V356L529.083 358L529.222 359L529.417 360L530.028 362L530.417 363L531.417 365L532.028 366L533.417 368L535.083 370L537 372L538 373L539 374L541 376L547 382L549 384L550.972 386L551.889 387L553.278 389L553.889 391L554 393V394V395V398V400V464V485V491V493L553.972 494L553.889 495L553.278 497L551.889 499L550 501L549 502L548 503L546 505L544 507L543 508L542 509L540 510.889L538 512.278L537 512.667L535 512.972L534 513H532H530H525H500H415H133H49H29H26H24L22 512.972L21 512.889L19 512.278L17 510.889L16 509.972L15 509L13 507L12 506L10 504L9 503L8.02778 502L6.25 500L4.94444 498L4.5 497L4.08333 495L4 493V492V491V489V474V414V397V394V393L4.11111 391L4.72222 389L6.11111 387L7.02778 386L9 384L11 382L16 377L18 375L19 374L20 373L21.9722 371L22.9167 370L24.5833 368L25.9167 366L26.9167 364L27.6667 362L28.3056 360L28.7778 358L28.9167 357L29 355V353V351V346V324V257V192V171V166V164V162L28.9167 160L28.7778 159L28.5833 158L28.3056 157L27.6111 155L27.1667 154L26.7222 153L25.5556 151L24.8333 150L23.3611 148L22.6111 147.028L21.7778 146.083L20 144.389L19.0833 143.611L18.2222 142.778L17.3889 141.917L16.6111 140.972L14.9167 139L13.9722 138L13 137L11 135L9 133L7.02778 131L6.11111 130L4.72222 128L4.11111 126L4 124V123V122V119V53V32V26V24L4.02778 23L4.11111 22L4.72222 20L5.33333 19L6.11111 18L8 16L9 15L11 13L14 10L15 9L17 7.02777L18 6.11111L20 4.72223L21 4.33331ZM72 14.4167L70 15.0278L69 15.3889L67 16.2778L65 17.4722L64 18.25L63 19.0833L61.0278 21L59.25 23L58.4722 24L57.25 26L56.7778 27L56.25 28L55.4722 30L55 32L54.6111 34L54.2222 36L54.0833 37V39L54.3889 41L54.8056 43L55.1944 45L55.4167 46L56.0278 48L56.4167 49L57.4167 51L58.6944 53L60.2222 54.9722L61.0833 55.9167L63 57.5833L65 58.9722L66 59.5833L68 60.5833L69 60.9722L71 61.5833L72 61.7778L73 61.9167L75 62H76H77H79H81H82L84 61.9167L86 61.5833L87 61.3055L89 60.5833L91 59.5833L92 58.9722L94 57.5833L95.9722 55.9167L97.75 54L98.5278 53L99.75 51L100.222 50L100.75 49L101.528 47L101.778 46L102 45L102.389 43L102.611 42L102.917 40L103 38L102.972 37L102.917 36L102.611 34L102.361 33L101.861 31L101.611 30L100.972 28L100.583 27L99.5833 25L98.3056 23L97.5833 22.0278L95.9167 20.2222L94.9722 19.4167L94 18.6945L92 17.3889L91 16.8333L90 16.2778L88 15.3889L86 14.6945L85 14.4167L84 14.2222L83 14.0833L81 14H80H78H76L74 14.0833L72 14.4167ZM473 14.4167L472 14.6945L470 15.3889L468 16.2778L467 16.8333L466 17.3889L464 18.6945L463.028 19.4167L461.222 21.0833L459.694 23L459.028 24L458.389 25L457.278 27L456.444 29L456.167 30L455.861 31L455.389 33L455.083 35L455.028 36L455 38L455.028 40L455.083 41L455.389 43L455.639 44L455.861 45L456.444 47L457.25 49L457.778 50L458.861 52L459.472 53L460.25 54L462.028 55.9167L463 56.7778L465 58.3055L467 59.5833L469 60.5833L471 61.3055L472 61.5833L474 61.9167L476 62H477H478H480H482H483L485 61.9167L487 61.5278L488 61.1389L489 60.75L490 60.2222L492 59.1667L493 58.6111L495 57.3055L495.972 56.5833L497.75 54.9167L498.528 53.9722L499.75 52L500.222 51L501.222 49L501.75 48L502.556 46L503.139 44L503.361 43L503.611 42L503.917 40L503.972 38L503.917 37L503.611 35L503.389 34L503 32L502.778 31L502.528 30L501.75 28L501.222 27L500.75 26L499.528 24L498.75 23L496.972 21L495 19.0833L494 18.25L493 17.4722L491 16.2778L489 15.3889L488 15.0278L486 14.4167L484 14.0833L482 14H481H479H477L475 14.0833L473 14.4167ZM75 17.2222L77 17.0278L78 17L80 17.0278L81 17.0833L83 17.4167L84 17.6945L86 18.3889L87 18.8333L88 19.2778L89 19.8333L90 20.3889L91.9722 21.6945L92.9167 22.4167L94.5833 24.0833L95.3056 25.0278L96.5833 27L97.1111 28L97.5833 29L97.9722 30L98.6111 32L98.8611 33L99.3611 35L99.6111 36L99.8333 38L99.75 39L99.6111 40L99.1944 42L98.7778 44L98.5278 45L97.75 47L97.2222 48L96.1389 50L95.5278 51L93.9167 52.9167L92 54.5833L91 55.3055L89 56.5833L88 57.1111L87 57.5833L85 58.3055L84 58.5833L83 58.7778L82 58.9167L80 59H79H77L75 58.9167L74 58.7778L73 58.5833L71 57.9722L70 57.5833L68 56.5833L67 55.9722L66 55.3055L65.0278 54.5833L63.2222 52.9167L61.6944 51L61.0278 50L60.4167 49L59.4167 47L59.0278 46L58.6944 45L58.4167 44L58 42L57.6389 40L57.4722 39V37L57.8056 35L58.2222 33L58.4722 32L59.25 30L59.7778 29L60.25 28L61.4722 26L62.25 25L64.0278 23.0278L66 21.25L67 20.4722L68 19.8611L70 18.8333L71 18.3889L73 17.6945L74 17.4167L75 17.2222ZM476 17.2222L478 17.0278L479 17H480L482 17.0833L484 17.4167L485 17.6945L487 18.3889L488 18.8333L490 19.8611L491 20.4722L492 21.25L493.972 23.0278L495.75 25L496.528 26L497.75 28L498.222 29L498.75 30L499.528 32L499.778 33L500.194 35L500.389 36L500.694 38L500.583 40L500.361 41L499.833 43L499.556 44L498.75 46L498.222 47L497.778 48L497.222 49L496.75 50L495.528 51.9167L494.75 52.7778L493.917 53.5833L492.972 54.3055L491 55.6111L490 56.1667L488 57.2222L487 57.75L485 58.5278L484 58.75L483 58.9167L481 59H480H478L476 58.9167L474 58.5833L472 57.9722L471 57.5833L469 56.5833L467 55.3055L465.028 53.7778L464.083 52.9167L462.472 51L461.25 49L460.778 48L460.25 47L459.444 45L459.167 44L458.639 42L458.389 41L458.083 39V37L458.222 36L458.639 34L459.167 32L459.444 31L460.278 29L461.389 27L462.694 25.0278L463.417 24.0833L464.222 23.2222L466.028 21.6945L468 20.3889L469 19.8333L471 18.8333L472 18.3889L474 17.6945L475 17.4167L476 17.2222ZM73 455.389L72 455.639L70 456.167L69 456.444L67 457.278L66 457.861L65 458.472L63 460.083L62 461.028L60.0833 463L59.25 464L58.4722 465L57.25 467L56.7778 468L56.25 469L55.4722 471L55.2222 472L55 473L54.6111 475L54.2222 477L54.0833 478V480L54.3889 482L54.6111 483L55 485L55.4167 487L55.6944 488L56.0278 489L56.4167 490L57.4167 492L58.6944 494L60.2222 495.972L61.0833 496.917L63 498.528L65 499.75L66 500.222L67 500.75L69 501.611L71 502.306L72 502.583L73 502.778L74 502.917L76 503H77H79H81H82L84 502.917L86 502.583L87 502.306L89 501.583L91 500.583L92 499.972L94 498.583L94.9722 497.778L95.9167 496.917L97.5833 495L98.3056 494L99.6111 492L100.722 490L101.528 488L101.778 487L102 486L102.389 484L102.611 483L102.917 481L103 479L102.972 478L102.917 477L102.611 475L102.361 474L101.861 472L101.611 471L100.972 469L100.583 468L99.5833 466L98.3056 464L97.5833 463.028L95.9167 461.222L94.9722 460.417L93 459.028L91 457.833L90 457.278L89 456.861L88 456.444L87 456.167L86 455.861L84 455.389L82 455.083L81 455.028L80 455H78H77L75 455.083L73 455.389ZM474 455.389L473 455.639L472 455.861L470 456.444L468 457.25L467 457.778L466 458.25L464 459.472L462.083 461.083L461.222 462.028L460.417 463L459.028 465L457.833 467L457.278 468L456.444 470L455.861 472L455.389 474L455.083 476L455.028 477L455 479V480V481L455.083 483L455.417 485L455.694 486L456.389 488L456.833 489L457.25 490L457.778 491L458.25 492L459.472 494L461.083 495.972L463 497.778L465 499.306L467 500.583L469 501.583L471 502.306L472 502.583L473 502.778L474 502.917L476 503H477H478H480H482H483L485 502.917L486 502.75L487 502.528L489 501.75L490 501.222L492 500.167L493 499.611L495 498.306L495.972 497.583L497.75 495.917L498.528 494.972L499.806 493L500.361 492L500.944 491L501.917 489L502.278 488L502.806 486L503.194 484L503.611 482L503.778 481L503.917 480V478L503.611 476L503.389 475L503 473L502.778 472L502.528 471L501.75 469L501.222 468L500.75 467L499.528 465L497.917 463L496.972 462L496 461.028L495 460.083L493 458.472L491 457.278L490 456.861L488 456.167L487 455.861L485 455.389L483 455.083L482 455.028L480 455H479H478L476 455.083L474 455.389ZM76 458.222L77 458.083L78 458.028L80 458.083L82 458.389L83 458.639L84 458.861L86 459.444L87 459.861L88 460.278L89 460.833L91 462.028L92.9167 463.417L94.5833 465.083L95.3056 466.028L96.5833 468L97.5833 470L97.9722 471L98.6111 473L98.8611 474L99.3611 476L99.6111 477L99.8333 479L99.75 480L99.6111 481L99.1944 483L98.7778 485L98.5278 486L97.7222 488L96.6111 490L95.9722 491L95.3056 492L93.7778 493.917L91.9722 495.583L91 496.306L90 496.972L89 497.583L87 498.583L86 498.972L84 499.583L83 499.778L82 499.917L80 500H79L77 499.972L76 499.917L74 499.583L73 499.306L71 498.611L70 498.167L69 497.75L68 497.222L67 496.75L65.0278 495.528L63.2222 493.917L61.6944 492L60.4167 490L59.4167 488L58.6944 486L58.4167 485L58 483L57.6389 481L57.4722 480V478L57.8056 476L58.2222 474L58.4722 473L59.25 471L59.7778 470L60.25 469L61.4722 467L62.25 466L64.0278 464.028L66 462.25L67 461.472L69 460.278L71 459.444L72 459.167L74 458.639L76 458.222ZM477 458.222L478 458.083L479 458.028L481 458.083L483 458.389L484 458.639L486 459.167L487 459.444L488 459.861L489 460.278L491 461.472L492 462.25L493.972 464.028L495.75 466L496.528 467L497.75 469L498.222 470L498.75 471L499.528 473L499.778 474L500.194 476L500.528 478V480L500.361 481L500 483L499.583 485L498.917 487L497.944 489L497.361 490L496.806 491L495.528 492.917L494.75 493.778L493.917 494.583L492.972 495.306L491 496.611L490 497.167L488 498.222L487 498.75L485 499.528L483 499.917L482 499.972L480 500H478L476 499.917L474 499.583L472 498.972L471 498.583L469 497.583L467 496.306L465.028 494.778L464.083 493.917L462.472 492L461.25 490L460.778 489L460.25 488L459.389 486L458.694 484L458.417 483L458.083 481L458.028 479L458.083 478L458.389 476L458.639 475L459.167 473L459.444 472L460.278 470L460.833 469L462.028 467L463.417 465.028L464.222 464.083L466.028 462.472L467 461.861L469 460.778L470 460.25L472 459.444L474 458.861L475 458.639L477 458.222Z" fill="#00FF00"/>
<path d="M408 440L409 439L408.889 436.944L408.667 435.944L407.694 434L406.194 432L405.389 431L403.861 429L403.139 428L401.611 426L400 424L398.389 422L396.806 420L395.194 418L394.389 417L392.861 415L392.139 414L391.361 413L390.611 412L388.944 410L388.056 409L387.222 408L386.389 407L385.639 406L384.861 405L384.139 404L382.611 402L381.806 401L380.194 399L378.611 397L377.806 396L376.194 394L374.611 392L373.806 391L372.194 389L371.389 388L370.611 387L369.806 386L368.194 384L367.389 383L366.639 382L365.861 381L365.139 380L363.611 378L362.806 377L361.194 375L360.389 374L358.861 372L358.139 371L357.361 370L356.611 369L354.944 367L354.056 366L352.389 364L350.861 362L350.139 361L348.611 359L347.806 358L346.194 356L345.389 355L344.611 354L343.806 353L342.194 351L341.389 350L339.778 348.028L338.917 347.111L337 345.722L335 345.111L334 345.028L333 345H331H330H328H321H284H282L164 345H159H151L149.528 347.056L148 349L146.389 351L144.806 353L143.194 355L142.389 356L140.861 358L140.139 359L139.361 360L138.611 361L137.806 362L136.194 364L135.389 365L134.611 366L133.806 367L132.194 369L131.389 370L130.611 371L129.806 372L128.194 374L127.389 375L125.806 377L124.194 379L123.389 380L121.861 382L121.139 383L120.361 384L119.611 385L118.806 386L117.194 388L116.389 389L115.611 390L114.806 391L113.194 393L112.389 394L111.611 395L110.806 396L109.194 398L108.389 399L107.611 400L106.806 401L105.194 403L104.389 404L102.861 406L102.139 407L100.611 409L99.806 410L99 411L97.389 413L96.611 414L95.806 415L94.194 417L93.389 418L92.611 419L91.806 420L90.194 422L89.389 423L88.611 424L87 426L86.194 427L85.389 428L83.861 430L83.139 431L82.361 432L80.889 434L79.694 435.944L79.111 437.5L79 439L80.5 439.722L81.056 439.75L82.056 439.944L83 439.972L85 440H87H91H95H100H110H114H117H121H129H130H147H148H158H178H180H196H204H214H233H245L257 440H408ZM84 437L84.528 435.5L84.917 434.944L85.472 433.945L86.167 433L86.861 432L88.389 430L89.194 429L90.806 427L91.611 426L92.389 425L93.194 424L94.806 422L95.611 421L96.389 420L97.194 419L98.806 417L99.611 416L100.389 415L101.194 414L102.806 412L103.611 411L104.361 410L105.139 409L105.861 408L107.389 406L108.194 405L109.806 403L110.611 402L111.389 401L112.194 400L113.806 398L114.611 397L115.389 396L116.194 395L117.806 393L118.611 392L119.389 391L120.194 390L121.806 388L122.611 387L123.361 386L124.139 385L124.861 384L126.389 382L127.194 381L128.806 379L129.611 378L130.389 377L131.194 376L132.806 374L133.611 373L134.389 372L135.194 371L136.806 369L137.611 368L139.194 366L140.806 364L141.611 363L142.361 362L143.139 361L143.861 360L145.389 358L146.194 357L147.806 355L148.611 354L149.389 353L150.972 351.056L151.722 350.056L152.222 349.5L153 348H176H186L193 348H206H284H320H326H328H329H331L332 348.028L333 348.111L334.972 348.722L336.778 350.111L337.611 351.028L338.389 352L340 354L341.611 356L342.389 357L343.194 358L344.806 360L345.611 361L347.139 363L347.861 364L348.639 365L349.389 366L351.056 368L351.944 369L352.778 370L353.611 371L354.361 372L355.139 373L355.861 374L357.389 376L358.194 377L359.806 379L360.611 380L362.139 382L362.861 383L363.639 384L364.389 385L365.194 386L366.806 388L367.611 389L368.389 390L369.194 391L370.806 393L371.611 394L372.389 395L373.194 396L374.806 398L375.611 399L376.389 400L377.194 401L378.806 403L379.611 404L381.139 406L381.861 407L382.639 408L383.389 409L384.222 410L385.056 411L385.944 412L387.611 414L388.361 415L389.139 416L389.861 417L391.389 419L392.194 420L393.806 422L395.389 424L396.194 425L397.806 427L398.611 428L400.139 430L400.861 431L401.639 432L402.361 433L403.778 434.944L404.25 435.5L405 437H403.5H351L189 437H184H180H169H164H159H157H141H133H101H93H89H84ZM368 419L367.889 417.5L367.361 415.945L366.278 414L365.583 413L364.806 412L363.194 410L361.611 408L360.806 407L359.194 405L358.389 404L356.806 402L355.194 400L354.389 399L353.639 398L352.861 397L352.139 396L350.611 394L349.806 393L348.194 391L347.389 390L346.611 389L345.806 388L344.194 386L343.389 385L342.611 384L341.806 383L340.194 381L339.389 380L337.806 378L336.194 376L335.389 375L334.639 374L333.861 373L332.361 371L331.611 370L329.917 368.028L328.972 367.111L327 365.722L325 365.111L323 365H322H321H319H314H285H201H199H198L187 365H174H169H167H166L164 365.028L162.028 365.333L161.083 365.722L159.389 367.111L157.806 369L157 370L155.389 372L153.861 374L153.139 375L151.611 377L150.806 378L149.194 380L148.389 381L147.611 382L146.806 383L145.194 385L144.389 386L143.611 387L142.806 388L141.194 390L140.389 391L139.611 392L138.806 393L137.194 395L136.389 396L135.639 397L134.861 398L134.139 399L132.611 401L131.806 402L130.194 404L128.611 406L127.806 407L126.194 409L125.389 410L124.611 411L123.806 412L122.306 414L121.333 415.945L121.111 416.945L121 419L122 420H131H153H189H200L293 420H344H358H361H363L364 419.972L364.944 419.945L365.944 419.75L366.5 419.722L368 419ZM125 417L125.75 415.5L126.222 414.945L126.889 413.945L127.639 413L128.389 412L129.194 411L130.806 409L131.611 408L133.194 406L134.806 404L135.611 403L137.139 401L137.861 400L138.639 399L139.389 398L140.194 397L141.806 395L142.611 394L143.389 393L144.194 392L145.806 390L146.611 389L147.389 388L148.194 387L149.806 385L150.611 384L151.389 383L152.194 382L153.806 380L154.611 379L155.361 378L156.139 377L156.861 376L158.389 374L160 372L161.528 370.056L163 368H183L191 368H201H202H204H209H279H311H317H319H320L322 368.028L323 368.111L325 368.722L326.917 370.111L327.778 371.028L329.361 373L330.139 374L330.861 375L332.389 377L333.194 378L334.806 380L335.611 381L336.389 382L337.194 383L338.806 385L339.611 386L340.389 387L341.194 388L342.806 390L343.611 391L344.389 392L345.194 393L346.806 395L347.611 396L348.361 397L349.139 398L349.861 399L351.389 401L352.194 402L353.806 404L355.389 406L356.194 407L357.806 409L358.611 410L359.389 411L360.972 413L361.694 413.945L362.278 414.945L362.639 415.5L363 417L125 417ZM325 337L326 336V299L325 298H307L306.75 296.5L306.389 294.944L306.194 294L305.806 292L305.611 291L305.389 290L305.194 289L304.806 287L304.611 286L304.389 285L304.194 284L303.806 282L303.611 281L303.389 280L303.056 278L302.778 276L302.611 275L302.139 273L301.861 272L301.5 270L301.806 268L303.111 266.083L304.028 265.222L306 263.611L307 262.778L308 261.917L310 260L311 259L312.972 257L313.917 256L315.611 254L316.389 253L318 251L318.806 250L319.583 249L320.306 248L321.667 246L322.333 245L323.611 243L324.194 242L325.389 240L326.611 238L327.167 237L327.75 236L328.778 234L329.222 233L329.75 232.056L330.167 231.056L330.5 230.5L331 229H333.056L335 228.972L336 228.917L338 228.611L339 228.389L341 228.056L342 227.944L344 227.611L345 227.389L347 227.083L349 226.917L350 226.778L352 226.389L353 226.222L354 226.083L356 225.917L357 225.778L359 225.389L361 225.083L363 224.917L364 224.778L366 224.389L368 224.056L369 223.944L371 223.611L373 223.222L374 223.083L376 222.917L378 222.611L380 222.222L381 222.083L383 221.917L384 221.778L386 221.389L387 221.222L388 221.083L390 220.917L391 220.778L392 220.611L394 220.222L395 220.083L397 219.917L399 219.611L400 219.389L402 219.056L403 218.944L405 218.611L406 218.389L408 218.083L409 218.028L411 218L412 218.028L413 218.083L415 218.389L416 218.611L418 218.917L419 218.972L420 219L422 218.972L423 218.917L425 218.611L427 218.222L429 218.028L431 217.972L432 217.917L434 217.611L435 217.389L437 217.083L438 217.028L440 217L441 216.972L442 216.917L444 216.611L445 216.389L447 216.083L448 216.028L450 216L451 215.972L452 215.917L454 215.611L455 215.389L457 215.083L458 215.028L460 215L461 214.972L462 214.917L464 214.611L465 214.389L467 214.083L468 214.028L469 214H471L473 213.917L474.944 213.556L476.5 212.972L478 212V209.944L477.972 208L477.917 207L477.611 205L477.389 204L477.083 202L476.972 200L476.917 199L476.611 197L476.222 195L476.083 194L475.917 192L475.778 191L475.611 190L475.222 188L475.083 187L474.917 185L474.778 184L474.389 182L474.083 180L474.028 179L473.972 177L473.917 176L473.611 174L473.389 173L473.083 171L472.972 169L472.917 168L472.611 166L472.389 165L472.083 163L471.972 161L471.917 160L471.611 158L471.389 157L471.083 155L471.028 154L470.917 152L470.611 150L470.389 149L470.083 147L469.972 145L469.917 144L469.611 142L469.389 141L469.083 139L469.028 138L468.917 136L468.611 134L468.389 133L468.083 131.056L468.028 130.056L468 128L467 127L464.944 127.083L463 127.389L461 127.778L460 127.917L458 128.083L457 128.222L455 128.611L453 128.917L451 129.028L450 129.083L448 129.389L447 129.611L445 129.917L444 129.972L442 130.083L440 130.389L438 130.778L437 130.917L435 131.083L434 131.222L433 131.389L431 131.778L430 131.917L428 132.028L427 132.083L425 132.389L423 132.778L422 132.917L420 133.083L419 133.222L417 133.611L415 133.917L413 134.083L411 134.389L410 134.611L409 134.778L407 135.083L405 135.722L403 137.083L402 137.944L400 139.5L398 140.5L396 140.917L395 140.972L393 141.083L392 141.222L391 141.389L389 141.778L388 141.917L386 142.083L384 142.389L382 142.778L381 142.917L379 143.083L378 143.222L376.056 143.611L375.5 143.75L374 144L373.5 142.5L373.194 141.944L372.389 140L371.611 138L371.167 137L370.75 136L369.778 134L369.222 133L368.778 132L368.222 131L367.778 130L367.222 129L366.778 128L366.25 127L365.389 125L364.611 123L363.75 121L363.222 120L362.222 118L361.75 117L360.528 115.111L358.917 113.639L357.972 113.111L356 112.389L355 112.139L353 111.639L352 111.389L351 111.194L349 110.806L348 110.611L346 110.139L345 109.861L344 109.639L343 109.361L341 108.861L340 108.639L339 108.361L338 108.139L337 107.861L335 107.361L334 107.139L333 106.861L332 106.639L331 106.361L329 105.861L328 105.639L327 105.361L325 104.861L324 104.611L322.028 103.889L320.306 102.694L319.111 100.972L318.417 99L318.083 97L318.028 96L317.917 94L317.611 92L317.222 90L317.083 89L316.972 87L316.917 86L316.611 84L316.389 83L316.083 81.056L316.028 80.056L316 78L315 77H312.944L311 77.028L310 77.083L308 77.389L307 77.611L305 77.917L303 78.028L302 78.083L300 78.389L299 78.611L297 78.917L296 78.972L294 79.083L292 79.389L291 79.611L289 79.917L287 80.028L286 80.083L284 80.389L283 80.611L281 80.917L280 80.972L278 81.028L277 81.083L275 81.389L273 81.778L272 81.917L270 82.028L269 82.083L267 82.389L266 82.611L264 82.917L263 82.972L261 83.028L260 83.083L258 83.389L257 83.611L255 83.917L254 83.972L252 84.028L251 84.083L249 84.389L247 84.778L246 84.917L244 85.028L243 85.083L241 85.389L240 85.611L238 85.917L237 85.972L235 86.028L234 86.083L232 86.389L231 86.611L229 86.917L228 86.972L226 87.083L225 87.222L223 87.611L221 87.917L220 87.972L218 88.028L217 88.083L215 88.389L214 88.611L212 88.917L211 88.972L209 89.083L207 89.389L206 89.611L204 89.917L203 89.972L201 90.083L200 90.222L198 90.611L196 90.917L194 91.028L193 91.083L191 91.389L190 91.611L188 91.917L187 91.972L185 92.028L184 92.083L182 92.389L181 92.611L179 92.917L177 93L175 93.083L173 93.417L171 94.111L170 94.639L168 96.111L167 97.028L165 99L163 101L160 104L159 105L157 106.972L156 107.889L155 108.694L153 109.889L151 110.611L150 110.861L148 111.361L147 111.639L146 111.861L145 112.139L144 112.361L142 112.861L141 113.139L140 113.361L139 113.639L138 113.861L137 114.139L136 114.361L135 114.639L134 114.861L132 115.361L130 115.861L129 116.139L128 116.361L127 116.639L126 116.861L125 117.139L123 117.639L122 117.861L121 118.139L120 118.361L119 118.639L118 118.861L117 119.139L116 119.361L115 119.639L113 120.139L112 120.361L111 120.639L110 120.861L109 121.139L107 121.611L106 121.806L104 122.194L103 122.389L102 122.639L101 122.861L100 123.139L98.056 123.611L97.056 123.778L96.5 123.917L95 124L94 125V127.056L94.028 129L94.083 130L94.389 132L94.611 133L94.917 135L94.972 136L95 138L95.028 139L95.083 140L95.389 142L95.611 143L95.917 145L95.972 146L96 148L96.028 150L96.083 151L96.389 153L96.611 154L96.917 156L96.972 157L97 159L97.028 160L97.083 161L97.389 163L97.611 164L97.917 166L97.972 167L98.028 169L98.222 171L98.611 173L98.917 175L98.972 176L99 178L99.028 179L99.083 180L99.389 182L99.611 183L99.917 185L99.972 186L100 188L100.028 190L100.083 191L100.389 193L100.611 194L100.917 196L100.972 197L101 199L101.028 201L101.083 202L101.389 204L101.611 205L101.917 207L101.972 208L102 210L102.028 212L102.083 213L102.389 215L102.611 216L102.917 218L102.972 219L103 221L103.028 223L103.083 224L103.389 226L103.611 227L103.917 229L103.972 230L104 232V233L104.083 235L104.222 236L104.389 237L104.778 239L104.917 240L105 242V243L105.083 245L105.444 246.944L106.028 248.5L107 250H114H116L118 250.028L119 250.083L121 250.389L122 250.611L124 250.917L125 250.972L127 251H128L131 251H132L134 251.028L135 251.083L137 251.389L139 251.778L140 251.917L142 252H144H147H149L151 252.028L152 252.083L154 252.389L156 252.778L157 252.917L159 253H161H164H166L168 253.028L170 253.25L170.972 253.5L172.778 254.5L173.611 255.25L175.222 257.028L176.083 258L178 260L179.889 262L180.639 263L181.194 264L181.5 266L181.194 268L181 269L180.611 271L180.389 272L180 274L179.611 276L179.389 277L179.194 278L178.806 280L178.611 281L178.389 282L178.194 283L177.806 285L177.611 286L177.389 287L177.194 288L176.806 290L176.611 291L176.389 292L176.083 293.944L176.028 294.944L176 297L175 298H159L158 299V336L159 337H167H175H180H183H187L216 337H222H325ZM161 334V331.944V301H164.056H168H170H171L173 300.972L174 300.889L175.972 300.278L176.889 299.667L177.667 298.889L178.694 297L179.194 295L179.389 294L179.611 293L179.806 292L180.194 290L180.389 289L180.611 288L181 286L181.389 284L181.611 283L181.806 282L182.194 280L182.389 279L182.611 278L182.806 277L183.194 275L183.389 274L183.611 273L184 271L184.389 269L184.611 268L184.917 266L184.889 264L184.667 263L184.278 262L183.667 261L181.972 259L181 258L179.083 256L177.389 254.028L176.611 253.083L174.917 251.5L173 250.5L171 250.083L169 250H168H166H163H161L160 249.972L159 249.917L157 249.611L156 249.389L154 249.083L153 249.028L151 249H150H147H145L143 248.972L142 248.917L140 248.611L139 248.389L137 248.083L136 248.028L134 248H133L129 248L127 247.972L126 247.917L124 247.611L123 247.389L121 247.083L120 247.028L118 247H116H113H109L108.417 244.944L108.222 243.944L108.083 243L108 241L107.972 239L107.917 238L107.611 236L107.389 235L107.083 233L107.028 232L107 230L106.972 228L106.917 227L106.611 225L106.389 224L106.083 222L106.028 221L106 219L105.972 217L105.917 216L105.611 214L105.389 213L105.083 211L105.028 210L105 208L104.972 206L104.917 205L104.611 203L104.389 202L104.083 200L104.028 199L104 197L103.972 195L103.917 194L103.611 192L103.389 191L103.083 189L103.028 188L103 186L102.972 184L102.917 183L102.611 181L102.389 180L102.083 178L102.028 177L102 176L101.972 174L101.917 173L101.611 171L101.389 170L101.083 168L101.028 167L100.972 165L100.917 164L100.611 162L100.389 161L100.083 159L100.028 158L100 157L99.972 155L99.917 154L99.611 152L99.389 151L99.083 149L99.028 148L99 146L98.972 144L98.917 143L98.611 141L98.389 140L98.083 138L98.028 137L98 135L97.972 134L97.917 133L97.611 131L97.389 130.056L97.222 129.056L97.083 128.5L97 127L98.5 126.917L99.056 126.778L100.056 126.611L102 126.139L103 125.861L104 125.639L105 125.389L106 125.194L108 124.806L109 124.611L111 124.139L112 123.861L113 123.639L114 123.361L115 123.139L117 122.639L118 122.361L119 122.139L120 121.861L121 121.639L122 121.361L124 120.861L125 120.639L126 120.361L127 120.139L128 119.861L129 119.639L130 119.361L131 119.139L132 118.861L134 118.361L135 118.139L136 117.861L137 117.639L138 117.361L139 117.139L140 116.861L142 116.361L143 116.139L144 115.861L145 115.639L146 115.361L147 115.139L148 114.861L149 114.639L150 114.361L152 113.861L153 113.611L155 112.889L157 111.694L158 110.889L159 109.972L161 108L162 107L165 104L167 102L169 100.028L170 99.111L172 97.639L173 97.111L175 96.417L177 96.083L179 96L181 95.917L183 95.611L184 95.389L186 95.083L187 95.028L189 94.972L190 94.917L192 94.611L194 94.222L195 94.083L197 93.972L198 93.917L200 93.611L201 93.389L203 93.083L205 92.972L206 92.917L208 92.611L209 92.389L211 92.083L212 92.028L214 91.917L216 91.611L217 91.389L219 91.083L220 91.028L222 90.972L223 90.917L225 90.611L226 90.389L228 90.083L229 90.028L231 89.917L232 89.778L234 89.389L236 89.083L237 89.028L239 88.972L240 88.917L242 88.611L243 88.389L245 88.083L246 88.028L248 87.917L249 87.778L251 87.389L253 87.083L254 87.028L256 86.972L257 86.917L259 86.611L260 86.389L262 86.083L263 86.028L265 85.972L266 85.917L268 85.611L270 85.222L271 85.083L273 84.972L274 84.917L276 84.611L277 84.389L279 84.083L280 84.028L282 83.972L283 83.917L285 83.611L286 83.389L288 83.083L290 82.972L291 82.917L293 82.611L294 82.389L296 82.083L297 82.028L299 81.917L301 81.611L302 81.389L304 81.083L305 81.028L307 80.917L309 80.611L309.944 80.389L310.944 80.222L311.5 80.083L313 80L313.028 82.056L313.083 83.056L313.389 85L313.611 86L313.917 88L313.972 89L314.083 91L314.222 92L314.611 94L314.917 96L315.028 98L315.083 99L315.417 101L316.111 103L317.306 104.889L318.111 105.694L320 106.889L322 107.611L323 107.861L325 108.361L326 108.639L328 109.139L329 109.361L331 109.861L332 110.139L333 110.361L334 110.639L335 110.861L336 111.139L338 111.639L339 111.861L340 112.139L341 112.361L342 112.639L343 112.861L344 113.139L346 113.611L347 113.806L349 114.194L350 114.389L351 114.639L353 115.139L354.972 115.722L355.917 116.111L357.528 117.306L358.75 119.028L359.778 121L360.222 122L360.75 123L361.611 125L362.389 127L362.833 128L363.25 129L363.778 130L364.778 132L365.222 133L365.778 134L366.222 135L366.778 136L367.75 138L368.167 139L368.611 140L369.417 142L370.5 143.972L372.083 145.667L373.028 146.278L375 146.861L376 146.889L378 146.611L379 146.389L381 146.083L383 145.917L384 145.778L386 145.389L388 145.083L390 144.917L391 144.778L393 144.389L394 144.222L395 144.083L397 143.972L398 143.917L400 143.5L401 143.056L402 142.5L404 140.944L405 140.083L407 138.722L408 138.333L410 137.944L411 137.778L413 137.389L415 137.083L417 136.917L419 136.611L421 136.222L422 136.083L424 135.917L425 135.778L427 135.389L429 135.083L430 135.028L432 134.917L434 134.611L436 134.222L437 134.083L439 133.917L440 133.778L441 133.611L443 133.222L444 133.083L446 132.972L447 132.917L449 132.611L450 132.389L452 132.083L453 132.028L455 131.917L457 131.611L458 131.389L460 131.083L461 131.028L462.944 131H465L465.028 132.5L465.222 134.056L465.611 136L465.917 138L466.028 140L466.083 141L466.389 143L466.611 144L466.917 146L466.972 147L467.083 149L467.389 151L467.611 152L467.917 154L468.028 156L468.083 157L468.389 159L468.611 160L468.917 162L469.028 164L469.083 165L469.389 167L469.611 168L469.917 170L469.972 171L470.083 173L470.389 175L470.611 176L470.917 178L470.972 179L471.028 181L471.083 182L471.389 184L471.611 185L471.917 187L472.083 189L472.222 190L472.611 192L472.917 194L473.083 196L473.222 197L473.611 199L473.917 201L473.972 202L474.083 204L474.389 206L474.611 206.944L474.778 207.944L474.917 208.5L475 210L472.944 210.583L471.944 210.778L471 210.917L469 211H468L466 211.028L465 211.083L463 211.389L462 211.611L460 211.917L459 211.972L458 212L456 212.028L455 212.083L453 212.389L452 212.611L450 212.917L449 212.972L447 213L446 213.028L445 213.083L443 213.389L442 213.611L440 213.917L439 213.972L437 214L436 214.028L435 214.083L433 214.389L432 214.611L430 214.917L429 214.972L427 215.028L426 215.083L424 215.389L423 215.611L421 215.889H420L418 215.611L416 215.139L415 214.861L413 214.472H411L410 214.639L408 214.917L406 215.083L405 215.222L403 215.611L401 215.944L400 216.056L398 216.389L396 216.778L395 216.917L393 217.083L392 217.222L391 217.389L389 217.778L388 217.917L386 218.083L385 218.222L383 218.611L381 218.917L379 219.083L378 219.222L376 219.611L375 219.778L374 219.917L372 220.083L371 220.222L369 220.611L367 220.944L366 221.056L364 221.389L363 221.611L361 221.917L359 222.083L358 222.222L357 222.389L355 222.778L354 222.917L352 223.083L350 223.389L348 223.778L347 223.917L345 224.083L344 224.222L342 224.611L340 224.944L339 225.056L337 225.389L336 225.611L334 225.917L332 226.111L331 226.333L329.083 227.333L327.472 229.028L326.861 230L326.25 231L325.778 232L325.222 233L324.75 234L324.167 235L323.611 236L322.389 238L321.194 240L320.611 241L319.972 242L319.333 243L318 245L316.583 247L315.806 248L315 249L313.389 251L312.611 252L310.917 254L309 256L307 257.972L306 258.917L304 260.611L302 262.222L301.028 263.083L300.111 264.028L298.722 266L298.111 268L298.083 270L298.222 271L298.639 273L298.861 274L299.361 276L299.611 277L299.944 279L300.056 280L300.389 282L300.611 283L300.806 284L301.194 286L301.389 287L301.611 288L302 290L302.389 292L302.611 293L303 295L303.472 297L304.194 298.944L304.5 299.5L305 301H323V334L161 334ZM279 257L280.5 256.722L282.056 256.083L283 255.583L284 254.972L286 253.611L287 252.861L289 251.361L290 250.611L292 248.917L294 247L295 246L297 244L299 242L299.972 241L300.917 240L302.611 238L303.361 237L304.861 235L305.611 234L306.306 233L307.611 231L308.75 229L309.778 227L310.222 226L310.778 225L311.75 223L312.167 222L312.611 221L313.389 219L313.806 218L314.194 217L315.083 215L315.639 214.028L317.111 212.333L319 211.333L321 211L323 210.778L325 210.389L327 210.083L329 209.917L330 209.778L331 209.611L333 209.222L334 209.083L336 208.917L337 208.778L339 208.389L341 208.056L342 207.944L344 207.611L346 207.222L347 207.083L349 206.917L350 206.778L352 206.389L354 206.056L355 205.944L357 205.611L359 205.222L360 205.083L362 204.917L364 204.611L366 204.222L367 204.083L369 203.917L370 203.778L372 203.389L374 203.056L375 202.944L377 202.611L379 202.222L380 202.083L382 201.917L383 201.778L384 201.611L386 201.222L387 201.083L389 200.917L390 200.778L392 200.389L394 200.083L396 199.917L398 199.611L400 199.222L401 199.083L403 198.917L405 198.611L406 198.389L408 198.056L409 197.944L411 197.639L412 197.472L414 197.5L416 198L418 198.583L419 198.778L420 198.917L422 198.972L423 198.917L425 198.611L426 198.389L428 198.083L429 198.028L431 198L432 197.972L433 197.917L435 197.611L437 197.222L438 197.083L440 197L442 196.972L443 196.917L445 196.611L446 196.389L448 196.083L449 196.028L451 195.972L452 195.889L453.889 195.278L454.667 194.667L455.667 192.972L455.889 191L455.611 189L455.389 188L455.083 186L455 185L454.778 183L454.389 181L454.083 179L454.028 178L453.917 176L453.778 175L453.389 173L453.083 171L452.972 169L452.917 168L452.611 166L452.389 165L452.083 163L452.028 162L451.917 160L451.778 159L451.389 157L451.222 156L450.917 154L450.278 152.111L448.889 150.722L447.972 150.333L446 150.028L445 150L443 150.083L441 150.389L440 150.611L438 150.917L436 151.083L435 151.222L433 151.611L431 151.917L429 152.083L428 152.222L426 152.611L424 152.917L422 153.083L420 153.389L419 153.611L417 154.028L416 154.306L414 155.333L413 156.083L411 157.667L410 158.306L408 159.111L407 159.361L406 159.611L404 159.917L402 160.083L400 160.389L398 160.778L397 160.917L395 161.083L394 161.222L392 161.611L391 161.778L390 161.917L388 162.083L387 162.222L385 162.611L383 162.917L382 162.972L380 163.083L378 163.389L377 163.611L375 163.917L374 163.972L372 164.028L371 164.083L369 164.389L368 164.611L366 164.917L365.056 164.972L364.056 165H362L361.5 163.5L361.167 162.944L360.75 161.944L360.222 161L359.778 160L358.778 158L358.222 157L357.25 155L356.833 154L356.389 153L355.611 151L355.167 150L354.75 149L353.778 147L353.222 146L352.778 145L351.778 143L351.222 142L350.778 141L350.25 140L349.389 138L349 137L348.611 136L347.722 134L346.528 132.111L345.75 131.306L344.917 130.639L343 129.722L342 129.417L341 129.194L339 128.806L338 128.611L336 128.139L335 127.861L334 127.639L333 127.361L332 127.139L330 126.639L329 126.361L328 126.139L327 125.861L326 125.639L325 125.361L324 125.139L323 124.861L322 124.639L321 124.361L320 124.139L318 123.639L317 123.361L316 123.139L315 122.861L314 122.639L313 122.361L312 122.139L311 121.861L310 121.639L309 121.361L308 121.139L307 120.861L305 120.389L303.056 120.083L301 120L300.917 118.5L300.778 117.944L300.611 116.944L300.389 116L300.083 114L300.028 113L299.972 111L299.917 110L299.611 108L299.222 106L299.083 105L298.889 103L298.667 102.028L298.278 101.111L297.667 100.333L296.889 99.722L295 99.139L294 99.111L292 99.389L291 99.611L289 99.917L288 99.972L287 100L285 100.083L284 100.222L283 100.389L281 100.778L280 100.917L278 101.028L277 101.083L275 101.389L274 101.611L272 101.917L271 101.972L269 102.028L268 102.083L266 102.389L265 102.611L263 102.917L262 102.972L260 103.083L258 103.389L256 103.778L255 103.917L253 104.028L252 104.083L250 104.389L249 104.611L247 104.917L246 104.972L244 105.028L243 105.083L241 105.389L240 105.611L238 105.917L237 105.972L235 106.083L234 106.222L232 106.611L230 106.917L229 106.972L227 107.083L226 107.222L224 107.611L222 107.917L221 107.972L219 108.028L218 108.083L216 108.389L215 108.611L213 108.917L212 108.972L210 109.028L209 109.083L207 109.389L206 109.611L204 109.917L203 109.972L201 110.028L200 110.083L198 110.389L196 110.778L195 110.917L193 111.028L192 111.083L190 111.389L188 111.778L187 111.917L185 112.028L184 112.083L182 112.5L180 113.5L178 115.083L176 117L174 119L171 122L170 123L168 124.972L167 125.889L165 127.306L163 128.111L161 128.639L160 128.861L159 129.139L157 129.639L156 129.861L155 130.139L154 130.361L153 130.639L152 130.861L151 131.139L150 131.361L149 131.639L148 131.861L146 132.361L145 132.639L144 132.861L143 133.139L142 133.361L141 133.639L140 133.861L139 134.139L138 134.361L137 134.639L136 134.861L135 135.139L134 135.361L132 135.861L131 136.139L130 136.361L129 136.639L128 136.861L127 137.139L125 137.639L124 137.861L123 138.139L121 138.639L120 138.889L118.111 139.694L116.722 141.111L116.333 142.028L116.111 143L116 145V147V148L116.083 150L116.222 151L116.389 152L116.778 154L116.917 155L117 157V158V160L117.028 161L117.083 162L117.389 164L117.611 165L117.917 167L117.972 168L118 170L118.028 172L118.083 173L118.389 175L118.611 176L118.917 178L118.972 179L119 181L119.028 182L119.083 183L119.389 185L119.611 186L119.917 188L119.972 189L120 191L120.028 192L120.083 193L120.389 195L120.611 196L120.917 198L120.972 199L121 201L121.028 202L121.083 203L121.389 205L121.611 206L121.917 208L121.972 209L122 211V212L122.083 214L122.389 216L122.611 217L122.917 219L122.972 220L123 222L123.083 224L123.222 225L123.417 226L124.111 227.972L124.639 228.889L125.306 229.667L126.111 230.278L127.028 230.667L128 230.889L130 231H131H133H134L136 231.083L137 231.222L139 231.611L141 231.917L142 231.972L144 232H145H148H149L151 232.028L152 232.083L154 232.389L155 232.611L157 232.917L158 232.972L160 233H163H164L166 233.028L167 233.083L169 233.389L170 233.611L172 233.917L173 233.972L175 234H177H178L180 234.111L181 234.333L182 234.722L183.917 236.111L185.611 238L186.389 239L188.083 241L189.028 242L190 243L192 245L194 246.972L195 247.917L197 249.611L199 251.139L200 251.833L200.944 252.528L201.944 253.083L202.5 253.472L204 254L203.917 255.5L203.778 256.056L203.611 257.056L203.139 259L202.861 260L202.639 261L202.389 262L202.194 263L201.806 265L201.611 266L201.389 267L201.194 268L200.806 270L200.611 271L200.389 272L200.056 274L199.944 275L199.611 277L199.194 279L198.806 281L198.611 282L198.389 283L198.194 284L197.806 286L197.611 287L197.389 288L197.056 290L196.944 291L196.611 293L196.361 294L195.861 296L195.639 297L195.389 298L195.056 300L194.944 301L194.611 303L194.361 304L194.139 305L193.861 306L193.639 307L193.389 308L193.083 310L193.028 311L193 312.944V313.944V316L194 317H266H277H281H283H284L286 316.889L287.889 316.278L288.667 315.667L289.25 314.889L289.667 313L289.583 312L289.389 311L289.194 310L289 309L288.611 307L288.389 306L288.194 305L287.806 303L287.611 302L287.389 301L287 299L286.611 297L286.389 296L286.194 295L285.806 293L285.611 292L285.389 291L285.194 290L284.806 288L284.611 287L284.389 286L284.194 285L283.806 283L283.611 282L283.389 281L283.194 280L282.806 278L282.611 277L282.389 276L282.194 275L281.806 273L281.389 271L281.194 270L280.806 268L280.611 267L280.389 266L280.056 264L279.778 262L279.389 260.056L279.222 259.056L279.083 258.5L279 257ZM196 314L196.028 312.5L196.222 310.944L196.389 310L196.861 308L197.139 307L197.361 306L197.611 305L197.944 303L198.056 302L198.389 300L198.639 299L198.861 298L199.361 296L199.611 295L199.944 293L200.056 292L200.389 290L200.806 288L201.194 286L201.389 285L201.611 284L201.806 283L202.194 281L202.389 280L202.611 279L202.944 277L203.056 276L203.389 274L203.806 272L204.194 270L204.389 269L204.611 268L204.806 267L205.194 265L205.389 264L205.861 262L206.139 261L206.361 260L206.778 258L206.944 256L206.889 255L206.278 253.028L204.889 251.222L203.972 250.389L202 248.861L201 248.139L199 246.611L197 244.917L195 243L194 242L193 241L191.083 239L189.389 237L188.611 236L186.917 234.028L185.972 233.111L184 231.722L182 231.111L180 231H179H177L175 230.972L174 230.917L172 230.611L171 230.389L169 230.083L168 230.028L166 230H165H163H162L160 229.972L159 229.917L157 229.611L156 229.389L154 229.083L153 229.028L151 229H150H147H146L144 228.972L143 228.917L141 228.611L140 228.389L138 228.083L137 228.028L136 228H134L128 228L127.194 226.5L127.028 225.944L126.667 224.944L126.417 224L126.083 222L126.028 221L126 220L125.972 218L125.917 217L125.611 215L125.389 214L125.083 212L125.028 211L125 209L124.972 207L124.917 206L124.611 204L124.389 203L124.083 201L124.028 200L124 199L123.972 197L123.917 196L123.611 194L123.389 193L123.083 191L123.028 190L123 189L122.972 187L122.917 186L122.611 184L122.389 183L122.083 181L122.028 180L122 179L121.972 177L121.917 176L121.611 174L121.389 173L121.083 171L121.028 170L121 168L120.972 166L120.917 165L120.611 163L120.389 162L120.083 160L120.028 159L120 157V155L119.972 154L119.917 153L119.611 151L119.389 150L119.083 148L119.028 147L119 145.056V143L120 142L121.5 141.917L122.056 141.778L123.056 141.611L124 141.361L126 140.861L127 140.639L128 140.361L129 140.139L131 139.639L132 139.361L133 139.139L134 138.861L135 138.639L136 138.361L138 137.861L139 137.639L140 137.361L141 137.139L142 136.861L143 136.639L144 136.361L146 135.861L147 135.639L148 135.361L149 135.139L150 134.861L151 134.639L153 134.139L154 133.861L155 133.639L156 133.361L157 133.139L158 132.861L159 132.639L160 132.361L161 132.139L162 131.861L164 131.361L165 131.111L167 130.306L169 128.889L170 127.972L172 126L173 125L176 122L178 120L180 118.083L182 116.5L184 115.5L185 115.25L187 115.028L188 114.972L189 114.917L191 114.611L192 114.389L194 114.083L195 114.028L197 113.917L199 113.611L200 113.389L202 113.083L203 113.028L205 112.972L206 112.917L208 112.611L209 112.389L211 112.083L212 112.028L214 111.972L215 111.917L217 111.611L218 111.389L220 111.083L221 111.028L223 110.972L224 110.917L226 110.611L227 110.389L229 110.083L231 109.972L232 109.917L234 109.611L235 109.389L237 109.083L238 109.028L240 108.917L242 108.611L243 108.389L245 108.083L246 108.028L248 107.972L249 107.917L251 107.611L252 107.389L254 107.083L255 107.028L257 106.917L259 106.611L260 106.389L262 106.083L263 106.028L265 105.917L266 105.778L268 105.389L270 105.083L271 105.028L273 104.972L274 104.917L276 104.611L277 104.389L279 104.083L280 104.028L282 103.917L283 103.778L285 103.389L287 103.083L288 103.028L290 102.972L291 102.917L292.944 102.583L295 102L295.722 103.5L295.75 104.056L295.944 105.056L296.083 107L296.389 109L296.611 110L296.917 112L297 114L297.083 116L297.222 117L297.417 118L297.694 119L298.333 120.944L298.556 121.5L299 123L301.056 123.083L303 123.389L305 123.861L306 124.139L307 124.361L308 124.639L309 124.861L310 125.139L311 125.361L312 125.639L313 125.861L314 126.139L315 126.361L316 126.639L318 127.139L319 127.361L320 127.639L321 127.861L322 128.139L323 128.361L324 128.639L325 128.861L326 129.139L328 129.639L329 129.861L330 130.139L331 130.361L332 130.639L333 130.861L334 131.139L336 131.611L338 132L340 132.417L341.917 133.111L343.528 134.306L344.139 135.111L344.722 136.028L345.611 138L346 139L346.389 140L347.25 142L347.778 143L348.222 144L348.778 145L349.778 147L350.222 148L350.778 149L351.75 151L352.167 152L352.611 153L353.389 155L353.833 156L354.25 157L355.222 159L355.778 160L356.222 161L356.778 162L357.222 163L358.222 165L358.75 165.944L359.167 166.944L359.5 167.5L360 169L361.5 168.75L363.056 168.389L365 168.083L366 168.028L368 167.917L370 167.611L371 167.389L373 167.083L374 167.028L376 166.972L377 166.917L379 166.611L380 166.389L382 166.083L384 165.972L385 165.917L387 165.611L389 165.222L390 165.083L392 164.917L393 164.778L395 164.389L397 164.083L399 163.917L400 163.778L402 163.389L404 163.083L406 162.917L408 162.611L410 162.111L411 161.75L412 161.306L414 159.917L416 158.333L417 157.722L418 157.306L419 157.028L421 156.611L422 156.389L424 156.083L426 155.917L427 155.778L428 155.611L430 155.222L431 155.083L433 154.917L435 154.611L437 154.222L438 154.083L440 153.917L442 153.611L443 153.389L444.944 153.083L447 153L448 154L448.028 156.056L448.083 157.056L448.389 159L448.611 160L448.917 162L448.972 163L449.083 165L449.222 166L449.611 168L449.917 170L450.028 172L450.083 173L450.389 175L450.778 177L450.917 178L451.028 180L451.083 181L451.389 183L451.778 185L451.917 186L452.083 188L452.222 188.944L452.417 189.944L453 192L451.5 192.722L450.944 192.75L449.944 192.944L449 192.972L447 193.028L446 193.083L444 193.389L443 193.611L441 193.917L440 193.972L438 194L437 194.028L436 194.083L434 194.389L433 194.611L431 194.917L430 194.972L429 195H428L426 195.083L424 195.389L423 195.583L421 195.694L419 195.306L418 195L416 194.417L415 194.222L414 194.083H412L410 194.389L409 194.611L407 194.944L406 195.056L404 195.389L403 195.611L401 195.917L399 196.083L398 196.222L396 196.611L395 196.778L394 196.917L392 197.083L390 197.389L388 197.778L387 197.917L385 198.083L384 198.222L382 198.611L381 198.778L380 198.917L378 199.083L377 199.222L375 199.611L373 199.944L372 200.056L370 200.389L368 200.778L367 200.917L365 201.083L364 201.222L362 201.611L360 201.917L358 202.083L357 202.222L355 202.611L353 202.944L352 203.056L350 203.389L348 203.778L347 203.917L345 204.083L344 204.222L342 204.611L340 204.944L339 205.056L337 205.389L335 205.778L334 205.917L332 206.083L331 206.222L329 206.611L328 206.778L327 206.917L325 207.083L323 207.389L321 207.778L319 208L317 208.333L315.028 209.333L313.306 211.028L312.083 213L311.194 215L310.806 216L310.389 217L309.611 219L309.167 220L308.75 221L308.222 222L307.222 224L306.778 225L306.222 226L305.75 227L304.611 229L303.972 230L302.611 232L301.861 233L301.139 234L299.611 236L297.917 238L296.972 239L296 240L294 242L292 244L291 244.972L290 245.917L288 247.611L287 248.361L285 249.861L284 250.611L283 251.306L281 252.611L279.056 253.722L278.056 254.167L277.5 254.5L276 255V257.056L276.028 259L276.083 260L276.389 262L276.611 263L276.778 264L276.944 265L277.056 266L277.389 268L277.611 269L277.806 270L278.194 272L278.389 273L278.611 274L278.806 275L279.194 277L279.389 278L279.611 279L279.806 280L280.194 282L280.389 283L280.611 284L280.806 285L281.194 287L281.389 288L281.611 289L281.806 290L282.194 292L282.389 293L282.611 294L282.806 295L283.194 297L283.389 298L283.611 299L283.806 300L284.194 302L284.389 303L284.611 304L285 306L285.389 308L285.611 309L285.917 310.944L285.972 311.944L286 314H196Z" fill="#00FF00"/>
</svg>
